<svg width="561" height="544" viewBox="0 0 561 544" fill="none" xmlns="http://www.w3.org/2000/svg">
<path d="M132.3 124.563C190.062 89.5259 182.812 16.2502 257.248 4.92065C307.696 -2.75781 338.597 -2.11721 387.744 11.6128C442.042 26.7816 476.979 39.8128 513.222 82.9956C543.648 119.247 557.38 152.973 560.625 194.531C564.377 242.599 502.777 257.441 506.53 305.509C509.774 347.067 558.556 355.893 560.625 397.526C563.046 446.252 537.904 477.416 498.165 505.716C437.155 549.163 380.543 478.215 306.881 491.774C251.951 501.884 229.364 546.711 173.596 543.638C118.255 540.588 58.3937 532.745 47.5606 478.389C41.9323 450.149 65.9746 435.157 63.7333 406.449C60.0612 359.416 3.17894 328.722 0.68828 270.117C-1.00782 230.207 -1.47268 201.867 22.9954 170.292C51.3385 133.717 92.7382 148.56 132.3 124.563Z" fill="#1D1F20"/>
<path d="M442.057 363.204C442.057 363.204 449.14 357.304 455.207 363.204C461.275 369.104 462.457 405.677 462.457 405.677" stroke="#FF3366" stroke-width="1.11536" stroke-miterlimit="10"/>
<path d="M462.959 412.737C462.959 412.737 458.787 369.818 474.492 351.783" stroke="#FF3366" stroke-width="1.11536" stroke-miterlimit="10"/>
<path d="M461.464 408.209C461.464 408.209 464.677 359.356 452.887 348.526" stroke="#FF3366" stroke-width="1.11536" stroke-miterlimit="10"/>
<path d="M462.959 408.209C462.959 408.209 463.227 375.93 471.982 370.911C480.738 365.892 485.21 382.266 485.21 382.266" stroke="#FF3366" stroke-width="1.11536" stroke-miterlimit="10"/>
<path d="M459.501 408.209C459.501 408.209 460.929 383.426 454.136 374.57C447.344 365.714 440.217 378.362 440.217 378.362" stroke="#FF3366" stroke-width="1.11536" stroke-miterlimit="10"/>
<path d="M461.866 411.533C461.866 411.533 457.471 353.534 464.732 343.752" stroke="#FF3366" stroke-width="1.11536" stroke-miterlimit="10"/>
<path d="M479.488 375.618C479.488 375.618 475.116 377.224 476.421 381.028C477.726 384.831 491.523 391.066 491.523 391.066C491.523 391.066 497.301 385.768 491.992 377.146C486.683 368.524 479.6 372.874 479.488 375.618Z" fill="#FF3366"/>
<path opacity="0.5" d="M479.488 375.618C479.488 375.618 475.116 377.224 476.421 381.028C477.726 384.831 491.523 391.066 491.523 391.066C491.523 391.066 497.301 385.768 491.992 377.146C486.683 368.524 479.6 372.874 479.488 375.618Z" fill="white"/>
<path d="M460.505 368.413C460.505 368.413 465.156 368.223 465.413 372.227C465.669 376.232 455.374 387.318 455.374 387.318C455.374 387.318 448.002 384.653 449.586 374.648C451.17 364.643 459.345 365.915 460.505 368.413Z" fill="#FF3366"/>
<path opacity="0.5" d="M460.505 368.413C460.505 368.413 465.156 368.223 465.413 372.227C465.669 376.232 455.374 387.318 455.374 387.318C455.374 387.318 448.002 384.653 449.586 374.648C451.17 364.643 459.345 365.915 460.505 368.413Z" fill="white"/>
<path d="M456.568 349.195C456.568 349.195 459.669 348.861 459.412 346.965C459.156 345.069 447.366 340.273 440.451 348.08C440.451 348.08 444.912 355.731 451.348 355.887C457.784 356.044 456.568 349.195 456.568 349.195Z" fill="#FF3366"/>
<path opacity="0.5" d="M456.568 349.195C456.568 349.195 459.669 348.861 459.412 346.965C459.156 345.069 447.366 340.273 440.451 348.08C440.451 348.08 444.912 355.731 451.348 355.887C457.784 356.044 456.568 349.195 456.568 349.195Z" fill="white"/>
<path d="M462.345 344.611C462.345 344.611 459.535 345.972 458.754 344.232C457.973 342.492 465.446 332.13 475.484 335.12C475.484 335.12 475.752 343.976 470.331 347.467C464.911 350.958 462.345 344.611 462.345 344.611Z" fill="#FF3366"/>
<path opacity="0.5" d="M462.345 344.611C462.345 344.611 459.535 345.972 458.754 344.232C457.973 342.492 465.446 332.13 475.484 335.12C475.484 335.12 475.752 343.976 470.331 347.467C464.911 350.958 462.345 344.611 462.345 344.611Z" fill="white"/>
<path d="M447.667 374.09C447.667 374.09 449.809 372.361 447.5 371.514C445.191 370.666 433.859 370.911 433.737 382.132C433.737 382.132 446.931 384.363 448.571 380.057C450.21 375.752 447.667 374.09 447.667 374.09Z" fill="#FF3366"/>
<path opacity="0.5" d="M447.667 374.09C447.667 374.09 449.809 372.361 447.5 371.514C445.191 370.666 433.859 370.911 433.737 382.132C433.737 382.132 446.931 384.363 448.571 380.057C450.21 375.752 447.667 374.09 447.667 374.09Z" fill="white"/>
<path d="M474.57 348.917C474.57 348.917 472.428 347.188 474.748 346.34C477.068 345.492 488.378 345.738 488.501 356.969C488.501 356.969 475.306 359.2 473.666 354.884C472.027 350.567 474.57 348.917 474.57 348.917Z" fill="#FF3366"/>
<path opacity="0.5" d="M474.57 348.917C474.57 348.917 472.428 347.188 474.748 346.34C477.068 345.492 488.378 345.738 488.501 356.969C488.501 356.969 475.306 359.2 473.666 354.884C472.027 350.567 474.57 348.917 474.57 348.917Z" fill="white"/>
<path d="M467.599 357.951C467.599 357.951 467.409 355.854 469.104 356.679C470.8 357.505 476.711 363.873 470.588 369.919C470.588 369.919 462.345 363.818 463.829 360.639C465.312 357.46 467.599 357.951 467.599 357.951Z" fill="#FF3366"/>
<path opacity="0.5" d="M467.599 357.951C467.599 357.951 467.409 355.854 469.104 356.679C470.8 357.505 476.711 363.873 470.588 369.919C470.588 369.919 462.345 363.818 463.829 360.639C465.312 357.46 467.599 357.951 467.599 357.951Z" fill="white"/>
<path d="M445.749 360.951C445.749 360.951 447.032 359.278 445.158 359.066C443.284 358.854 434.897 361.096 436.848 369.473C436.848 369.473 447.076 368.714 447.511 365.223C447.946 361.732 445.749 360.951 445.749 360.951Z" fill="#FF3366"/>
<path opacity="0.5" d="M445.749 360.951C445.749 360.951 447.032 359.278 445.158 359.066C443.284 358.854 434.897 361.096 436.848 369.473C436.848 369.473 447.076 368.714 447.511 365.223C447.946 361.732 445.749 360.951 445.749 360.951Z" fill="white"/>
<path d="M480.303 439.316H445.214L441.432 400.903H484.084L480.303 439.316Z" fill="#263238"/>
<path opacity="0.2" d="M480.303 439.316H445.214L441.432 400.903H484.084L480.303 439.316Z" fill="white"/>
<path d="M485.969 396.665H439.559V405.142H485.969V396.665Z" fill="#263238"/>
<path opacity="0.4" d="M485.969 396.665H439.559V405.142H485.969V396.665Z" fill="white"/>
<path d="M498.171 131.567H378.883C377.473 131.567 376.329 132.711 376.329 134.121V231.336C376.329 232.746 377.473 233.89 378.883 233.89H498.171C499.581 233.89 500.725 232.746 500.725 231.336V134.121C500.725 132.711 499.581 131.567 498.171 131.567Z" fill="#FF3366"/>
<path opacity="0.6" d="M500.725 134.121V231.336C500.725 232.013 500.456 232.663 499.977 233.142C499.498 233.621 498.848 233.89 498.171 233.89H378.883C378.206 233.89 377.556 233.621 377.077 233.142C376.598 232.663 376.329 232.013 376.329 231.336V134.121C376.332 133.445 376.602 132.797 377.081 132.318C377.559 131.84 378.207 131.57 378.883 131.567H498.226C498.893 131.584 499.527 131.861 499.993 132.338C500.46 132.814 500.722 133.454 500.725 134.121Z" fill="white"/>
<path d="M498.07 141.973H378.973V231.023H498.07V141.973Z" fill="#263238"/>
<path opacity="0.5" d="M388.665 153.071C388.811 153.176 388.987 153.23 389.167 153.227C389.297 153.229 389.426 153.2 389.542 153.141C389.659 153.083 389.759 152.998 389.836 152.893C389.903 152.805 389.951 152.704 389.979 152.597C390.006 152.49 390.011 152.379 389.995 152.269C389.978 152.16 389.94 152.055 389.882 151.961C389.824 151.867 389.748 151.786 389.658 151.722L387.204 149.903L389.669 148.085C389.757 148.02 389.832 147.938 389.889 147.844C389.946 147.75 389.984 147.646 390.001 147.537C390.017 147.428 390.012 147.317 389.986 147.21C389.96 147.104 389.912 147.003 389.847 146.914C389.782 146.826 389.7 146.751 389.606 146.694C389.512 146.637 389.407 146.599 389.299 146.583C389.19 146.566 389.079 146.571 388.972 146.597C388.865 146.624 388.765 146.671 388.676 146.736L385.33 149.234C385.226 149.313 385.142 149.415 385.084 149.532C385.026 149.65 384.995 149.778 384.995 149.909C384.995 150.04 385.026 150.169 385.084 150.286C385.142 150.403 385.226 150.505 385.33 150.584L388.665 153.071Z" fill="white"/>
<path opacity="0.5" d="M399.997 149.892L397.532 151.722C397.364 151.848 397.251 152.035 397.218 152.243C397.185 152.451 397.233 152.664 397.354 152.837C397.43 152.943 397.531 153.029 397.647 153.089C397.763 153.149 397.892 153.181 398.023 153.183C398.204 153.182 398.38 153.123 398.525 153.015L401.871 150.517C401.977 150.44 402.063 150.34 402.123 150.224C402.182 150.107 402.213 149.978 402.213 149.848C402.213 149.717 402.182 149.588 402.123 149.472C402.063 149.356 401.977 149.255 401.871 149.179L398.525 146.691C398.438 146.614 398.336 146.556 398.226 146.52C398.115 146.484 397.998 146.472 397.883 146.484C397.767 146.496 397.655 146.532 397.555 146.589C397.454 146.647 397.366 146.724 397.297 146.818C397.227 146.911 397.178 147.018 397.153 147.131C397.127 147.244 397.125 147.362 397.147 147.476C397.169 147.59 397.215 147.698 397.281 147.793C397.348 147.889 397.433 147.969 397.532 148.03L399.997 149.892Z" fill="white"/>
<path opacity="0.5" d="M392.435 153.149C392.527 153.166 392.622 153.166 392.714 153.149C392.886 153.151 393.055 153.098 393.195 152.998C393.335 152.897 393.44 152.755 393.494 152.592L395.268 147.606C395.342 147.396 395.329 147.165 395.233 146.964C395.137 146.763 394.965 146.609 394.755 146.535C394.545 146.461 394.314 146.474 394.113 146.57C393.912 146.666 393.758 146.838 393.684 147.048L391.922 152.034C391.878 152.14 391.856 152.255 391.858 152.37C391.86 152.485 391.886 152.599 391.935 152.704C391.983 152.808 392.052 152.902 392.138 152.979C392.224 153.055 392.325 153.113 392.435 153.149Z" fill="white"/>
<path opacity="0.5" d="M406.388 153.506H410.794C411.089 153.506 411.373 153.389 411.582 153.179C411.792 152.97 411.909 152.687 411.909 152.391C411.909 152.095 411.792 151.811 411.582 151.602C411.373 151.393 411.089 151.275 410.794 151.275H406.388C406.092 151.275 405.808 151.393 405.599 151.602C405.39 151.811 405.273 152.095 405.273 152.391C405.273 152.687 405.39 152.97 405.599 153.179C405.808 153.389 406.092 153.506 406.388 153.506Z" fill="white"/>
<path opacity="0.5" d="M477.827 216.602H408.819C408.524 216.602 408.24 216.719 408.031 216.928C407.822 217.138 407.704 217.421 407.704 217.717C407.704 218.013 407.822 218.297 408.031 218.506C408.24 218.715 408.524 218.833 408.819 218.833H477.827C478.122 218.833 478.406 218.715 478.615 218.506C478.824 218.297 478.942 218.013 478.942 217.717C478.942 217.421 478.824 217.138 478.615 216.928C478.406 216.719 478.122 216.602 477.827 216.602Z" fill="white"/>
<path d="M492.984 216.602H484.452C484.156 216.602 483.872 216.719 483.663 216.928C483.454 217.138 483.336 217.421 483.336 217.717C483.336 218.013 483.454 218.297 483.663 218.506C483.872 218.715 484.156 218.833 484.452 218.833H492.984C493.28 218.833 493.564 218.715 493.773 218.506C493.982 218.297 494.1 218.013 494.1 217.717C494.1 217.421 493.982 217.138 493.773 216.928C493.564 216.719 493.28 216.602 492.984 216.602Z" fill="white"/>
<path d="M429.587 211.772H457.371C457.667 211.772 457.95 211.655 458.16 211.446C458.369 211.236 458.486 210.953 458.486 210.657C458.486 210.361 458.369 210.077 458.16 209.868C457.95 209.659 457.667 209.542 457.371 209.542H429.587C429.292 209.542 429.008 209.659 428.799 209.868C428.59 210.077 428.472 210.361 428.472 210.657C428.472 210.953 428.59 211.236 428.799 211.446C429.008 211.655 429.292 211.772 429.587 211.772Z" fill="white"/>
<path opacity="0.5" d="M477.827 211.772C478.122 211.772 478.406 211.655 478.615 211.446C478.824 211.236 478.942 210.953 478.942 210.657C478.942 210.361 478.824 210.077 478.615 209.868C478.406 209.659 478.122 209.542 477.827 209.542H462.067C461.771 209.542 461.487 209.659 461.278 209.868C461.069 210.077 460.951 210.361 460.951 210.657C460.951 210.953 461.069 211.236 461.278 211.446C461.487 211.655 461.771 211.772 462.067 211.772H477.827Z" fill="white"/>
<path opacity="0.5" d="M492.984 209.542H484.608C484.312 209.542 484.028 209.659 483.819 209.868C483.61 210.077 483.493 210.361 483.493 210.657C483.493 210.953 483.61 211.236 483.819 211.446C484.028 211.655 484.312 211.772 484.608 211.772H492.984C493.28 211.772 493.564 211.655 493.773 211.446C493.982 211.236 494.1 210.953 494.1 210.657C494.1 210.361 493.982 210.077 493.773 209.868C493.564 209.659 493.28 209.542 492.984 209.542Z" fill="white"/>
<path d="M477.938 202.481H440.741C440.445 202.481 440.161 202.599 439.952 202.808C439.743 203.017 439.626 203.301 439.626 203.597C439.626 203.893 439.743 204.176 439.952 204.385C440.161 204.595 440.445 204.712 440.741 204.712H477.905C478.2 204.712 478.484 204.595 478.693 204.385C478.902 204.176 479.02 203.893 479.02 203.597C479.02 203.301 478.902 203.017 478.693 202.808C478.484 202.599 478.2 202.481 477.905 202.481H477.938Z" fill="white"/>
<path d="M492.984 202.481H484.508C484.212 202.481 483.928 202.599 483.719 202.808C483.51 203.017 483.392 203.301 483.392 203.597C483.392 203.893 483.51 204.176 483.719 204.385C483.928 204.595 484.212 204.712 484.508 204.712H492.984C493.28 204.712 493.564 204.595 493.773 204.385C493.982 204.176 494.1 203.893 494.1 203.597C494.1 203.301 493.982 203.017 493.773 202.808C493.564 202.599 493.28 202.481 492.984 202.481Z" fill="white"/>
<path opacity="0.5" d="M457.471 196.537C457.471 196.241 457.354 195.957 457.145 195.748C456.935 195.539 456.652 195.421 456.356 195.421H418.434C418.138 195.421 417.854 195.539 417.645 195.748C417.436 195.957 417.318 196.241 417.318 196.537C417.318 196.832 417.436 197.116 417.645 197.325C417.854 197.534 418.138 197.652 418.434 197.652H456.356C456.652 197.652 456.935 197.534 457.145 197.325C457.354 197.116 457.471 196.832 457.471 196.537Z" fill="white"/>
<path opacity="0.5" d="M463.227 195.421C462.931 195.421 462.647 195.539 462.438 195.748C462.229 195.957 462.111 196.241 462.111 196.537C462.111 196.832 462.229 197.116 462.438 197.325C462.647 197.534 462.931 197.652 463.227 197.652H477.927C478.223 197.652 478.506 197.534 478.716 197.325C478.925 197.116 479.042 196.832 479.042 196.537C479.042 196.241 478.925 195.957 478.716 195.748C478.506 195.539 478.223 195.421 477.927 195.421H463.227Z" fill="white"/>
<path d="M492.984 195.421H484.608C484.312 195.421 484.028 195.539 483.819 195.748C483.61 195.957 483.493 196.241 483.493 196.537C483.493 196.832 483.61 197.116 483.819 197.325C484.028 197.534 484.312 197.652 484.608 197.652H492.984C493.28 197.652 493.564 197.534 493.773 197.325C493.982 197.116 494.1 196.832 494.1 196.537C494.1 196.241 493.982 195.957 493.773 195.748C493.564 195.539 493.28 195.421 492.984 195.421Z" fill="white"/>
<path d="M465.279 190.592H472.573C472.869 190.592 473.153 190.474 473.362 190.265C473.571 190.056 473.689 189.772 473.689 189.476C473.689 189.181 473.571 188.897 473.362 188.688C473.153 188.478 472.869 188.361 472.573 188.361H465.279C464.983 188.361 464.699 188.478 464.49 188.688C464.281 188.897 464.163 189.181 464.163 189.476C464.163 189.772 464.281 190.056 464.49 190.265C464.699 190.474 464.983 190.592 465.279 190.592Z" fill="white"/>
<path opacity="0.5" d="M477.793 190.592H492.984C493.28 190.592 493.564 190.474 493.773 190.265C493.982 190.056 494.1 189.772 494.1 189.476C494.1 189.181 493.982 188.897 493.773 188.688C493.564 188.478 493.28 188.361 492.984 188.361H477.793C477.497 188.361 477.214 188.478 477.004 188.688C476.795 188.897 476.678 189.181 476.678 189.476C476.678 189.772 476.795 190.056 477.004 190.265C477.214 190.474 477.497 190.592 477.793 190.592Z" fill="white"/>
<path d="M424.401 182.416C424.401 182.12 424.283 181.837 424.074 181.627C423.865 181.418 423.581 181.301 423.286 181.301H384.973C384.677 181.301 384.394 181.418 384.184 181.627C383.975 181.837 383.858 182.12 383.858 182.416C383.858 182.712 383.975 182.996 384.184 183.205C384.394 183.414 384.677 183.531 384.973 183.531H423.252C423.401 183.536 423.55 183.51 423.689 183.456C423.829 183.402 423.955 183.321 424.063 183.217C424.17 183.113 424.255 182.988 424.313 182.851C424.371 182.713 424.401 182.565 424.401 182.416Z" fill="white"/>
<path opacity="0.5" d="M429.309 183.531H440.563C440.858 183.531 441.142 183.414 441.351 183.205C441.56 182.996 441.678 182.712 441.678 182.416C441.678 182.12 441.56 181.837 441.351 181.627C441.142 181.418 440.858 181.301 440.563 181.301H429.309C429.013 181.301 428.729 181.418 428.52 181.627C428.311 181.837 428.193 182.12 428.193 182.416C428.193 182.712 428.311 182.996 428.52 183.205C428.729 183.414 429.013 183.531 429.309 183.531Z" fill="white"/>
<path opacity="0.5" d="M384.973 176.471H399.473C399.769 176.471 400.052 176.354 400.261 176.145C400.471 175.935 400.588 175.652 400.588 175.356C400.588 175.06 400.471 174.776 400.261 174.567C400.052 174.358 399.769 174.241 399.473 174.241H384.973C384.677 174.241 384.394 174.358 384.184 174.567C383.975 174.776 383.858 175.06 383.858 175.356C383.858 175.652 383.975 175.935 384.184 176.145C384.394 176.354 384.677 176.471 384.973 176.471Z" fill="white"/>
<path d="M452.831 175.356C452.831 175.06 452.714 174.776 452.505 174.567C452.296 174.358 452.012 174.241 451.716 174.241H406.7C406.405 174.241 406.121 174.358 405.912 174.567C405.702 174.776 405.585 175.06 405.585 175.356C405.585 175.652 405.702 175.935 405.912 176.145C406.121 176.354 406.405 176.471 406.7 176.471H451.716C452.012 176.471 452.296 176.354 452.505 176.145C452.714 175.935 452.831 175.652 452.831 175.356Z" fill="white"/>
<path d="M384.973 169.411H411.24C411.536 169.411 411.819 169.294 412.028 169.084C412.238 168.875 412.355 168.592 412.355 168.296C412.355 168 412.238 167.716 412.028 167.507C411.819 167.298 411.536 167.18 411.24 167.18H384.973C384.677 167.18 384.394 167.298 384.184 167.507C383.975 167.716 383.858 168 383.858 168.296C383.858 168.592 383.975 168.875 384.184 169.084C384.394 169.294 384.677 169.411 384.973 169.411Z" fill="white"/>
<path opacity="0.5" d="M416.203 168.296C416.203 168.592 416.321 168.875 416.53 169.084C416.739 169.294 417.023 169.411 417.318 169.411H423.821C424.117 169.411 424.401 169.294 424.61 169.084C424.819 168.875 424.936 168.592 424.936 168.296C424.936 168 424.819 167.716 424.61 167.507C424.401 167.298 424.117 167.18 423.821 167.18H417.318C417.023 167.18 416.739 167.298 416.53 167.507C416.321 167.716 416.203 168 416.203 168.296Z" fill="white"/>
<path opacity="0.5" d="M384.973 162.351H415.991C416.287 162.351 416.571 162.233 416.78 162.024C416.989 161.815 417.107 161.531 417.107 161.236C417.107 160.94 416.989 160.656 416.78 160.447C416.571 160.238 416.287 160.12 415.991 160.12H384.973C384.677 160.12 384.394 160.238 384.184 160.447C383.975 160.656 383.858 160.94 383.858 161.236C383.858 161.531 383.975 161.815 384.184 162.024C384.394 162.233 384.677 162.351 384.973 162.351Z" fill="white"/>
<path d="M439.079 162.351H462.87C463.165 162.351 463.449 162.233 463.658 162.024C463.868 161.815 463.985 161.531 463.985 161.236C463.985 160.94 463.868 160.656 463.658 160.447C463.449 160.238 463.165 160.12 462.87 160.12H439.079C438.783 160.12 438.5 160.238 438.29 160.447C438.081 160.656 437.964 160.94 437.964 161.236C437.964 161.531 438.081 161.815 438.29 162.024C438.5 162.233 438.783 162.351 439.079 162.351Z" fill="white"/>
<path opacity="0.2" d="M447.589 131.567V159.295C447.589 160.774 447.002 162.192 445.956 163.238C444.91 164.284 443.492 164.872 442.013 164.872H376.329V134.121C376.332 133.445 376.602 132.797 377.081 132.318C377.559 131.84 378.207 131.57 378.883 131.567H447.589Z" fill="black"/>
<path d="M439.146 53.7375H304.244C302.833 53.7375 301.689 54.881 301.689 56.2916V153.506C301.689 154.917 302.833 156.06 304.244 156.06H439.146C440.557 156.06 441.7 154.917 441.7 153.506V56.2916C441.7 54.881 440.557 53.7375 439.146 53.7375Z" fill="#FF3366"/>
<path opacity="0.6" d="M441.7 56.2916V153.506C441.7 153.842 441.634 154.174 441.506 154.484C441.377 154.793 441.189 155.075 440.952 155.312C440.715 155.549 440.433 155.737 440.123 155.866C439.814 155.994 439.481 156.06 439.146 156.06H304.244C303.908 156.062 303.575 155.997 303.264 155.869C302.954 155.741 302.672 155.553 302.434 155.315C302.197 155.078 302.009 154.796 301.881 154.485C301.753 154.175 301.688 153.842 301.689 153.506V56.2916C301.689 55.6142 301.959 54.9646 302.438 54.4856C302.917 54.0066 303.566 53.7375 304.244 53.7375H439.202C439.869 53.7549 440.502 54.0313 440.969 54.5081C441.435 54.9849 441.697 55.6246 441.7 56.2916Z" fill="white"/>
<path d="M439.046 64.1437H304.333V153.194H439.046V64.1437Z" fill="#263238"/>
<path d="M314.025 75.2415C314.172 75.3461 314.347 75.4009 314.527 75.3977C314.702 75.3954 314.871 75.3385 315.012 75.2349C315.153 75.1314 315.257 74.9865 315.312 74.8204C315.366 74.6544 315.366 74.4756 315.314 74.3091C315.261 74.1426 315.158 73.9967 315.018 73.8919L312.553 72.0739L315.018 70.2559C315.197 70.1242 315.316 69.9269 315.35 69.7073C315.383 69.4876 315.328 69.2637 315.196 69.0847C315.065 68.9058 314.867 68.7864 314.648 68.753C314.428 68.7195 314.204 68.7747 314.025 68.9063L310.679 71.4047C310.575 71.4838 310.491 71.5858 310.433 71.7029C310.375 71.8199 310.345 71.9488 310.345 72.0795C310.345 72.2101 310.375 72.339 310.433 72.4561C310.491 72.5731 310.575 72.6752 310.679 72.7543L314.025 75.2415Z" fill="white"/>
<path d="M325.346 72.0628L322.892 73.8919C322.724 74.0187 322.612 74.2057 322.578 74.4136C322.545 74.6216 322.594 74.8344 322.714 75.0073C322.791 75.1132 322.891 75.1997 323.007 75.2598C323.124 75.3198 323.252 75.3518 323.383 75.3531C323.564 75.3523 323.74 75.2936 323.885 75.1858L327.231 72.6874C327.339 72.6126 327.427 72.5125 327.487 72.3958C327.548 72.2791 327.578 72.1495 327.577 72.0181C327.576 71.8873 327.544 71.7586 327.484 71.6424C327.424 71.5262 327.337 71.4257 327.231 71.3489L323.885 68.8617C323.798 68.7845 323.696 68.7261 323.586 68.6904C323.475 68.6547 323.359 68.6424 323.243 68.6543C323.128 68.6662 323.016 68.702 322.915 68.7595C322.814 68.817 322.726 68.8948 322.657 68.9881C322.588 69.0814 322.539 69.1881 322.513 69.3014C322.487 69.4146 322.486 69.532 322.508 69.646C322.53 69.76 322.575 69.8682 322.642 69.9636C322.708 70.059 322.793 70.1395 322.892 70.2001L325.346 72.0628Z" fill="white"/>
<path d="M317.795 75.3531C317.887 75.37 317.982 75.37 318.074 75.3531C318.246 75.3531 318.414 75.2993 318.554 75.1993C318.694 75.0993 318.799 74.9581 318.855 74.7954L320.617 69.8097C320.656 69.7074 320.673 69.5982 320.669 69.4889C320.665 69.3795 320.638 69.2722 320.591 69.1733C320.544 69.0744 320.478 68.9859 320.396 68.9132C320.315 68.8405 320.219 68.7851 320.115 68.7502C320.009 68.7058 319.896 68.6837 319.781 68.6852C319.666 68.6866 319.553 68.7117 319.448 68.7588C319.344 68.8058 319.25 68.8739 319.173 68.9588C319.096 69.0436 319.037 69.1435 319 69.2521L317.238 74.2377C317.194 74.3471 317.174 74.4644 317.179 74.582C317.184 74.6996 317.214 74.8148 317.267 74.9201C317.32 75.0254 317.394 75.1183 317.485 75.1929C317.576 75.2675 317.682 75.3221 317.795 75.3531Z" fill="white"/>
<path opacity="0.5" d="M331.737 75.6765H336.199C336.494 75.6765 336.778 75.559 336.987 75.3498C337.196 75.1407 337.314 74.857 337.314 74.5612C337.314 74.2653 337.196 73.9817 336.987 73.7725C336.778 73.5633 336.494 73.4458 336.199 73.4458H331.737C331.441 73.4458 331.158 73.5633 330.949 73.7725C330.739 73.9817 330.622 74.2653 330.622 74.5612C330.622 74.857 330.739 75.1407 330.949 75.3498C331.158 75.559 331.441 75.6765 331.737 75.6765Z" fill="white"/>
<path opacity="0.5" d="M388.966 84.5213H394.922C395.218 84.5213 395.502 84.4038 395.711 84.1946C395.92 83.9855 396.038 83.7018 396.038 83.4059C396.038 83.1101 395.92 82.8264 395.711 82.6173C395.502 82.4081 395.218 82.2906 394.922 82.2906H388.966C388.67 82.2906 388.387 82.4081 388.177 82.6173C387.968 82.8264 387.851 83.1101 387.851 83.4059C387.851 83.7018 387.968 83.9855 388.177 84.1946C388.387 84.4038 388.67 84.5213 388.966 84.5213Z" fill="white"/>
<path d="M324.409 83.4059C324.409 83.7018 324.527 83.9855 324.736 84.1946C324.945 84.4038 325.229 84.5213 325.525 84.5213H381.292C381.588 84.5213 381.872 84.4038 382.081 84.1946C382.29 83.9855 382.408 83.7018 382.408 83.4059C382.408 83.1101 382.29 82.8264 382.081 82.6173C381.872 82.4081 381.588 82.2906 381.292 82.2906H325.525C325.229 82.2906 324.945 82.4081 324.736 82.6173C324.527 82.8264 324.409 83.1101 324.409 83.4059Z" fill="white"/>
<path opacity="0.5" d="M310.367 84.5213H318.899C319.195 84.5213 319.479 84.4038 319.688 84.1946C319.897 83.9855 320.015 83.7018 320.015 83.4059C320.015 83.1101 319.897 82.8264 319.688 82.6173C319.479 82.4081 319.195 82.2906 318.899 82.2906H310.367C310.071 82.2906 309.787 82.4081 309.578 82.6173C309.369 82.8264 309.252 83.1101 309.252 83.4059C309.252 83.7018 309.369 83.9855 309.578 84.1946C309.787 84.4038 310.071 84.5213 310.367 84.5213Z" fill="white"/>
<path d="M368.154 91.5815C368.449 91.5815 368.733 91.464 368.942 91.2548C369.151 91.0456 369.269 90.7619 369.269 90.4661C369.269 90.1703 369.151 89.8866 368.942 89.6774C368.733 89.4683 368.449 89.3508 368.154 89.3508H345.936C345.64 89.3508 345.356 89.4683 345.147 89.6774C344.938 89.8866 344.82 90.1703 344.82 90.4661C344.82 90.7619 344.938 91.0456 345.147 91.2548C345.356 91.464 345.64 91.5815 345.936 91.5815H368.154Z" fill="white"/>
<path d="M325.525 91.5815H341.285C341.58 91.5815 341.864 91.464 342.073 91.2548C342.282 91.0456 342.4 90.7619 342.4 90.4661C342.4 90.1703 342.282 89.8866 342.073 89.6774C341.864 89.4683 341.58 89.3508 341.285 89.3508H325.525C325.229 89.3508 324.945 89.4683 324.736 89.6774C324.527 89.8866 324.409 90.1703 324.409 90.4661C324.409 90.7619 324.527 91.0456 324.736 91.2548C324.945 91.464 325.229 91.5815 325.525 91.5815Z" fill="white"/>
<path opacity="0.5" d="M310.367 91.5815H318.754C319.05 91.5815 319.334 91.464 319.543 91.2548C319.752 91.0456 319.87 90.7619 319.87 90.4661C319.87 90.1703 319.752 89.8866 319.543 89.6774C319.334 89.4683 319.05 89.3508 318.754 89.3508H310.367C310.071 89.3508 309.787 89.4683 309.578 89.6774C309.369 89.8866 309.252 90.1703 309.252 90.4661C309.252 90.7619 309.369 91.0456 309.578 91.2548C309.787 91.464 310.071 91.5815 310.367 91.5815Z" fill="white"/>
<path d="M358.115 97.5263C358.115 97.2305 357.998 96.9468 357.789 96.7377C357.58 96.5285 357.296 96.411 357 96.411H325.413C325.117 96.411 324.834 96.5285 324.624 96.7377C324.415 96.9468 324.298 97.2305 324.298 97.5263C324.298 97.8221 324.415 98.1058 324.624 98.315C324.834 98.5242 325.117 98.6417 325.413 98.6417H357C357.296 98.6417 357.58 98.5242 357.789 98.315C357.998 98.1058 358.115 97.8221 358.115 97.5263Z" fill="white"/>
<path opacity="0.5" d="M310.367 98.6417H318.844C319.139 98.6417 319.423 98.5242 319.632 98.315C319.842 98.1058 319.959 97.8221 319.959 97.5263C319.959 97.2305 319.842 96.9468 319.632 96.7377C319.423 96.5285 319.139 96.411 318.844 96.411H310.367C310.071 96.411 309.787 96.5285 309.578 96.7377C309.369 96.9468 309.252 97.2305 309.252 97.5263C309.252 97.8221 309.369 98.1058 309.578 98.315C309.787 98.5242 310.071 98.6417 310.367 98.6417Z" fill="white"/>
<path d="M347.051 105.702H379.396C379.692 105.702 379.976 105.584 380.185 105.375C380.394 105.166 380.512 104.882 380.512 104.587C380.512 104.291 380.394 104.007 380.185 103.798C379.976 103.589 379.692 103.471 379.396 103.471H347.051C346.755 103.471 346.472 103.589 346.262 103.798C346.053 104.007 345.936 104.291 345.936 104.587C345.936 104.882 346.053 105.166 346.262 105.375C346.472 105.584 346.755 105.702 347.051 105.702Z" fill="white"/>
<path d="M325.435 103.471C325.14 103.471 324.856 103.589 324.647 103.798C324.438 104.007 324.32 104.291 324.32 104.587C324.32 104.882 324.438 105.166 324.647 105.375C324.856 105.584 325.14 105.702 325.435 105.702H340.125C340.42 105.702 340.704 105.584 340.913 105.375C341.123 105.166 341.24 104.882 341.24 104.587C341.24 104.291 341.123 104.007 340.913 103.798C340.704 103.589 340.42 103.471 340.125 103.471H325.435Z" fill="white"/>
<path opacity="0.5" d="M310.367 105.702H318.743C319.039 105.702 319.323 105.584 319.532 105.375C319.741 105.166 319.859 104.882 319.859 104.587C319.859 104.291 319.741 104.007 319.532 103.798C319.323 103.589 319.039 103.471 318.743 103.471H310.367C310.071 103.471 309.787 103.589 309.578 103.798C309.369 104.007 309.252 104.291 309.252 104.587C309.252 104.882 309.369 105.166 309.578 105.375C309.787 105.584 310.071 105.702 310.367 105.702Z" fill="white"/>
<path d="M338.039 110.531H330.756C330.46 110.531 330.176 110.649 329.967 110.858C329.758 111.067 329.64 111.351 329.64 111.647C329.64 111.943 329.758 112.226 329.967 112.435C330.176 112.645 330.46 112.762 330.756 112.762H338.039C338.335 112.762 338.618 112.645 338.828 112.435C339.037 112.226 339.154 111.943 339.154 111.647C339.154 111.351 339.037 111.067 338.828 110.858C338.618 110.649 338.335 110.531 338.039 110.531Z" fill="white"/>
<path d="M325.558 110.531H310.367C310.071 110.531 309.787 110.649 309.578 110.858C309.369 111.067 309.252 111.351 309.252 111.647C309.252 111.943 309.369 112.226 309.578 112.435C309.787 112.645 310.071 112.762 310.367 112.762H325.558C325.854 112.762 326.138 112.645 326.347 112.435C326.556 112.226 326.673 111.943 326.673 111.647C326.673 111.351 326.556 111.067 326.347 110.858C326.138 110.649 325.854 110.531 325.558 110.531Z" fill="white"/>
<path d="M373.373 118.707C373.373 119.003 373.491 119.286 373.7 119.496C373.909 119.705 374.193 119.822 374.489 119.822H433.96C434.255 119.822 434.539 119.705 434.748 119.496C434.957 119.286 435.075 119.003 435.075 118.707C435.075 118.411 434.957 118.127 434.748 117.918C434.539 117.709 434.255 117.592 433.96 117.592H374.489C374.193 117.592 373.909 117.709 373.7 117.918C373.491 118.127 373.373 118.411 373.373 118.707Z" fill="white"/>
<path opacity="0.5" d="M357.212 117.592C356.916 117.592 356.632 117.709 356.423 117.918C356.214 118.127 356.097 118.411 356.097 118.707C356.097 119.003 356.214 119.286 356.423 119.496C356.632 119.705 356.916 119.822 357.212 119.822H368.466C368.762 119.822 369.045 119.705 369.255 119.496C369.464 119.286 369.581 119.003 369.581 118.707C369.581 118.411 369.464 118.127 369.255 117.918C369.045 117.709 368.762 117.592 368.466 117.592H357.212Z" fill="white"/>
<path opacity="0.5" d="M433.96 124.652H419.46C419.164 124.652 418.88 124.769 418.671 124.978C418.462 125.188 418.345 125.471 418.345 125.767C418.345 126.063 418.462 126.347 418.671 126.556C418.88 126.765 419.164 126.883 419.46 126.883H433.96C434.255 126.883 434.539 126.765 434.748 126.556C434.957 126.347 435.075 126.063 435.075 125.767C435.075 125.471 434.957 125.188 434.748 124.978C434.539 124.769 434.255 124.652 433.96 124.652Z" fill="white"/>
<path d="M413.392 125.767C413.392 125.471 413.275 125.188 413.066 124.978C412.857 124.769 412.573 124.652 412.277 124.652H351.635C351.339 124.652 351.056 124.769 350.846 124.978C350.637 125.188 350.52 125.471 350.52 125.767C350.52 126.063 350.637 126.347 350.846 126.556C351.056 126.765 351.339 126.883 351.635 126.883H412.277C412.573 126.883 412.857 126.765 413.066 126.556C413.275 126.347 413.392 126.063 413.392 125.767Z" fill="white"/>
<path d="M433.96 131.712H407.693C407.397 131.712 407.113 131.83 406.904 132.039C406.695 132.248 406.578 132.532 406.578 132.827C406.578 133.123 406.695 133.407 406.904 133.616C407.113 133.825 407.397 133.943 407.693 133.943H433.96C434.255 133.943 434.539 133.825 434.748 133.616C434.957 133.407 435.075 133.123 435.075 132.827C435.075 132.532 434.957 132.248 434.748 132.039C434.539 131.83 434.255 131.712 433.96 131.712Z" fill="white"/>
<path opacity="0.5" d="M395.134 131.712C394.838 131.712 394.555 131.83 394.345 132.039C394.136 132.248 394.019 132.532 394.019 132.827C394.019 133.123 394.136 133.407 394.345 133.616C394.555 133.825 394.838 133.943 395.134 133.943H401.703C401.999 133.943 402.283 133.825 402.492 133.616C402.701 133.407 402.819 133.123 402.819 132.827C402.819 132.532 402.701 132.248 402.492 132.039C402.283 131.83 401.999 131.712 401.703 131.712H395.134Z" fill="white"/>
<path d="M433.96 138.772H381.75C381.454 138.772 381.17 138.89 380.961 139.099C380.752 139.308 380.634 139.592 380.634 139.888C380.634 140.183 380.752 140.467 380.961 140.676C381.17 140.885 381.454 141.003 381.75 141.003H433.96C434.255 141.003 434.539 140.885 434.748 140.676C434.957 140.467 435.075 140.183 435.075 139.888C435.075 139.592 434.957 139.308 434.748 139.099C434.539 138.89 434.255 138.772 433.96 138.772Z" fill="white"/>
<path d="M358.707 138.772H340.482C340.186 138.772 339.902 138.89 339.693 139.099C339.484 139.308 339.366 139.592 339.366 139.888C339.366 140.183 339.484 140.467 339.693 140.676C339.902 140.885 340.186 141.003 340.482 141.003H358.707C359.002 141.003 359.286 140.885 359.495 140.676C359.704 140.467 359.822 140.183 359.822 139.888C359.822 139.592 359.704 139.308 359.495 139.099C359.286 138.89 359.002 138.772 358.707 138.772Z" fill="white"/>
<path opacity="0.2" d="M376.329 97.7717V156.06H304.244C303.908 156.062 303.575 155.997 303.264 155.869C302.954 155.741 302.672 155.553 302.434 155.315C302.197 155.078 302.009 154.796 301.881 154.485C301.753 154.175 301.688 153.842 301.689 153.506V92.8084H371.366C372.682 92.8084 373.945 93.3313 374.875 94.2621C375.806 95.1929 376.329 96.4554 376.329 97.7717Z" fill="black"/>
<path d="M364.573 97.1248H208.479C207.069 97.1248 205.925 98.2684 205.925 99.679V196.893C205.925 198.304 207.069 199.448 208.479 199.448H364.573C365.984 199.448 367.127 198.304 367.127 196.893V99.679C367.127 98.2684 365.984 97.1248 364.573 97.1248Z" fill="#FF3366"/>
<path opacity="0.6" d="M364.573 97.1248H208.479C207.069 97.1248 205.925 98.2684 205.925 99.679V196.893C205.925 198.304 207.069 199.448 208.479 199.448H364.573C365.984 199.448 367.127 198.304 367.127 196.893V99.679C367.127 98.2684 365.984 97.1248 364.573 97.1248Z" fill="white"/>
<path d="M364.484 107.52H208.58V196.57H364.484V107.52Z" fill="#263238"/>
<path d="M239.553 126.213H214.602C214.307 126.213 214.023 126.331 213.814 126.54C213.605 126.749 213.487 127.033 213.487 127.329C213.487 127.624 213.605 127.908 213.814 128.117C214.023 128.327 214.307 128.444 214.602 128.444H239.553C239.849 128.444 240.132 128.327 240.342 128.117C240.551 127.908 240.668 127.624 240.668 127.329C240.668 127.033 240.551 126.749 240.342 126.54C240.132 126.331 239.849 126.213 239.553 126.213Z" fill="white"/>
<path d="M239.553 133.173H217.949C217.653 133.173 217.369 133.291 217.16 133.5C216.951 133.709 216.833 133.993 216.833 134.288C216.833 134.584 216.951 134.868 217.16 135.077C217.369 135.286 217.653 135.404 217.949 135.404H239.553C239.849 135.404 240.132 135.286 240.342 135.077C240.551 134.868 240.668 134.584 240.668 134.288C240.668 133.993 240.551 133.709 240.342 133.5C240.132 133.291 239.849 133.173 239.553 133.173Z" fill="white"/>
<path opacity="0.5" d="M239.553 140.133H214.602C214.307 140.133 214.023 140.25 213.814 140.46C213.605 140.669 213.487 140.953 213.487 141.248C213.487 141.544 213.605 141.828 213.814 142.037C214.023 142.246 214.307 142.364 214.602 142.364H239.553C239.849 142.364 240.132 142.246 240.342 142.037C240.551 141.828 240.668 141.544 240.668 141.248C240.668 140.953 240.551 140.669 240.342 140.46C240.132 140.25 239.849 140.133 239.553 140.133Z" fill="white"/>
<path d="M239.553 147.093H224.641C224.345 147.093 224.061 147.21 223.852 147.419C223.643 147.629 223.525 147.912 223.525 148.208C223.525 148.504 223.643 148.788 223.852 148.997C224.061 149.206 224.345 149.324 224.641 149.324H239.553C239.849 149.324 240.132 149.206 240.342 148.997C240.551 148.788 240.668 148.504 240.668 148.208C240.668 147.912 240.551 147.629 240.342 147.419C240.132 147.21 239.849 147.093 239.553 147.093Z" fill="white"/>
<path d="M239.553 154.053H214.602C214.307 154.053 214.023 154.17 213.814 154.379C213.605 154.588 213.487 154.872 213.487 155.168C213.487 155.464 213.605 155.747 213.814 155.957C214.023 156.166 214.307 156.283 214.602 156.283H239.553C239.849 156.283 240.132 156.166 240.342 155.957C240.551 155.747 240.668 155.464 240.668 155.168C240.668 154.872 240.551 154.588 240.342 154.379C240.132 154.17 239.849 154.053 239.553 154.053Z" fill="white"/>
<path d="M239.553 161.012H219.064C218.768 161.012 218.484 161.13 218.275 161.339C218.066 161.548 217.949 161.832 217.949 162.128C217.949 162.424 218.066 162.707 218.275 162.916C218.484 163.126 218.768 163.243 219.064 163.243H239.553C239.849 163.243 240.132 163.126 240.342 162.916C240.551 162.707 240.668 162.424 240.668 162.128C240.668 161.832 240.551 161.548 240.342 161.339C240.132 161.13 239.849 161.012 239.553 161.012Z" fill="white"/>
<path d="M239.553 167.972H219.064C218.768 167.972 218.484 168.09 218.275 168.299C218.066 168.508 217.949 168.792 217.949 169.088C217.949 169.383 218.066 169.667 218.275 169.876C218.484 170.085 218.768 170.203 219.064 170.203H239.553C239.849 170.203 240.132 170.085 240.342 169.876C240.551 169.667 240.668 169.383 240.668 169.088C240.668 168.792 240.551 168.508 240.342 168.299C240.132 168.09 239.849 167.972 239.553 167.972Z" fill="white"/>
<path d="M239.553 174.932H216.833C216.537 174.932 216.254 175.05 216.044 175.259C215.835 175.468 215.718 175.752 215.718 176.047C215.718 176.343 215.835 176.627 216.044 176.836C216.254 177.045 216.537 177.163 216.833 177.163H239.553C239.849 177.163 240.132 177.045 240.342 176.836C240.551 176.627 240.668 176.343 240.668 176.047C240.668 175.752 240.551 175.468 240.342 175.259C240.132 175.05 239.849 174.932 239.553 174.932Z" fill="white"/>
<path opacity="0.5" d="M239.553 181.892H224.641C224.345 181.892 224.061 182.009 223.852 182.219C223.643 182.428 223.525 182.711 223.525 183.007C223.525 183.303 223.643 183.587 223.852 183.796C224.061 184.005 224.345 184.123 224.641 184.123H239.553C239.849 184.123 240.132 184.005 240.342 183.796C240.551 183.587 240.668 183.303 240.668 183.007C240.668 182.711 240.551 182.428 240.342 182.219C240.132 182.009 239.849 181.892 239.553 181.892Z" fill="white"/>
<path opacity="0.5" d="M239.553 119.253H221.295C220.999 119.253 220.715 119.371 220.506 119.58C220.297 119.789 220.179 120.073 220.179 120.369C220.179 120.665 220.297 120.948 220.506 121.158C220.715 121.367 220.999 121.484 221.295 121.484H239.553C239.849 121.484 240.132 121.367 240.342 121.158C240.551 120.948 240.668 120.665 240.668 120.369C240.668 120.073 240.551 119.789 240.342 119.58C240.132 119.371 239.849 119.253 239.553 119.253Z" fill="white"/>
<path d="M239.553 112.294H214.602C214.307 112.294 214.023 112.411 213.814 112.62C213.605 112.83 213.487 113.113 213.487 113.409C213.487 113.705 213.605 113.989 213.814 114.198C214.023 114.407 214.307 114.524 214.602 114.524H239.553C239.849 114.524 240.132 114.407 240.342 114.198C240.551 113.989 240.668 113.705 240.668 113.409C240.668 113.113 240.551 112.83 240.342 112.62C240.132 112.411 239.849 112.294 239.553 112.294Z" fill="white"/>
<path d="M239.553 188.841H214.602C214.307 188.841 214.023 188.958 213.814 189.167C213.605 189.376 213.487 189.66 213.487 189.956C213.487 190.252 213.605 190.535 213.814 190.745C214.023 190.954 214.307 191.071 214.602 191.071H239.553C239.849 191.071 240.132 190.954 240.342 190.745C240.551 190.535 240.668 190.252 240.668 189.956C240.668 189.66 240.551 189.376 240.342 189.167C240.132 188.958 239.849 188.841 239.553 188.841Z" fill="white"/>
<path opacity="0.5" d="M252.937 125.934H248.063V128.723H252.937V125.934Z" fill="white"/>
<path opacity="0.5" d="M252.937 132.894H248.063V135.683H252.937V132.894Z" fill="white"/>
<path opacity="0.5" d="M252.937 139.854H248.063V142.643H252.937V139.854Z" fill="white"/>
<path opacity="0.5" d="M252.937 146.814H248.063V149.602H252.937V146.814Z" fill="white"/>
<path opacity="0.5" d="M252.937 153.774H248.063V156.562H252.937V153.774Z" fill="white"/>
<path opacity="0.5" d="M252.937 160.734H248.063V163.522H252.937V160.734Z" fill="white"/>
<path opacity="0.5" d="M252.937 167.693H248.063V170.482H252.937V167.693Z" fill="white"/>
<path opacity="0.5" d="M252.937 174.653H248.063V177.442H252.937V174.653Z" fill="white"/>
<path opacity="0.5" d="M252.937 181.613H248.063V184.401H252.937V181.613Z" fill="white"/>
<path opacity="0.5" d="M252.937 118.975H248.063V121.763H252.937V118.975Z" fill="white"/>
<path opacity="0.5" d="M252.937 112.015H248.063V114.803H252.937V112.015Z" fill="white"/>
<path opacity="0.5" d="M252.937 188.573H248.063V191.361H252.937V188.573Z" fill="white"/>
<path d="M278.178 127.329C278.178 127.624 278.295 127.908 278.504 128.117C278.714 128.327 278.997 128.444 279.293 128.444H360.011C360.307 128.444 360.591 128.327 360.8 128.117C361.009 127.908 361.127 127.624 361.127 127.329C361.127 127.033 361.009 126.749 360.8 126.54C360.591 126.331 360.307 126.213 360.011 126.213H279.293C278.997 126.213 278.714 126.331 278.504 126.54C278.295 126.749 278.178 127.033 278.178 127.329Z" fill="white"/>
<path d="M360.011 133.173H315.821C315.525 133.173 315.242 133.291 315.032 133.5C314.823 133.709 314.706 133.993 314.706 134.288C314.706 134.584 314.823 134.868 315.032 135.077C315.242 135.286 315.525 135.404 315.821 135.404H360.023C360.318 135.404 360.602 135.286 360.811 135.077C361.02 134.868 361.138 134.584 361.138 134.288C361.138 133.993 361.02 133.709 360.811 133.5C360.602 133.291 360.318 133.173 360.023 133.173H360.011Z" fill="white"/>
<path opacity="0.5" d="M305.314 133.173H291.562C291.266 133.173 290.983 133.291 290.773 133.5C290.564 133.709 290.447 133.993 290.447 134.288C290.447 134.584 290.564 134.868 290.773 135.077C290.983 135.286 291.266 135.404 291.562 135.404H305.314C305.61 135.404 305.894 135.286 306.103 135.077C306.312 134.868 306.43 134.584 306.43 134.288C306.43 133.993 306.312 133.709 306.103 133.5C305.894 133.291 305.61 133.173 305.314 133.173Z" fill="white"/>
<path d="M333.243 140.133H271.898C271.603 140.133 271.319 140.25 271.11 140.46C270.9 140.669 270.783 140.953 270.783 141.248C270.783 141.544 270.9 141.828 271.11 142.037C271.319 142.246 271.603 142.364 271.898 142.364H333.243C333.539 142.364 333.822 142.246 334.032 142.037C334.241 141.828 334.358 141.544 334.358 141.248C334.358 140.953 334.241 140.669 334.032 140.46C333.822 140.25 333.539 140.133 333.243 140.133Z" fill="white"/>
<path opacity="0.5" d="M259.217 142.364H263.567C263.862 142.364 264.146 142.246 264.355 142.037C264.564 141.828 264.682 141.544 264.682 141.248C264.682 140.953 264.564 140.669 264.355 140.46C264.146 140.25 263.862 140.133 263.567 140.133H259.217C258.921 140.133 258.637 140.25 258.428 140.46C258.219 140.669 258.101 140.953 258.101 141.248C258.101 141.544 258.219 141.828 258.428 142.037C258.637 142.246 258.921 142.364 259.217 142.364Z" fill="white"/>
<path d="M341.05 148.208C341.05 147.912 340.933 147.629 340.724 147.419C340.515 147.21 340.231 147.093 339.935 147.093H283.052C282.756 147.093 282.472 147.21 282.263 147.419C282.054 147.629 281.937 147.912 281.937 148.208C281.937 148.504 282.054 148.788 282.263 148.997C282.472 149.206 282.756 149.324 283.052 149.324H339.935C340.231 149.324 340.515 149.206 340.724 148.997C340.933 148.788 341.05 148.504 341.05 148.208Z" fill="white"/>
<path d="M259.217 149.324H275.267C275.563 149.324 275.846 149.206 276.055 148.997C276.265 148.788 276.382 148.504 276.382 148.208C276.382 147.912 276.265 147.629 276.055 147.419C275.846 147.21 275.563 147.093 275.267 147.093H259.217C258.921 147.093 258.637 147.21 258.428 147.419C258.219 147.629 258.101 147.912 258.101 148.208C258.101 148.504 258.219 148.788 258.428 148.997C258.637 149.206 258.921 149.324 259.217 149.324Z" fill="white"/>
<path d="M259.217 156.283H319.859C320.154 156.283 320.438 156.166 320.647 155.957C320.857 155.747 320.974 155.464 320.974 155.168C320.974 154.872 320.857 154.588 320.647 154.379C320.438 154.17 320.154 154.053 319.859 154.053H259.217C258.921 154.053 258.637 154.17 258.428 154.379C258.219 154.588 258.101 154.872 258.101 155.168C258.101 155.464 258.219 155.747 258.428 155.957C258.637 156.166 258.921 156.283 259.217 156.283Z" fill="white"/>
<path d="M298.444 161.012C298.148 161.012 297.864 161.13 297.655 161.339C297.446 161.548 297.328 161.832 297.328 162.128C297.328 162.424 297.446 162.707 297.655 162.916C297.864 163.126 298.148 163.243 298.444 163.243H329.897C330.193 163.243 330.476 163.126 330.686 162.916C330.895 162.707 331.012 162.424 331.012 162.128C331.012 161.832 330.895 161.548 330.686 161.339C330.476 161.13 330.193 161.012 329.897 161.012H298.444Z" fill="white"/>
<path d="M259.217 163.243H286.443C286.738 163.243 287.022 163.126 287.231 162.916C287.44 162.707 287.558 162.424 287.558 162.128C287.558 161.832 287.44 161.548 287.231 161.339C287.022 161.13 286.738 161.012 286.443 161.012H259.217C258.921 161.012 258.637 161.13 258.428 161.339C258.219 161.548 258.101 161.832 258.101 162.128C258.101 162.424 258.219 162.707 258.428 162.916C258.637 163.126 258.921 163.243 259.217 163.243Z" fill="white"/>
<path d="M360.011 167.972H285.985C285.689 167.972 285.406 168.09 285.197 168.299C284.987 168.508 284.87 168.792 284.87 169.088C284.87 169.383 284.987 169.667 285.197 169.876C285.406 170.085 285.689 170.203 285.985 170.203H360.011C360.307 170.203 360.591 170.085 360.8 169.876C361.009 169.667 361.127 169.383 361.127 169.088C361.127 168.792 361.009 168.508 360.8 168.299C360.591 168.09 360.307 167.972 360.011 167.972Z" fill="white"/>
<path d="M360.011 174.932H296.023C295.728 174.932 295.444 175.05 295.235 175.259C295.026 175.468 294.908 175.752 294.908 176.047C294.908 176.343 295.026 176.627 295.235 176.836C295.444 177.045 295.728 177.163 296.023 177.163H360.011C360.307 177.163 360.591 177.045 360.8 176.836C361.009 176.627 361.127 176.343 361.127 176.047C361.127 175.752 361.009 175.468 360.8 175.259C360.591 175.05 360.307 174.932 360.011 174.932Z" fill="white"/>
<path opacity="0.5" d="M360.011 181.892H346.85C346.554 181.892 346.271 182.009 346.062 182.219C345.852 182.428 345.735 182.711 345.735 183.007C345.735 183.303 345.852 183.587 346.062 183.796C346.271 184.005 346.554 184.123 346.85 184.123H360.011C360.307 184.123 360.591 184.005 360.8 183.796C361.009 183.587 361.127 183.303 361.127 183.007C361.127 182.711 361.009 182.428 360.8 182.219C360.591 182.009 360.307 181.892 360.011 181.892Z" fill="white"/>
<path d="M337.649 181.892H289.331C289.036 181.892 288.752 182.009 288.543 182.219C288.334 182.428 288.216 182.711 288.216 183.007C288.216 183.303 288.334 183.587 288.543 183.796C288.752 184.005 289.036 184.123 289.331 184.123H337.649C337.944 184.123 338.228 184.005 338.437 183.796C338.646 183.587 338.764 183.303 338.764 183.007C338.764 182.711 338.646 182.428 338.437 182.219C338.228 182.009 337.944 181.892 337.649 181.892Z" fill="white"/>
<path d="M259.217 121.484H310.936C311.232 121.484 311.515 121.367 311.725 121.158C311.934 120.948 312.051 120.665 312.051 120.369C312.051 120.073 311.934 119.789 311.725 119.58C311.515 119.371 311.232 119.253 310.936 119.253H259.217C258.921 119.253 258.637 119.371 258.428 119.58C258.219 119.789 258.101 120.073 258.101 120.369C258.101 120.665 258.219 120.948 258.428 121.158C258.637 121.367 258.921 121.484 259.217 121.484Z" fill="white"/>
<path d="M259.217 114.524H339.935C340.231 114.524 340.515 114.407 340.724 114.198C340.933 113.989 341.05 113.705 341.05 113.409C341.05 113.113 340.933 112.83 340.724 112.62C340.515 112.411 340.231 112.294 339.935 112.294H259.217C258.921 112.294 258.637 112.411 258.428 112.62C258.219 112.83 258.101 113.113 258.101 113.409C258.101 113.705 258.219 113.989 258.428 114.198C258.637 114.407 258.921 114.524 259.217 114.524Z" fill="white"/>
<path d="M334.358 188.841H300.095C299.799 188.841 299.515 188.958 299.306 189.167C299.097 189.376 298.979 189.66 298.979 189.956C298.979 190.252 299.097 190.535 299.306 190.745C299.515 190.954 299.799 191.071 300.095 191.071H334.358C334.654 191.071 334.938 190.954 335.147 190.745C335.356 190.535 335.474 190.252 335.474 189.956C335.474 189.66 335.356 189.376 335.147 189.167C334.938 188.958 334.654 188.841 334.358 188.841Z" fill="white"/>
<path opacity="0.5" d="M290.38 188.841H259.217C258.921 188.841 258.637 188.958 258.428 189.167C258.219 189.376 258.101 189.66 258.101 189.956C258.101 190.252 258.219 190.535 258.428 190.745C258.637 190.954 258.921 191.071 259.217 191.071H290.38C290.676 191.071 290.959 190.954 291.168 190.745C291.378 190.535 291.495 190.252 291.495 189.956C291.495 189.66 291.378 189.376 291.168 189.167C290.959 188.958 290.676 188.841 290.38 188.841Z" fill="white"/>
<path opacity="0.5" d="M322.413 121.484C322.709 121.484 322.992 121.367 323.201 121.158C323.411 120.948 323.528 120.665 323.528 120.369C323.528 120.073 323.411 119.789 323.201 119.58C322.992 119.371 322.709 119.253 322.413 119.253H318.398C318.102 119.253 317.818 119.371 317.609 119.58C317.4 119.789 317.282 120.073 317.282 120.369C317.282 120.665 317.4 120.948 317.609 121.158C317.818 121.367 318.102 121.484 318.398 121.484H322.413Z" fill="white"/>
<path opacity="0.5" d="M273.527 127.329C273.527 127.033 273.409 126.749 273.2 126.54C272.991 126.331 272.707 126.213 272.411 126.213H267.024C266.728 126.213 266.445 126.331 266.236 126.54C266.026 126.749 265.909 127.033 265.909 127.329C265.909 127.624 266.026 127.908 266.236 128.117C266.445 128.327 266.728 128.444 267.024 128.444H272.411C272.707 128.444 272.991 128.327 273.2 128.117C273.409 127.908 273.527 127.624 273.527 127.329Z" fill="white"/>
<path opacity="0.5" d="M335.028 155.168C335.028 154.872 334.91 154.588 334.701 154.379C334.492 154.17 334.208 154.053 333.912 154.053H328.023C327.727 154.053 327.444 154.17 327.234 154.379C327.025 154.588 326.908 154.872 326.908 155.168C326.908 155.464 327.025 155.747 327.234 155.957C327.444 156.166 327.727 156.283 328.023 156.283H333.912C334.208 156.283 334.492 156.166 334.701 155.957C334.91 155.747 335.028 155.464 335.028 155.168Z" fill="white"/>
<path opacity="0.5" d="M354.334 149.324C354.63 149.324 354.914 149.206 355.123 148.997C355.332 148.788 355.45 148.504 355.45 148.208C355.45 147.912 355.332 147.629 355.123 147.419C354.914 147.21 354.63 147.093 354.334 147.093H349.549C349.254 147.093 348.97 147.21 348.761 147.419C348.552 147.629 348.434 147.912 348.434 148.208C348.434 148.504 348.552 148.788 348.761 148.997C348.97 149.206 349.254 149.324 349.549 149.324H354.334Z" fill="white"/>
<path opacity="0.5" d="M277.018 167.972C276.722 167.972 276.438 168.09 276.229 168.299C276.02 168.508 275.902 168.792 275.902 169.088C275.902 169.383 276.02 169.667 276.229 169.876C276.438 170.085 276.722 170.203 277.018 170.203H281.825C282.121 170.203 282.404 170.085 282.614 169.876C282.823 169.667 282.94 169.383 282.94 169.088C282.94 168.792 282.823 168.508 282.614 168.299C282.404 168.09 282.121 167.972 281.825 167.972H277.018Z" fill="white"/>
<path d="M156.994 152.045H120.11C118.015 152.045 116.317 153.743 116.317 155.837V175.791C116.317 177.885 118.015 179.583 120.11 179.583H156.994C159.089 179.583 160.787 177.885 160.787 175.791V155.837C160.787 153.743 159.089 152.045 156.994 152.045Z" fill="#FF3366"/>
<path d="M145.294 178.189C145.294 178.189 146.978 185.874 156.794 188.852C156.794 188.852 151.685 184.234 152.834 178.189H145.294Z" fill="#FF3366"/>
<path d="M122.128 156.384V161.012H121.649V156.808H120.533V156.384H122.128Z" fill="white"/>
<path d="M123.221 158.726C123.221 157.254 124.002 156.384 125.073 156.384C126.144 156.384 126.913 157.254 126.913 158.726C126.913 160.198 126.144 161.079 125.073 161.079C124.002 161.079 123.221 160.165 123.221 158.726ZM126.434 158.726C126.434 157.499 125.876 156.819 125.073 156.819C124.27 156.819 123.712 157.499 123.712 158.726C123.712 159.953 124.259 160.644 125.073 160.644C125.887 160.644 126.434 159.931 126.434 158.726Z" fill="white"/>
<path d="M127.594 158.726C127.594 157.254 128.363 156.384 129.434 156.384C130.505 156.384 131.285 157.254 131.285 158.726C131.285 160.198 130.505 161.079 129.434 161.079C128.363 161.079 127.594 160.165 127.594 158.726ZM130.795 158.726C130.795 157.499 130.248 156.819 129.434 156.819C128.62 156.819 128.073 157.499 128.073 158.726C128.073 159.953 128.631 160.644 129.434 160.644C130.237 160.644 130.795 159.931 130.795 158.726Z" fill="white"/>
<path d="M133.237 156.384V161.012H132.758V156.808H131.642V156.384H133.237Z" fill="white"/>
<path d="M135.613 156.384V161.012H135.133V156.808H134.018V156.384H135.613Z" fill="white"/>
<path d="M136.717 158.726C136.717 157.254 137.487 156.384 138.558 156.384C139.628 156.384 140.409 157.254 140.409 158.726C140.409 160.198 139.628 161.079 138.558 161.079C137.487 161.079 136.717 160.165 136.717 158.726ZM139.918 158.726C139.918 157.499 139.361 156.819 138.558 156.819C137.754 156.819 137.197 157.499 137.197 158.726C137.197 159.953 137.754 160.644 138.558 160.644C139.361 160.644 139.918 159.931 139.918 158.726Z" fill="white"/>
<path d="M142.361 156.384V161.012H141.881V156.808H140.766V156.384H142.361Z" fill="white"/>
<path d="M143.454 158.726C143.454 157.254 144.235 156.384 145.294 156.384C146.354 156.384 147.146 157.254 147.146 158.726C147.146 160.198 146.365 161.079 145.294 161.079C144.224 161.079 143.454 160.165 143.454 158.726ZM146.655 158.726C146.655 157.499 146.108 156.819 145.294 156.819C144.48 156.819 143.945 157.499 143.945 158.726C143.945 159.953 144.491 160.644 145.294 160.644C146.097 160.644 146.655 159.931 146.655 158.726Z" fill="white"/>
<path d="M147.826 158.726C147.826 157.254 148.596 156.384 149.666 156.384C150.737 156.384 151.518 157.254 151.518 158.726C151.518 160.198 150.737 161.079 149.666 161.079C148.596 161.079 147.826 160.165 147.826 158.726ZM151.027 158.726C151.027 157.499 150.469 156.819 149.666 156.819C148.863 156.819 148.306 157.499 148.306 158.726C148.306 159.953 148.863 160.644 149.666 160.644C150.469 160.644 151.027 159.931 151.027 158.726Z" fill="white"/>
<path d="M153.47 156.384V161.012H152.979V156.808H151.864V156.384H153.47Z" fill="white"/>
<path d="M155.846 156.384V161.012H155.377V156.808H154.262V156.384H155.846Z" fill="white"/>
<path d="M120.846 165.418C120.846 163.946 121.615 163.076 122.686 163.076C123.757 163.076 124.537 163.946 124.537 165.418C124.537 166.89 123.757 167.772 122.686 167.772C121.615 167.772 120.846 166.857 120.846 165.418ZM124.047 165.418C124.047 164.191 123.489 163.511 122.686 163.511C121.883 163.511 121.325 164.191 121.325 165.418C121.325 166.645 121.883 167.337 122.686 167.337C123.489 167.337 124.047 166.623 124.047 165.418Z" fill="white"/>
<path d="M125.218 165.418C125.218 163.946 125.987 163.076 127.058 163.076C128.129 163.076 128.899 163.946 128.899 165.418C128.899 166.89 128.129 167.772 127.058 167.772C125.987 167.772 125.218 166.857 125.218 165.418ZM128.419 165.418C128.419 164.191 127.861 163.511 127.058 163.511C126.255 163.511 125.697 164.191 125.697 165.418C125.697 166.645 126.255 167.337 127.058 167.337C127.861 167.337 128.441 166.623 128.441 165.418H128.419Z" fill="white"/>
<path d="M130.85 163.076V167.705H130.371V163.5H129.255V163.076H130.85Z" fill="white"/>
<path d="M133.237 163.076V167.705H132.758V163.5H131.642V163.076H133.237Z" fill="white"/>
<path d="M134.33 165.418C134.33 163.946 135.111 163.076 136.182 163.076C137.253 163.076 138.022 163.946 138.022 165.418C138.022 166.89 137.253 167.772 136.182 167.772C135.111 167.772 134.33 166.857 134.33 165.418ZM137.543 165.418C137.543 164.191 136.985 163.511 136.182 163.511C135.379 163.511 134.821 164.191 134.821 165.418C134.821 166.645 135.368 167.337 136.182 167.337C136.996 167.337 137.543 166.623 137.543 165.418Z" fill="white"/>
<path d="M139.974 163.076V167.705H139.494V163.5H138.379V163.076H139.974Z" fill="white"/>
<path d="M141.078 165.418C141.078 163.946 141.848 163.076 142.919 163.076C143.989 163.076 144.77 163.946 144.77 165.418C144.77 166.89 143.989 167.772 142.919 167.772C141.848 167.772 141.078 166.857 141.078 165.418ZM144.279 165.418C144.279 164.191 143.722 163.511 142.919 163.511C142.115 163.511 141.558 164.191 141.558 165.418C141.558 166.645 142.115 167.337 142.919 167.337C143.722 167.337 144.279 166.623 144.279 165.418Z" fill="white"/>
<path d="M145.439 165.418C145.439 163.946 146.22 163.076 147.291 163.076C148.361 163.076 149.131 163.946 149.131 165.418C149.131 166.89 148.35 167.772 147.291 167.772C146.231 167.772 145.439 166.857 145.439 165.418ZM148.651 165.418C148.651 164.191 148.094 163.511 147.291 163.511C146.488 163.511 145.93 164.191 145.93 165.418C145.93 166.645 146.477 167.337 147.291 167.337C148.105 167.337 148.651 166.623 148.651 165.418Z" fill="white"/>
<path d="M151.083 163.076V167.705H150.603V163.5H149.488V163.076H151.083Z" fill="white"/>
<path d="M153.47 163.076V167.705H152.979V163.5H151.864V163.076H153.47Z" fill="white"/>
<path d="M155.846 163.076V167.705H155.377V163.5H154.262V163.076H155.846Z" fill="white"/>
<path d="M122.128 169.768V174.397H121.649V170.192H120.533V169.768H122.128Z" fill="white"/>
<path d="M124.504 169.768V174.397H124.036V170.192H122.92V169.768H124.504Z" fill="white"/>
<path d="M125.608 172.11C125.608 170.638 126.378 169.768 127.449 169.768C128.519 169.768 129.3 170.638 129.3 172.11C129.3 173.583 128.519 174.464 127.449 174.464C126.378 174.464 125.608 173.549 125.608 172.11ZM128.809 172.11C128.809 170.883 128.263 170.203 127.449 170.203C126.634 170.203 126.088 170.883 126.088 172.11C126.088 173.337 126.645 174.029 127.449 174.029C128.252 174.029 128.809 173.315 128.809 172.11Z" fill="white"/>
<path d="M129.98 172.11C129.98 170.638 130.75 169.768 131.821 169.768C132.891 169.768 133.672 170.638 133.672 172.11C133.672 173.583 132.891 174.464 131.821 174.464C130.75 174.464 129.98 173.549 129.98 172.11ZM133.181 172.11C133.181 170.883 132.624 170.203 131.821 170.203C131.018 170.203 130.46 170.883 130.46 172.11C130.46 173.337 131.018 174.029 131.821 174.029C132.624 174.029 133.181 173.315 133.181 172.11Z" fill="white"/>
<path d="M135.613 169.768V174.397H135.133V170.192H134.018V169.768H135.613Z" fill="white"/>
<path d="M138 169.768V174.397H137.52V170.192H136.405V169.768H138Z" fill="white"/>
<path d="M139.104 172.11C139.104 170.638 139.874 169.768 140.944 169.768C142.015 169.768 142.796 170.638 142.796 172.11C142.796 173.583 142.015 174.464 140.944 174.464C139.874 174.464 139.104 173.549 139.104 172.11ZM142.305 172.11C142.305 170.883 141.747 170.203 140.944 170.203C140.141 170.203 139.595 170.85 139.595 172.11C139.595 173.371 140.152 174.029 140.956 174.029C141.759 174.029 142.305 173.315 142.305 172.11Z" fill="white"/>
<path d="M143.465 172.11C143.465 170.638 144.246 169.768 145.317 169.768C146.387 169.768 147.157 170.638 147.157 172.11C147.157 173.583 146.387 174.464 145.317 174.464C144.246 174.464 143.465 173.549 143.465 172.11ZM146.677 172.11C146.677 170.883 146.12 170.203 145.317 170.203C144.514 170.203 143.956 170.883 143.956 172.11C143.956 173.337 144.502 174.029 145.317 174.029C146.131 174.029 146.677 173.315 146.677 172.11Z" fill="white"/>
<path d="M149.109 169.768V174.397H148.629V170.192H147.514V169.768H149.109Z" fill="white"/>
<path d="M150.213 172.11C150.213 170.638 150.983 169.768 152.053 169.768C153.124 169.768 153.905 170.638 153.905 172.11C153.905 173.583 153.124 174.464 152.053 174.464C150.983 174.464 150.213 173.549 150.213 172.11ZM153.414 172.11C153.414 170.883 152.856 170.203 152.053 170.203C151.25 170.203 150.748 170.85 150.748 172.11C150.748 173.371 151.306 174.029 152.109 174.029C152.912 174.029 153.414 173.315 153.414 172.11Z" fill="white"/>
<path d="M155.846 169.768V174.397H155.377V170.192H154.262V169.768H155.846Z" fill="white"/>
<path d="M86.3142 415.102L116.987 412.09V368.982H129.144V412.079L159.939 415.102C161.416 415.246 162.787 415.934 163.785 417.033C164.783 418.132 165.336 419.562 165.337 421.047V425.653H80.9271V421.047C80.9281 419.564 81.4799 418.135 82.4754 417.036C83.4709 415.938 84.839 415.248 86.3142 415.102Z" fill="#263238"/>
<path opacity="0.2" d="M86.3142 415.102L116.987 412.09V368.982H129.144V412.079L159.939 415.102C161.416 415.246 162.787 415.934 163.785 417.033C164.783 418.132 165.336 419.562 165.337 421.047V425.653H80.9271V421.047C80.9281 419.564 81.4799 418.135 82.4754 417.036C83.4709 415.938 84.839 415.248 86.3142 415.102Z" fill="white"/>
<path d="M162.092 439.327C166.484 439.327 170.044 435.767 170.044 431.375C170.044 426.983 166.484 423.422 162.092 423.422C157.699 423.422 154.139 426.983 154.139 431.375C154.139 435.767 157.699 439.327 162.092 439.327Z" fill="#263238"/>
<path d="M84.1727 439.327C88.5648 439.327 92.1252 435.767 92.1252 431.375C92.1252 426.983 88.5648 423.422 84.1727 423.422C79.7807 423.422 76.2203 426.983 76.2203 431.375C76.2203 435.767 79.7807 439.327 84.1727 439.327Z" fill="#263238"/>
<path d="M126.612 378.25H119.485C118.263 378.25 117.092 377.765 116.228 376.901C115.364 376.037 114.879 374.866 114.879 373.644V339.86H131.241V373.644C131.241 374.251 131.121 374.852 130.888 375.412C130.655 375.972 130.314 376.481 129.884 376.909C129.454 377.337 128.943 377.676 128.382 377.906C127.82 378.136 127.219 378.253 126.612 378.25Z" fill="#263238"/>
<path opacity="0.3" d="M126.612 378.25H119.485C118.263 378.25 117.092 377.765 116.228 376.901C115.364 376.037 114.879 374.866 114.879 373.644V339.86H131.241V373.644C131.241 374.251 131.121 374.852 130.888 375.412C130.655 375.972 130.314 376.481 129.884 376.909C129.454 377.337 128.943 377.676 128.382 377.906C127.82 378.136 127.219 378.253 126.612 378.25Z" fill="white"/>
<path d="M93.999 272.492C93.999 272.492 91.6345 329.955 107.684 339.849H89.4038C89.4038 339.849 75.261 320.263 79.254 272.492H93.999Z" fill="#263238"/>
<path opacity="0.3" d="M93.999 272.492C93.999 272.492 91.6345 329.955 107.684 339.849H89.4038C89.4038 339.849 75.261 320.263 79.254 272.492H93.999Z" fill="white"/>
<path d="M88.768 331.807H159.504C160.983 331.807 162.401 332.395 163.447 333.44C164.493 334.486 165.081 335.905 165.081 337.384V344.254H83.1912V337.384C83.1912 335.905 83.7788 334.486 84.8246 333.44C85.8705 332.395 87.289 331.807 88.768 331.807Z" fill="#263238"/>
<path d="M166.263 338.031H82.0201C80.782 338.031 79.7782 339.034 79.7782 340.273V342.012C79.7782 343.251 80.782 344.254 82.0201 344.254H166.263C167.501 344.254 168.505 343.251 168.505 342.012V340.273C168.505 339.034 167.501 338.031 166.263 338.031Z" fill="#263238"/>
<path opacity="0.6" d="M166.263 338.031H82.0201C80.782 338.031 79.7782 339.034 79.7782 340.273V342.012C79.7782 343.251 80.782 344.254 82.0201 344.254H166.263C167.501 344.254 168.505 343.251 168.505 342.012V340.273C168.505 339.034 167.501 338.031 166.263 338.031Z" fill="white"/>
<path d="M75.5064 284.148H103.312C112.293 284.148 119.574 276.867 119.574 267.886V257.903C119.574 248.922 112.293 241.642 103.312 241.642H75.5064C66.5252 241.642 59.2445 248.922 59.2445 257.903V267.886C59.2445 276.867 66.5252 284.148 75.5064 284.148Z" fill="#263238"/>
<path d="M155.355 431.263L164.244 430.048L165.471 408.923L156.604 410.161L155.355 431.263Z" fill="#EBB376"/>
<path opacity="0.2" d="M156.604 410.161L165.471 408.934L164.768 421.013L155.912 421.783L156.604 410.161Z" fill="black"/>
<path d="M155.712 307.068L153.548 293.494L103.736 290.516C103.736 290.516 98.4381 318.768 102.509 326.297C109.77 339.737 148.93 332.989 160.385 334.283C153.537 362.29 154.206 417.02 154.206 417.02L170.568 418.269C170.568 418.269 183.161 359.289 185.704 331.272C187.421 312.389 171.751 312.868 155.712 307.068Z" fill="#FF3366"/>
<path d="M152.288 417.823L171.951 419.117L173.636 410.696L152.031 409.692L152.288 417.823Z" fill="#FF3366"/>
<path d="M175.855 423.378L184.8 424.036L190.399 403.636L181.465 402.989L175.855 423.378Z" fill="#EBB376"/>
<path d="M186.038 424.437C186.038 424.437 186.038 424.437 186.038 424.504H186.105C186.813 424.896 187.561 425.21 188.336 425.441C188.896 425.654 189.515 425.654 190.076 425.441C190.26 425.336 190.41 425.18 190.509 424.993C190.608 424.805 190.651 424.593 190.634 424.382C190.645 424.249 190.623 424.115 190.571 423.993C190.518 423.87 190.436 423.762 190.332 423.679C189.531 423.357 188.64 423.334 187.823 423.612C188.465 423.183 188.932 422.538 189.139 421.794C189.155 421.619 189.11 421.444 189.013 421.298C188.915 421.152 188.771 421.044 188.604 420.991C188.463 420.922 188.308 420.886 188.152 420.886C187.995 420.886 187.841 420.922 187.7 420.991C186.585 421.593 186.194 424.092 186.161 424.225H186.005C185.995 424.261 185.994 424.298 185.999 424.335C186.005 424.371 186.018 424.406 186.038 424.437ZM186.707 423.935L186.507 424.002C186.719 423.177 187.165 421.827 187.823 421.482C187.894 421.438 187.973 421.409 188.056 421.398C188.138 421.386 188.222 421.392 188.302 421.415H188.392C188.67 421.526 188.715 421.694 188.693 421.816C188.671 422.452 187.555 423.456 186.707 423.935ZM186.707 424.404C187.89 424.047 189.529 423.723 190.054 424.103C190.104 424.142 190.144 424.193 190.169 424.251C190.194 424.31 190.204 424.374 190.199 424.437C190.207 424.571 190.18 424.705 190.119 424.825C190.058 424.945 189.966 425.046 189.853 425.118C189.351 425.397 188.202 425.129 186.741 424.404H186.707Z" fill="#FF3366"/>
<path opacity="0.2" d="M181.465 402.989L190.399 403.647L187.198 415.303L178.365 414.221L181.465 402.989Z" fill="black"/>
<path d="M193.433 413.864L177.684 409.235C177.684 409.235 187.087 356.166 196.645 337.763C195.931 337.529 194.983 337.228 193.812 336.882C191.704 336.246 188.905 335.454 185.614 334.54C162.727 328.193 116.34 316.292 116.34 316.292L137.531 296.517C137.531 296.517 221.942 309.388 223.693 331.628C224.507 342.325 193.433 413.864 193.433 413.864Z" fill="#FF3366"/>
<path d="M175.654 409.592L194.615 414.946L198.017 407.06L177.093 401.584L175.654 409.592Z" fill="#FF3366"/>
<path opacity="0.2" d="M193.79 336.882C191.682 336.246 188.882 335.454 185.592 334.54C186.25 329.141 186.261 322.951 183.663 319.795C178.498 313.504 165.215 309.756 157.652 308.474C151.328 307.358 130.081 305.128 130.081 305.128C130.081 305.128 157.652 302.484 185.849 310.704C199.824 314.787 197.058 328.405 193.79 336.882Z" fill="black"/>
<path opacity="0.2" d="M152.288 417.823L171.951 419.117L173.636 410.696L152.031 409.692L152.288 417.823Z" fill="white"/>
<path opacity="0.2" d="M175.654 409.592L194.615 414.946L198.017 407.06L177.093 401.584L175.654 409.592Z" fill="white"/>
<path d="M185.681 423.132L175.989 420.422C175.828 420.373 175.653 420.388 175.503 420.465C175.353 420.542 175.239 420.675 175.186 420.835L172.576 428.375C172.52 428.575 172.505 428.785 172.531 428.992C172.557 429.198 172.624 429.397 172.728 429.578C172.832 429.759 172.97 429.917 173.136 430.043C173.301 430.17 173.49 430.262 173.691 430.315C177.037 431.208 178.744 431.431 183.016 432.613C186.767 433.824 190.598 434.77 194.482 435.446C198.218 435.87 198.53 432.167 196.991 431.654C193.333 430.427 188.96 426.623 187.053 424.025C186.707 423.584 186.225 423.27 185.681 423.132Z" fill="#263238"/>
<path d="M165.125 430.07H165.315C165.315 430.07 165.516 430.137 165.538 430.159C165.56 430.181 165.538 430.159 165.538 430.215H165.616C166.374 430.451 167.156 430.604 167.947 430.672C168.538 430.781 169.148 430.662 169.654 430.338C169.805 430.199 169.915 430.022 169.972 429.825C170.029 429.629 170.031 429.42 169.977 429.222C169.96 429.089 169.91 428.963 169.832 428.854C169.754 428.745 169.651 428.657 169.531 428.598C168.674 428.454 167.794 428.616 167.044 429.055C167.573 428.502 167.885 427.778 167.925 427.014C167.891 426.833 167.798 426.668 167.661 426.545C167.524 426.422 167.35 426.347 167.166 426.333C166.994 426.303 166.817 426.308 166.646 426.349C166.475 426.389 166.315 426.463 166.174 426.568C165.237 427.371 165.058 429.914 165.058 430.059L165.125 430.07ZM166.096 429.557L165.906 429.657C165.852 428.684 166.119 427.721 166.664 426.913C166.725 426.856 166.797 426.812 166.876 426.785C166.955 426.758 167.039 426.749 167.122 426.757H167.222C167.512 426.813 167.59 426.958 167.601 427.081C167.401 428.055 166.869 428.93 166.096 429.557ZM166.218 429.992C167.334 429.401 168.828 428.743 169.408 429.01C169.468 429.036 169.519 429.078 169.556 429.131C169.593 429.184 169.616 429.247 169.62 429.311C169.655 429.44 169.656 429.575 169.623 429.705C169.589 429.834 169.523 429.952 169.431 430.048C168.973 430.438 167.802 430.416 166.218 429.992Z" fill="#FF3366"/>
<path d="M164.913 428.977L154.875 428.352C154.708 428.333 154.54 428.381 154.409 428.486C154.277 428.59 154.192 428.743 154.173 428.91L153.191 436.829C153.163 437.246 153.301 437.656 153.575 437.972C153.849 438.287 154.236 438.482 154.652 438.513C158.154 438.669 159.839 438.569 164.255 438.814C168.175 439.22 172.118 439.346 176.056 439.193C179.792 438.825 179.335 435.145 177.729 434.966C173.892 434.531 168.806 431.709 166.419 429.579C165.998 429.217 165.468 429.005 164.913 428.977Z" fill="#263238"/>
<path d="M176.022 256.398C176.022 256.398 178.833 271.633 183.897 274.567C188.961 277.5 223.983 256.576 223.983 256.576L221.049 250.665C221.049 250.665 191.727 258.584 191.448 258.628C191.169 258.673 190.332 251.936 190.332 251.936L176.022 256.398Z" fill="#263238"/>
<path d="M186.953 232.44C189.262 235.295 192.53 256.398 192.53 256.398L175.331 260.402L171.606 249.717L186.953 232.44Z" fill="#FF3366"/>
<path opacity="0.4" d="M186.953 232.44C189.262 235.295 192.53 256.398 192.53 256.398L175.331 260.402L171.606 249.717L186.953 232.44Z" fill="white"/>
<path d="M98.8062 308.106L156.526 298.502C156.526 298.502 160.14 264.216 186.953 232.44C186.953 232.44 177.64 212.096 144.514 214.918C111.387 217.739 98.8062 308.106 98.8062 308.106Z" fill="#FF3366"/>
<path opacity="0.6" d="M98.8062 308.106L156.526 298.502C156.526 298.502 160.14 264.216 186.953 232.44C186.953 232.44 177.64 212.096 144.514 214.918C111.387 217.739 98.8062 308.106 98.8062 308.106Z" fill="white"/>
<path d="M143.733 244.095C143.733 244.095 143.153 259.956 144.915 260.826C146.677 261.696 180.015 249.605 185.302 248.724C190.589 247.843 202.713 252.472 202.713 252.472L203.828 259.71C203.828 259.71 193.032 259.498 186.964 256.543C186.964 256.543 148.016 279.831 139.628 278.504C131.241 277.177 128.363 245.724 128.363 245.724L143.733 244.095Z" fill="#EBB376"/>
<path d="M143.733 249.717C143.733 249.717 143.855 259.041 145.796 259.755C147.737 260.469 176.58 250.308 176.58 250.308L181.142 260.87C181.142 260.87 144.692 284.393 137.643 278.604C130.594 272.816 128.82 252.081 128.82 252.081L143.733 249.717Z" fill="#263238"/>
<path d="M138.479 218.476C148.852 217.36 145.105 254.089 145.105 254.089L127.672 256.576C127.672 256.576 120.21 220.394 138.479 218.476Z" fill="#FF3366"/>
<path opacity="0.4" d="M138.479 218.476C148.852 217.36 145.105 254.089 145.105 254.089L127.672 256.576C127.672 256.576 120.21 220.394 138.479 218.476Z" fill="white"/>
<path d="M154.931 215.821C154.931 215.821 154.585 231.949 164.467 233.589C174.349 235.228 175.387 222.101 175.387 222.101C175.387 222.101 168.739 214.94 154.931 215.821Z" fill="#263238"/>
<path d="M179.748 224.744C178.033 224.139 176.164 224.139 174.45 224.744C174.056 226.422 173.112 227.921 171.768 229C170.423 230.08 168.757 230.678 167.033 230.7C166.183 230.743 165.332 230.706 164.49 230.588C155.857 229.406 156.805 216.568 156.805 216.568C159.952 216.785 163.09 216.029 165.795 214.405C168.089 213.06 170.092 211.27 171.684 209.14L179.748 224.744Z" fill="#EBB376"/>
<path opacity="0.2" d="M179.748 224.744C178.033 224.139 176.164 224.139 174.45 224.744C174.056 226.422 173.112 227.921 171.768 229C170.423 230.08 168.756 230.678 167.033 230.7C164.802 225.201 165.103 218.899 165.795 214.405C168.089 213.06 170.092 211.27 171.684 209.14L179.748 224.744Z" fill="black"/>
<path d="M186.44 199.816C182.592 202.426 184.343 206.842 193.043 213.769C196.578 209.185 197.158 200.284 194.359 198.053C191.559 195.823 189.786 197.552 186.44 199.816Z" fill="#263238"/>
<path d="M169.921 206.976C170.334 216.379 170.111 221.9 174.762 226.796C181.766 234.169 193.433 230.064 195.831 220.729C197.984 212.341 196.946 198.421 187.823 194.484C185.815 193.615 183.619 193.274 181.442 193.493C179.266 193.713 177.181 194.485 175.387 195.737C173.594 196.989 172.15 198.678 171.193 200.646C170.236 202.613 169.798 204.792 169.921 206.976Z" fill="#EBB376"/>
<path d="M183.897 209.798C183.897 210.557 184.287 211.181 184.778 211.192C185.269 211.203 185.692 210.59 185.704 209.832C185.715 209.073 185.324 208.437 184.834 208.426C184.343 208.415 183.964 209.04 183.897 209.798Z" fill="#263238"/>
<path d="M192.585 209.954C192.585 210.713 192.965 211.348 193.467 211.348C193.968 211.348 194.381 210.757 194.403 209.977C194.426 209.196 194.013 208.594 193.511 208.582C193.009 208.571 192.597 209.185 192.585 209.954Z" fill="#263238"/>
<path d="M189.786 210.267C190.655 212.619 191.848 214.837 193.333 216.858C192.802 217.221 192.199 217.464 191.566 217.572C190.933 217.679 190.284 217.649 189.663 217.483L189.786 210.267Z" fill="#D58745"/>
<path d="M196.478 204.913C196.436 204.985 196.376 205.045 196.303 205.086C196.231 205.127 196.149 205.148 196.065 205.147C195.503 205.096 194.936 205.18 194.413 205.391C193.889 205.603 193.423 205.936 193.054 206.363C193.019 206.41 192.975 206.449 192.924 206.479C192.874 206.509 192.818 206.529 192.76 206.537C192.702 206.545 192.643 206.542 192.586 206.527C192.529 206.513 192.476 206.487 192.429 206.452C192.382 206.419 192.342 206.376 192.311 206.327C192.28 206.278 192.259 206.224 192.25 206.166C192.241 206.109 192.243 206.051 192.256 205.995C192.27 205.938 192.295 205.885 192.329 205.839C192.787 205.292 193.369 204.862 194.027 204.587C194.685 204.311 195.399 204.197 196.11 204.255C196.168 204.256 196.225 204.269 196.278 204.293C196.331 204.317 196.379 204.351 196.418 204.394C196.458 204.437 196.488 204.487 196.508 204.541C196.528 204.596 196.537 204.654 196.534 204.712C196.533 204.783 196.513 204.852 196.478 204.913Z" fill="#263238"/>
<path d="M187.555 206.597C187.474 206.624 187.388 206.628 187.305 206.608C187.222 206.588 187.147 206.546 187.087 206.486C186.703 206.07 186.225 205.752 185.694 205.558C185.162 205.364 184.592 205.3 184.031 205.37C183.913 205.39 183.791 205.365 183.692 205.298C183.592 205.232 183.522 205.13 183.495 205.013C183.472 204.898 183.496 204.778 183.56 204.68C183.625 204.582 183.726 204.513 183.841 204.489C184.547 204.384 185.268 204.449 185.943 204.68C186.619 204.911 187.229 205.301 187.722 205.816C187.802 205.903 187.847 206.016 187.847 206.134C187.847 206.252 187.802 206.365 187.722 206.452L187.555 206.597Z" fill="#263238"/>
<path d="M173.803 198.723C178.164 200.306 177.55 205.024 170.802 213.858C166.263 210.278 163.508 201.79 165.694 198.946C167.88 196.102 169.988 197.351 173.803 198.723Z" fill="#263238"/>
<path d="M165.326 214.416C165.629 215.548 166.153 216.61 166.867 217.54C167.581 218.47 168.471 219.25 169.486 219.836C172.208 221.376 174.316 219.111 174.193 216.156C174.07 213.479 172.509 209.464 169.475 209.129C166.441 208.794 164.579 211.605 165.326 214.416Z" fill="#EBB376"/>
<path d="M182.569 219.044C182.569 219.044 184.198 222.123 188.749 221.978" stroke="#263238" stroke-width="0.587002" stroke-linecap="round" stroke-linejoin="round"/>
<path d="M174.807 201.991C174.807 201.991 178.51 202.18 180.216 204.522C180.674 203.915 180.994 203.216 181.154 202.472C181.314 201.728 181.31 200.959 181.142 200.217C181.142 200.217 185.603 200.764 187.6 203.864C188.156 202.734 188.388 201.471 188.269 200.217C189.116 201.247 189.591 202.532 189.619 203.864C189.619 203.864 193.032 201.701 192.585 199.671C193.432 200.705 194.051 201.906 194.403 203.195C194.403 203.195 196.634 202.426 196.155 198.455C196.903 199.277 197.449 200.262 197.749 201.333C197.749 201.333 200.672 193.045 189.619 188.417C178.565 183.788 165.873 189.276 166.096 198.455C166.319 207.634 174.807 201.991 174.807 201.991Z" fill="#263238"/>
<path d="M264.392 256.398V259.353C264.392 260.235 262.875 260.859 261.994 260.859H193.132C192.251 260.859 190.834 260.235 190.834 259.353V256.398H264.392Z" fill="#263238"/>
<path opacity="0.6" d="M264.392 256.398V259.353C264.392 260.235 262.875 260.859 261.994 260.859H193.132C192.251 260.859 190.834 260.235 190.834 259.353V256.398H264.392Z" fill="white"/>
<path opacity="0.2" d="M264.392 256.398V259.353C264.392 260.235 262.875 260.859 261.994 260.859H216.554C215.673 260.859 214.212 260.235 214.212 259.353V256.398H264.392Z" fill="black"/>
<path d="M275.445 220.171L267.247 257.502C267.102 258.111 266.764 258.657 266.284 259.059C265.804 259.461 265.207 259.697 264.582 259.733H219.755C219.469 259.705 219.192 259.614 218.944 259.467C218.697 259.32 218.485 259.12 218.324 258.881C218.163 258.642 218.057 258.37 218.013 258.086C217.969 257.801 217.989 257.51 218.071 257.234L226.269 220.294C226.436 219.729 226.792 219.239 227.278 218.906C227.763 218.573 228.348 218.417 228.935 218.464H273.75C274.954 218.476 275.668 218.955 275.445 220.171Z" fill="#263238"/>
<path opacity="0.6" d="M275.445 220.171L267.247 257.502C267.102 258.111 266.764 258.657 266.284 259.059C265.804 259.461 265.207 259.697 264.582 259.733H219.755C219.469 259.705 219.192 259.614 218.944 259.467C218.697 259.32 218.485 259.12 218.324 258.881C218.163 258.642 218.057 258.37 218.013 258.086C217.969 257.801 217.989 257.51 218.071 257.234L226.269 220.294C226.436 219.729 226.792 219.239 227.278 218.906C227.763 218.573 228.348 218.417 228.935 218.464H273.75C274.954 218.476 275.668 218.955 275.445 220.171Z" fill="white"/>
<path opacity="0.4" d="M275.445 220.171L267.247 257.502C267.102 258.111 266.764 258.657 266.284 259.059C265.804 259.461 265.207 259.697 264.582 259.733H221.284C220.996 259.707 220.718 259.617 220.469 259.47C220.22 259.324 220.007 259.124 219.844 258.885C219.682 258.646 219.575 258.374 219.531 258.088C219.487 257.803 219.506 257.511 219.588 257.234L227.797 220.294C227.964 219.729 228.32 219.239 228.806 218.906C229.291 218.573 229.876 218.417 230.463 218.464H273.75C274.954 218.476 275.668 218.955 275.445 220.171Z" fill="white"/>
<path opacity="0.2" d="M249.078 244.095C251.164 244.095 253.305 241.865 253.852 239.099C254.398 236.332 253.138 234.091 251.041 234.091C250.659 234.099 250.282 234.174 249.926 234.314C249.732 235.3 249.31 236.227 248.692 237.019C248.073 237.812 247.277 238.448 246.368 238.875C246.344 238.948 246.325 239.023 246.312 239.099C245.721 241.853 246.981 244.095 249.078 244.095Z" fill="black"/>
<path d="M303.931 230.187L314.371 240.627L317.907 260.859H296.436L297.317 258.628L309.084 256.398L310.11 244.095L302.314 242.244L303.931 230.187Z" fill="#263238"/>
<path opacity="0.6" d="M317.907 260.859H296.436L297.317 258.628L309.084 256.398L310.11 244.095L309.096 243.85L302.314 242.244L303.931 230.187L314.371 240.627L317.907 260.859Z" fill="white"/>
<path opacity="0.2" d="M312.921 239.177L309.096 243.85L302.314 242.244L303.931 230.187L312.921 239.177Z" fill="black"/>
<path d="M302.716 247.709H290.726C290.61 247.712 290.495 247.69 290.389 247.643C290.283 247.597 290.188 247.527 290.113 247.44C290.037 247.352 289.981 247.249 289.95 247.137C289.92 247.026 289.914 246.909 289.934 246.795L296.86 195.365C296.9 195.099 297.036 194.857 297.24 194.683C297.445 194.509 297.706 194.414 297.975 194.417H309.966C310.082 194.412 310.199 194.433 310.306 194.479C310.413 194.525 310.509 194.594 310.586 194.682C310.663 194.77 310.72 194.874 310.751 194.986C310.783 195.099 310.789 195.217 310.769 195.332L303.764 246.839C303.71 247.08 303.578 247.295 303.388 247.453C303.199 247.61 302.962 247.7 302.716 247.709Z" fill="#263238"/>
<path opacity="0.6" d="M302.716 247.709H290.726C290.61 247.712 290.495 247.69 290.389 247.643C290.283 247.597 290.188 247.527 290.113 247.44C290.037 247.352 289.981 247.249 289.95 247.137C289.92 247.026 289.914 246.909 289.934 246.795L296.86 195.365C296.9 195.099 297.036 194.857 297.24 194.683C297.445 194.509 297.706 194.414 297.975 194.417H309.966C310.082 194.412 310.199 194.433 310.306 194.479C310.413 194.525 310.509 194.594 310.586 194.682C310.663 194.77 310.72 194.874 310.751 194.986C310.783 195.099 310.789 195.217 310.769 195.332L303.764 246.839C303.71 247.08 303.578 247.295 303.388 247.453C303.199 247.61 302.962 247.7 302.716 247.709Z" fill="white"/>
<path opacity="0.4" d="M299.37 247.709H290.726C290.61 247.712 290.495 247.69 290.389 247.643C290.283 247.597 290.188 247.527 290.113 247.44C290.037 247.352 289.981 247.249 289.95 247.137C289.92 247.026 289.914 246.909 289.934 246.795L296.86 195.365C296.9 195.099 297.036 194.857 297.24 194.683C297.445 194.509 297.706 194.414 297.975 194.417H306.619C306.736 194.412 306.852 194.433 306.96 194.479C307.067 194.525 307.163 194.594 307.24 194.682C307.317 194.77 307.374 194.874 307.405 194.986C307.437 195.099 307.443 195.217 307.423 195.332L300.418 246.839C300.364 247.08 300.232 247.295 300.042 247.453C299.852 247.61 299.616 247.7 299.37 247.709Z" fill="white"/>
<path d="M299.883 246.092H290.681L297.451 196.068H306.653L299.883 246.092Z" fill="#FF3366"/>
<path d="M220.458 439.316H213.621L201.341 268.399H210.409L220.458 439.316Z" fill="#263238"/>
<path opacity="0.4" d="M220.458 439.316H213.621L201.943 276.887L201.341 268.667H210.409L210.9 276.887L220.458 439.316Z" fill="white"/>
<path opacity="0.2" d="M210.9 276.474H201.943L201.341 268.667H210.409L210.9 276.474Z" fill="black"/>
<path d="M270.605 439.316H263.767L262.652 268.399H271.72L270.605 439.316Z" fill="#263238"/>
<path opacity="0.5" d="M271.72 268.667L271.541 296.249L270.605 439.316H263.767L262.831 296.249L262.652 268.667H271.72Z" fill="white"/>
<path opacity="0.2" d="M271.72 268.667L271.541 296.551H262.831L262.652 268.667H271.72Z" fill="black"/>
<path d="M343.147 439.316H336.31L324.03 268.399H333.098L343.147 439.316Z" fill="#263238"/>
<path opacity="0.5" d="M343.147 439.316H336.31L324.632 276.887L324.03 268.667H333.098L333.589 276.887L343.147 439.316Z" fill="white"/>
<path opacity="0.2" d="M333.589 276.474H324.632L324.03 268.667H333.098L333.589 276.474Z" fill="black"/>
<path d="M142.294 439.316H135.457L145.495 268.399H154.563L142.294 439.316Z" fill="#263238"/>
<path opacity="0.5" d="M154.563 268.667L153.961 276.887L142.283 439.316H135.457L145.004 276.887L145.495 268.667H154.563Z" fill="white"/>
<path opacity="0.2" d="M145.495 268.667H154.563L153.961 276.474H145.004L145.495 268.667Z" fill="black"/>
<path d="M138.312 264.116H340.281V270.262C340.281 270.901 340.027 271.513 339.575 271.965C339.123 272.417 338.511 272.671 337.872 272.671H140.71C140.071 272.671 139.458 272.417 139.007 271.965C138.555 271.513 138.301 270.901 138.301 270.262V264.116H138.312Z" fill="#FF3366"/>
<path opacity="0.2" d="M340.281 264.116H138.312V268.399H340.281V264.116Z" fill="black"/>
<path d="M344.519 265.231H134.085C133.445 265.231 132.831 264.978 132.377 264.526C131.924 264.075 131.668 263.462 131.665 262.822C131.665 262.18 131.92 261.565 132.374 261.111C132.827 260.657 133.443 260.402 134.085 260.402H344.519C345.159 260.405 345.772 260.661 346.223 261.115C346.675 261.568 346.928 262.182 346.928 262.822C346.928 263.139 346.866 263.452 346.745 263.744C346.624 264.036 346.446 264.302 346.223 264.526C345.999 264.749 345.733 264.927 345.441 265.048C345.149 265.169 344.836 265.231 344.519 265.231Z" fill="#FF3366"/>
</svg>
