<svg width="782" height="800" viewBox="0 0 782 800" fill="none" xmlns="http://www.w3.org/2000/svg">
<g filter="url(#filter0_d)">
<path d="M149 100H782H985.5C985.5 100 986.256 285.394 938.5 389.5C897.085 479.783 782 590 782 590C782 590 694.812 689.686 620 692.5C537.307 695.61 505.258 565.124 439.5 581.5C324.403 610.163 231.5 463.5 231.5 463.5C231.5 463.5 116.803 407.066 102.5 308C88.4033 210.366 149 100 149 100Z" fill="#407BFF"/>
</g>
<path d="M180.617 423.68C232.405 392.267 225.904 326.57 292.642 316.412C337.872 309.527 365.577 310.102 409.642 322.412C458.323 336.012 489.647 347.695 522.142 386.412C549.421 418.914 561.733 449.152 564.642 486.412C568.006 529.508 512.777 542.815 516.142 585.912C519.051 623.172 562.787 631.085 564.642 668.412C566.812 712.098 544.271 740.039 508.642 765.412C453.942 804.366 403.185 740.756 337.142 752.912C287.893 761.977 267.642 802.167 217.642 799.412C168.025 796.678 114.354 789.646 104.642 740.912C99.5954 715.592 121.151 702.151 119.142 676.412C115.849 634.243 64.8502 606.724 62.6171 554.18C61.0964 518.398 60.6796 492.988 82.6171 464.68C108.029 431.888 145.147 445.195 180.617 423.68Z" fill="#1D1F20"/>
<path d="M458.337 637.64C458.337 637.64 464.687 632.35 470.127 637.64C475.567 642.93 476.627 675.72 476.627 675.72" stroke="#407BFF" stroke-miterlimit="10"/>
<path d="M477.077 682.05C477.077 682.05 473.337 643.57 487.417 627.4" stroke="#407BFF" stroke-miterlimit="10"/>
<path d="M475.737 677.99C475.737 677.99 478.617 634.19 468.047 624.48" stroke="#407BFF" stroke-miterlimit="10"/>
<path d="M477.077 677.99C477.077 677.99 477.317 649.05 485.167 644.55C493.017 640.05 497.027 654.73 497.027 654.73" stroke="#407BFF" stroke-miterlimit="10"/>
<path d="M473.977 677.99C473.977 677.99 475.257 655.77 469.167 647.83C463.077 639.89 456.687 651.23 456.687 651.23" stroke="#407BFF" stroke-miterlimit="10"/>
<path d="M476.097 680.97C476.097 680.97 472.157 628.97 478.667 620.2" stroke="#407BFF" stroke-miterlimit="10"/>
<path d="M491.897 648.77C491.897 648.77 487.977 650.21 489.147 653.62C490.317 657.03 502.687 662.62 502.687 662.62C502.687 662.62 507.867 657.87 503.107 650.14C498.347 642.41 491.997 646.31 491.897 648.77Z" fill="#407BFF"/>
<path opacity="0.5" d="M491.897 648.77C491.897 648.77 487.977 650.21 489.147 653.62C490.317 657.03 502.687 662.62 502.687 662.62C502.687 662.62 507.867 657.87 503.107 650.14C498.347 642.41 491.997 646.31 491.897 648.77Z" fill="white"/>
<path d="M474.877 642.31C474.877 642.31 479.047 642.14 479.277 645.73C479.507 649.32 470.277 659.26 470.277 659.26C470.277 659.26 463.667 656.87 465.087 647.9C466.507 638.93 473.837 640.07 474.877 642.31Z" fill="#407BFF"/>
<path opacity="0.5" d="M474.877 642.31C474.877 642.31 479.047 642.14 479.277 645.73C479.507 649.32 470.277 659.26 470.277 659.26C470.277 659.26 463.667 656.87 465.087 647.9C466.507 638.93 473.837 640.07 474.877 642.31Z" fill="white"/>
<path d="M471.347 625.08C471.347 625.08 474.127 624.78 473.897 623.08C473.667 621.38 463.097 617.08 456.897 624.08C456.897 624.08 460.897 630.94 466.667 631.08C472.437 631.22 471.347 625.08 471.347 625.08Z" fill="#407BFF"/>
<path opacity="0.5" d="M471.347 625.08C471.347 625.08 474.127 624.78 473.897 623.08C473.667 621.38 463.097 617.08 456.897 624.08C456.897 624.08 460.897 630.94 466.667 631.08C472.437 631.22 471.347 625.08 471.347 625.08Z" fill="white"/>
<path d="M476.527 620.97C476.527 620.97 474.007 622.19 473.307 620.63C472.607 619.07 479.307 609.78 488.307 612.46C488.307 612.46 488.547 620.4 483.687 623.53C478.827 626.66 476.527 620.97 476.527 620.97Z" fill="#407BFF"/>
<path opacity="0.5" d="M476.527 620.97C476.527 620.97 474.007 622.19 473.307 620.63C472.607 619.07 479.307 609.78 488.307 612.46C488.307 612.46 488.547 620.4 483.687 623.53C478.827 626.66 476.527 620.97 476.527 620.97Z" fill="white"/>
<path d="M463.367 647.4C463.367 647.4 465.287 645.85 463.217 645.09C461.147 644.33 450.987 644.55 450.877 654.61C450.877 654.61 462.707 656.61 464.177 652.75C465.647 648.89 463.367 647.4 463.367 647.4Z" fill="#407BFF"/>
<path opacity="0.5" d="M463.367 647.4C463.367 647.4 465.287 645.85 463.217 645.09C461.147 644.33 450.987 644.55 450.877 654.61C450.877 654.61 462.707 656.61 464.177 652.75C465.647 648.89 463.367 647.4 463.367 647.4Z" fill="white"/>
<path d="M487.487 624.83C487.487 624.83 485.567 623.28 487.647 622.52C489.727 621.76 499.867 621.98 499.977 632.05C499.977 632.05 488.147 634.05 486.677 630.18C485.207 626.31 487.487 624.83 487.487 624.83Z" fill="#407BFF"/>
<path opacity="0.5" d="M487.487 624.83C487.487 624.83 485.567 623.28 487.647 622.52C489.727 621.76 499.867 621.98 499.977 632.05C499.977 632.05 488.147 634.05 486.677 630.18C485.207 626.31 487.487 624.83 487.487 624.83Z" fill="white"/>
<path d="M481.237 632.93C481.237 632.93 481.067 631.05 482.587 631.79C484.107 632.53 489.407 638.24 483.917 643.66C483.917 643.66 476.527 638.19 477.857 635.34C479.187 632.49 481.237 632.93 481.237 632.93Z" fill="#407BFF"/>
<path opacity="0.5" d="M481.237 632.93C481.237 632.93 481.067 631.05 482.587 631.79C484.107 632.53 489.407 638.24 483.917 643.66C483.917 643.66 476.527 638.19 477.857 635.34C479.187 632.49 481.237 632.93 481.237 632.93Z" fill="white"/>
<path d="M461.647 635.62C461.647 635.62 462.797 634.12 461.117 633.93C459.437 633.74 451.917 635.75 453.667 643.26C453.667 643.26 462.837 642.58 463.227 639.45C463.617 636.32 461.647 635.62 461.647 635.62Z" fill="#407BFF"/>
<path opacity="0.5" d="M461.647 635.62C461.647 635.62 462.797 634.12 461.117 633.93C459.437 633.74 451.917 635.75 453.667 643.26C453.667 643.26 462.837 642.58 463.227 639.45C463.617 636.32 461.647 635.62 461.647 635.62Z" fill="white"/>
<path d="M492.627 705.88H461.167L457.777 671.44H496.017L492.627 705.88Z" fill="#263238"/>
<path opacity="0.2" d="M492.627 705.88H461.167L457.777 671.44H496.017L492.627 705.88Z" fill="white"/>
<path d="M497.707 667.64H456.097V675.24H497.707V667.64Z" fill="#263238"/>
<path opacity="0.4" d="M497.707 667.64H456.097V675.24H497.707V667.64Z" fill="white"/>
<path d="M508.647 429.96H401.697C400.432 429.96 399.407 430.985 399.407 432.25V519.41C399.407 520.674 400.432 521.7 401.697 521.7H508.647C509.912 521.7 510.937 520.674 510.937 519.41V432.25C510.937 430.985 509.912 429.96 508.647 429.96Z" fill="#407BFF"/>
<path opacity="0.6" d="M510.937 432.25V519.41C510.937 520.017 510.696 520.599 510.266 521.029C509.837 521.458 509.254 521.7 508.647 521.7H401.697C401.09 521.7 400.507 521.458 400.078 521.029C399.648 520.599 399.407 520.017 399.407 519.41V432.25C399.41 431.643 399.652 431.062 400.081 430.633C400.51 430.204 401.091 429.962 401.697 429.96H508.697C509.295 429.975 509.863 430.223 510.281 430.651C510.699 431.078 510.935 431.652 510.937 432.25Z" fill="white"/>
<path d="M508.557 439.29H401.777V519.13H508.557V439.29Z" fill="#263238"/>
<path opacity="0.5" d="M410.467 449.24C410.598 449.333 410.756 449.383 410.917 449.38C411.034 449.381 411.149 449.355 411.254 449.303C411.358 449.25 411.448 449.174 411.517 449.08C411.577 449.001 411.62 448.911 411.645 448.815C411.669 448.719 411.674 448.619 411.659 448.521C411.644 448.423 411.61 448.329 411.558 448.245C411.506 448.16 411.438 448.087 411.357 448.03L409.157 446.4L411.367 444.77C411.447 444.711 411.514 444.638 411.565 444.553C411.616 444.469 411.65 444.375 411.665 444.278C411.679 444.18 411.675 444.081 411.651 443.985C411.628 443.889 411.586 443.799 411.527 443.72C411.469 443.64 411.395 443.573 411.311 443.522C411.226 443.471 411.133 443.437 411.035 443.422C410.938 443.407 410.838 443.412 410.742 443.435C410.647 443.459 410.557 443.501 410.477 443.56L407.477 445.8C407.384 445.871 407.308 445.962 407.256 446.067C407.204 446.172 407.177 446.287 407.177 446.405C407.177 446.522 407.204 446.637 407.256 446.742C407.308 446.847 407.384 446.939 407.477 447.01L410.467 449.24Z" fill="white"/>
<path opacity="0.5" d="M420.627 446.39L418.417 448.03C418.266 448.143 418.165 448.311 418.135 448.497C418.106 448.684 418.149 448.875 418.257 449.03C418.326 449.125 418.416 449.202 418.52 449.256C418.624 449.31 418.74 449.338 418.857 449.34C419.019 449.339 419.177 449.286 419.307 449.19L422.307 446.95C422.402 446.881 422.479 446.791 422.533 446.687C422.586 446.582 422.614 446.467 422.614 446.35C422.614 446.232 422.586 446.117 422.533 446.013C422.479 445.908 422.402 445.818 422.307 445.75L419.307 443.52C419.229 443.45 419.138 443.398 419.039 443.366C418.94 443.334 418.835 443.323 418.732 443.334C418.628 443.344 418.528 443.377 418.437 443.428C418.347 443.48 418.268 443.549 418.206 443.633C418.144 443.717 418.1 443.812 418.077 443.914C418.054 444.015 418.052 444.121 418.072 444.223C418.092 444.325 418.133 444.422 418.192 444.508C418.252 444.593 418.328 444.665 418.417 444.72L420.627 446.39Z" fill="white"/>
<path opacity="0.5" d="M413.847 449.31C413.93 449.325 414.014 449.325 414.097 449.31C414.252 449.311 414.403 449.264 414.529 449.174C414.654 449.084 414.748 448.956 414.797 448.81L416.387 444.34C416.453 444.151 416.442 443.944 416.356 443.764C416.27 443.584 416.115 443.446 415.927 443.38C415.739 443.313 415.532 443.325 415.352 443.411C415.172 443.497 415.033 443.651 414.967 443.84L413.387 448.31C413.348 448.405 413.328 448.508 413.33 448.611C413.332 448.714 413.355 448.816 413.399 448.91C413.442 449.004 413.504 449.088 413.581 449.157C413.658 449.225 413.749 449.278 413.847 449.31Z" fill="white"/>
<path opacity="0.5" d="M426.357 449.63H430.307C430.572 449.63 430.827 449.524 431.014 449.337C431.202 449.149 431.307 448.895 431.307 448.63C431.307 448.364 431.202 448.11 431.014 447.923C430.827 447.735 430.572 447.63 430.307 447.63H426.357C426.092 447.63 425.837 447.735 425.65 447.923C425.462 448.11 425.357 448.364 425.357 448.63C425.357 448.895 425.462 449.149 425.65 449.337C425.837 449.524 426.092 449.63 426.357 449.63Z" fill="white"/>
<path opacity="0.5" d="M490.407 506.2H428.537C428.272 506.2 428.017 506.305 427.83 506.493C427.642 506.68 427.537 506.934 427.537 507.2C427.537 507.465 427.642 507.719 427.83 507.907C428.017 508.094 428.272 508.2 428.537 508.2H490.407C490.672 508.2 490.927 508.094 491.114 507.907C491.302 507.719 491.407 507.465 491.407 507.2C491.407 506.934 491.302 506.68 491.114 506.493C490.927 506.305 490.672 506.2 490.407 506.2Z" fill="white"/>
<path d="M503.997 506.2H496.347C496.082 506.2 495.827 506.305 495.64 506.493C495.452 506.68 495.347 506.934 495.347 507.2C495.347 507.465 495.452 507.719 495.64 507.907C495.827 508.094 496.082 508.2 496.347 508.2H503.997C504.262 508.2 504.517 508.094 504.704 507.907C504.892 507.719 504.997 507.465 504.997 507.2C504.997 506.934 504.892 506.68 504.704 506.493C504.517 506.305 504.262 506.2 503.997 506.2Z" fill="white"/>
<path d="M447.157 501.87H472.067C472.332 501.87 472.587 501.764 472.774 501.577C472.962 501.389 473.067 501.135 473.067 500.87C473.067 500.604 472.962 500.35 472.774 500.163C472.587 499.975 472.332 499.87 472.067 499.87H447.157C446.892 499.87 446.638 499.975 446.45 500.163C446.262 500.35 446.157 500.604 446.157 500.87C446.157 501.135 446.262 501.389 446.45 501.577C446.638 501.764 446.892 501.87 447.157 501.87Z" fill="white"/>
<path opacity="0.5" d="M490.407 501.87C490.672 501.87 490.927 501.764 491.114 501.577C491.302 501.389 491.407 501.135 491.407 500.87C491.407 500.604 491.302 500.35 491.114 500.163C490.927 499.975 490.672 499.87 490.407 499.87H476.277C476.012 499.87 475.758 499.975 475.57 500.163C475.382 500.35 475.277 500.604 475.277 500.87C475.277 501.135 475.382 501.389 475.57 501.577C475.758 501.764 476.012 501.87 476.277 501.87H490.407Z" fill="white"/>
<path opacity="0.5" d="M503.997 499.87H496.487C496.222 499.87 495.968 499.975 495.78 500.163C495.592 500.35 495.487 500.604 495.487 500.87C495.487 501.135 495.592 501.389 495.78 501.577C495.968 501.764 496.222 501.87 496.487 501.87H503.997C504.262 501.87 504.517 501.764 504.704 501.577C504.892 501.389 504.997 501.135 504.997 500.87C504.997 500.604 504.892 500.35 504.704 500.163C504.517 499.975 504.262 499.87 503.997 499.87Z" fill="white"/>
<path d="M490.507 493.54H457.157C456.892 493.54 456.638 493.645 456.45 493.833C456.262 494.02 456.157 494.274 456.157 494.54C456.157 494.805 456.262 495.059 456.45 495.247C456.638 495.434 456.892 495.54 457.157 495.54H490.477C490.742 495.54 490.997 495.434 491.184 495.247C491.372 495.059 491.477 494.805 491.477 494.54C491.477 494.274 491.372 494.02 491.184 493.833C490.997 493.645 490.742 493.54 490.477 493.54H490.507Z" fill="white"/>
<path d="M503.997 493.54H496.397C496.132 493.54 495.878 493.645 495.69 493.833C495.502 494.02 495.397 494.274 495.397 494.54C495.397 494.805 495.502 495.059 495.69 495.247C495.878 495.434 496.132 495.54 496.397 495.54H503.997C504.262 495.54 504.517 495.434 504.704 495.247C504.892 495.059 504.997 494.805 504.997 494.54C504.997 494.274 504.892 494.02 504.704 493.833C504.517 493.645 504.262 493.54 503.997 493.54Z" fill="white"/>
<path opacity="0.5" d="M472.157 488.21C472.157 487.944 472.052 487.69 471.864 487.503C471.677 487.315 471.422 487.21 471.157 487.21H437.157C436.892 487.21 436.638 487.315 436.45 487.503C436.262 487.69 436.157 487.944 436.157 488.21C436.157 488.475 436.262 488.729 436.45 488.917C436.638 489.104 436.892 489.21 437.157 489.21H471.157C471.422 489.21 471.677 489.104 471.864 488.917C472.052 488.729 472.157 488.475 472.157 488.21Z" fill="white"/>
<path opacity="0.5" d="M477.317 487.21C477.052 487.21 476.797 487.315 476.61 487.503C476.422 487.69 476.317 487.944 476.317 488.21C476.317 488.475 476.422 488.729 476.61 488.917C476.797 489.104 477.052 489.21 477.317 489.21H490.497C490.762 489.21 491.017 489.104 491.204 488.917C491.392 488.729 491.497 488.475 491.497 488.21C491.497 487.944 491.392 487.69 491.204 487.503C491.017 487.315 490.762 487.21 490.497 487.21H477.317Z" fill="white"/>
<path d="M503.997 487.21H496.487C496.222 487.21 495.968 487.315 495.78 487.503C495.592 487.69 495.487 487.944 495.487 488.21C495.487 488.475 495.592 488.729 495.78 488.917C495.968 489.104 496.222 489.21 496.487 489.21H503.997C504.262 489.21 504.517 489.104 504.704 488.917C504.892 488.729 504.997 488.475 504.997 488.21C504.997 487.944 504.892 487.69 504.704 487.503C504.517 487.315 504.262 487.21 503.997 487.21Z" fill="white"/>
<path d="M479.157 482.88H485.697C485.962 482.88 486.217 482.774 486.404 482.587C486.592 482.399 486.697 482.145 486.697 481.88C486.697 481.614 486.592 481.36 486.404 481.173C486.217 480.985 485.962 480.88 485.697 480.88H479.157C478.892 480.88 478.638 480.985 478.45 481.173C478.262 481.36 478.157 481.614 478.157 481.88C478.157 482.145 478.262 482.399 478.45 482.587C478.638 482.774 478.892 482.88 479.157 482.88Z" fill="white"/>
<path opacity="0.5" d="M490.377 482.88H503.997C504.262 482.88 504.517 482.774 504.704 482.587C504.892 482.399 504.997 482.145 504.997 481.88C504.997 481.614 504.892 481.36 504.704 481.173C504.517 480.985 504.262 480.88 503.997 480.88H490.377C490.112 480.88 489.857 480.985 489.67 481.173C489.482 481.36 489.377 481.614 489.377 481.88C489.377 482.145 489.482 482.399 489.67 482.587C489.857 482.774 490.112 482.88 490.377 482.88Z" fill="white"/>
<path d="M442.507 475.55C442.507 475.284 442.402 475.03 442.214 474.843C442.027 474.655 441.772 474.55 441.507 474.55H407.157C406.892 474.55 406.638 474.655 406.45 474.843C406.262 475.03 406.157 475.284 406.157 475.55C406.157 475.815 406.262 476.069 406.45 476.257C406.638 476.444 406.892 476.55 407.157 476.55H441.477C441.611 476.554 441.744 476.531 441.869 476.482C441.994 476.434 442.108 476.361 442.204 476.268C442.3 476.174 442.376 476.063 442.428 475.939C442.48 475.816 442.507 475.684 442.507 475.55Z" fill="white"/>
<path opacity="0.5" d="M446.907 476.55H456.997C457.262 476.55 457.517 476.444 457.704 476.257C457.892 476.069 457.997 475.815 457.997 475.55C457.997 475.284 457.892 475.03 457.704 474.843C457.517 474.655 457.262 474.55 456.997 474.55H446.907C446.642 474.55 446.388 474.655 446.2 474.843C446.012 475.03 445.907 475.284 445.907 475.55C445.907 475.815 446.012 476.069 446.2 476.257C446.388 476.444 446.642 476.55 446.907 476.55Z" fill="white"/>
<path opacity="0.5" d="M407.157 470.22H420.157C420.422 470.22 420.677 470.114 420.864 469.927C421.052 469.739 421.157 469.485 421.157 469.22C421.157 468.954 421.052 468.7 420.864 468.513C420.677 468.325 420.422 468.22 420.157 468.22H407.157C406.892 468.22 406.638 468.325 406.45 468.513C406.262 468.7 406.157 468.954 406.157 469.22C406.157 469.485 406.262 469.739 406.45 469.927C406.638 470.114 406.892 470.22 407.157 470.22Z" fill="white"/>
<path d="M467.997 469.22C467.997 468.954 467.892 468.7 467.704 468.513C467.517 468.325 467.262 468.22 466.997 468.22H426.637C426.372 468.22 426.117 468.325 425.93 468.513C425.742 468.7 425.637 468.954 425.637 469.22C425.637 469.485 425.742 469.739 425.93 469.927C426.117 470.114 426.372 470.22 426.637 470.22H466.997C467.262 470.22 467.517 470.114 467.704 469.927C467.892 469.739 467.997 469.485 467.997 469.22Z" fill="white"/>
<path d="M407.157 463.89H430.707C430.972 463.89 431.227 463.784 431.414 463.597C431.602 463.409 431.707 463.155 431.707 462.89C431.707 462.624 431.602 462.37 431.414 462.183C431.227 461.995 430.972 461.89 430.707 461.89H407.157C406.892 461.89 406.638 461.995 406.45 462.183C406.262 462.37 406.157 462.624 406.157 462.89C406.157 463.155 406.262 463.409 406.45 463.597C406.638 463.784 406.892 463.89 407.157 463.89Z" fill="white"/>
<path opacity="0.5" d="M435.157 462.89C435.157 463.155 435.262 463.409 435.45 463.597C435.638 463.784 435.892 463.89 436.157 463.89H441.987C442.252 463.89 442.507 463.784 442.694 463.597C442.882 463.409 442.987 463.155 442.987 462.89C442.987 462.624 442.882 462.37 442.694 462.183C442.507 461.995 442.252 461.89 441.987 461.89H436.157C435.892 461.89 435.638 461.995 435.45 462.183C435.262 462.37 435.157 462.624 435.157 462.89Z" fill="white"/>
<path opacity="0.5" d="M407.157 457.56H434.967C435.232 457.56 435.487 457.454 435.674 457.267C435.862 457.079 435.967 456.825 435.967 456.56C435.967 456.294 435.862 456.04 435.674 455.853C435.487 455.665 435.232 455.56 434.967 455.56H407.157C406.892 455.56 406.638 455.665 406.45 455.853C406.262 456.04 406.157 456.294 406.157 456.56C406.157 456.825 406.262 457.079 406.45 457.267C406.638 457.454 406.892 457.56 407.157 457.56Z" fill="white"/>
<path d="M455.667 457.56H476.997C477.262 457.56 477.517 457.454 477.704 457.267C477.892 457.079 477.997 456.825 477.997 456.56C477.997 456.294 477.892 456.04 477.704 455.853C477.517 455.665 477.262 455.56 476.997 455.56H455.667C455.402 455.56 455.147 455.665 454.96 455.853C454.772 456.04 454.667 456.294 454.667 456.56C454.667 456.825 454.772 457.079 454.96 457.267C455.147 457.454 455.402 457.56 455.667 457.56Z" fill="white"/>
<path opacity="0.2" d="M463.297 429.96V454.82C463.297 456.146 462.77 457.417 461.833 458.355C460.895 459.293 459.623 459.82 458.297 459.82H399.407V432.25C399.41 431.643 399.652 431.062 400.081 430.633C400.51 430.204 401.091 429.962 401.697 429.96H463.297Z" fill="black"/>
<path d="M455.727 360.18H334.777C333.512 360.18 332.487 361.205 332.487 362.47V449.63C332.487 450.894 333.512 451.92 334.777 451.92H455.727C456.992 451.92 458.017 450.894 458.017 449.63V362.47C458.017 361.205 456.992 360.18 455.727 360.18Z" fill="#407BFF"/>
<path opacity="0.6" d="M458.017 362.47V449.63C458.017 449.93 457.958 450.228 457.843 450.506C457.728 450.784 457.559 451.036 457.346 451.249C457.134 451.462 456.881 451.63 456.603 451.745C456.326 451.86 456.028 451.92 455.727 451.92H334.777C334.476 451.921 334.178 451.863 333.899 451.748C333.621 451.633 333.368 451.465 333.155 451.252C332.942 451.039 332.773 450.786 332.659 450.508C332.544 450.229 332.486 449.931 332.487 449.63V362.47C332.487 361.862 332.728 361.28 333.158 360.85C333.587 360.421 334.17 360.18 334.777 360.18H455.777C456.375 360.195 456.943 360.443 457.361 360.871C457.779 361.298 458.015 361.872 458.017 362.47Z" fill="white"/>
<path d="M455.637 369.51H334.857V449.35H455.637V369.51Z" fill="#263238"/>
<path d="M343.547 379.46C343.678 379.553 343.836 379.603 343.997 379.6C344.154 379.598 344.306 379.547 344.432 379.454C344.558 379.361 344.652 379.231 344.7 379.082C344.749 378.933 344.749 378.773 344.702 378.624C344.655 378.474 344.562 378.344 344.437 378.25L342.227 376.62L344.437 374.99C344.598 374.872 344.705 374.695 344.735 374.498C344.765 374.301 344.715 374.1 344.597 373.94C344.479 373.779 344.302 373.672 344.105 373.642C343.908 373.612 343.708 373.662 343.547 373.78L340.547 376.02C340.454 376.091 340.378 376.182 340.326 376.287C340.274 376.392 340.247 376.507 340.247 376.625C340.247 376.742 340.274 376.857 340.326 376.962C340.378 377.067 340.454 377.159 340.547 377.23L343.547 379.46Z" fill="white"/>
<path d="M353.697 376.61L351.497 378.25C351.346 378.363 351.245 378.531 351.215 378.717C351.186 378.904 351.229 379.095 351.337 379.25C351.406 379.345 351.496 379.422 351.6 379.476C351.704 379.53 351.82 379.558 351.937 379.56C352.099 379.559 352.257 379.506 352.387 379.41L355.387 377.17C355.484 377.103 355.563 377.013 355.617 376.908C355.671 376.804 355.698 376.687 355.697 376.57C355.696 376.452 355.667 376.337 355.613 376.233C355.56 376.129 355.482 376.038 355.387 375.97L352.387 373.74C352.309 373.67 352.218 373.618 352.119 373.586C352.02 373.554 351.915 373.543 351.812 373.554C351.708 373.564 351.608 373.596 351.517 373.648C351.427 373.7 351.348 373.769 351.286 373.853C351.224 373.937 351.18 374.032 351.157 374.134C351.134 374.235 351.132 374.341 351.152 374.443C351.172 374.545 351.213 374.642 351.272 374.728C351.332 374.813 351.408 374.885 351.497 374.94L353.697 376.61Z" fill="white"/>
<path d="M346.927 379.56C347.01 379.575 347.094 379.575 347.177 379.56C347.331 379.56 347.482 379.511 347.607 379.422C347.733 379.332 347.827 379.206 347.877 379.06L349.457 374.59C349.492 374.498 349.508 374.4 349.504 374.302C349.5 374.204 349.476 374.108 349.434 374.019C349.392 373.93 349.332 373.851 349.259 373.786C349.186 373.721 349.1 373.671 349.007 373.64C348.912 373.6 348.81 373.58 348.707 373.581C348.605 373.583 348.503 373.605 348.409 373.647C348.316 373.69 348.231 373.751 348.162 373.827C348.093 373.903 348.04 373.992 348.007 374.09L346.427 378.56C346.388 378.658 346.37 378.763 346.375 378.868C346.38 378.974 346.406 379.077 346.453 379.171C346.501 379.266 346.567 379.349 346.649 379.416C346.73 379.483 346.825 379.532 346.927 379.56Z" fill="white"/>
<path opacity="0.5" d="M359.427 379.85H363.427C363.692 379.85 363.947 379.744 364.134 379.557C364.322 379.369 364.427 379.115 364.427 378.85C364.427 378.584 364.322 378.33 364.134 378.143C363.947 377.955 363.692 377.85 363.427 377.85H359.427C359.162 377.85 358.908 377.955 358.72 378.143C358.532 378.33 358.427 378.584 358.427 378.85C358.427 379.115 358.532 379.369 358.72 379.557C358.908 379.744 359.162 379.85 359.427 379.85Z" fill="white"/>
<path opacity="0.5" d="M410.737 387.78H416.077C416.342 387.78 416.597 387.674 416.784 387.487C416.972 387.299 417.077 387.045 417.077 386.78C417.077 386.514 416.972 386.26 416.784 386.073C416.597 385.885 416.342 385.78 416.077 385.78H410.737C410.472 385.78 410.218 385.885 410.03 386.073C409.842 386.26 409.737 386.514 409.737 386.78C409.737 387.045 409.842 387.299 410.03 387.487C410.218 387.674 410.472 387.78 410.737 387.78Z" fill="white"/>
<path d="M352.857 386.78C352.857 387.045 352.962 387.299 353.15 387.487C353.337 387.674 353.592 387.78 353.857 387.78H403.857C404.122 387.78 404.377 387.674 404.564 387.487C404.752 387.299 404.857 387.045 404.857 386.78C404.857 386.514 404.752 386.26 404.564 386.073C404.377 385.885 404.122 385.78 403.857 385.78H353.857C353.592 385.78 353.337 385.885 353.15 386.073C352.962 386.26 352.857 386.514 352.857 386.78Z" fill="white"/>
<path opacity="0.5" d="M340.267 387.78H347.917C348.182 387.78 348.437 387.674 348.624 387.487C348.812 387.299 348.917 387.045 348.917 386.78C348.917 386.514 348.812 386.26 348.624 386.073C348.437 385.885 348.182 385.78 347.917 385.78H340.267C340.002 385.78 339.748 385.885 339.56 386.073C339.372 386.26 339.267 386.514 339.267 386.78C339.267 387.045 339.372 387.299 339.56 387.487C339.748 387.674 340.002 387.78 340.267 387.78Z" fill="white"/>
<path d="M392.077 394.11C392.342 394.11 392.597 394.004 392.784 393.817C392.972 393.629 393.077 393.375 393.077 393.11C393.077 392.844 392.972 392.59 392.784 392.403C392.597 392.215 392.342 392.11 392.077 392.11H372.157C371.892 392.11 371.638 392.215 371.45 392.403C371.262 392.59 371.157 392.844 371.157 393.11C371.157 393.375 371.262 393.629 371.45 393.817C371.638 394.004 371.892 394.11 372.157 394.11H392.077Z" fill="white"/>
<path d="M353.857 394.11H367.987C368.252 394.11 368.507 394.004 368.694 393.817C368.882 393.629 368.987 393.375 368.987 393.11C368.987 392.844 368.882 392.59 368.694 392.403C368.507 392.215 368.252 392.11 367.987 392.11H353.857C353.592 392.11 353.337 392.215 353.15 392.403C352.962 392.59 352.857 392.844 352.857 393.11C352.857 393.375 352.962 393.629 353.15 393.817C353.337 394.004 353.592 394.11 353.857 394.11Z" fill="white"/>
<path opacity="0.5" d="M340.267 394.11H347.787C348.052 394.11 348.307 394.004 348.494 393.817C348.682 393.629 348.787 393.375 348.787 393.11C348.787 392.844 348.682 392.59 348.494 392.403C348.307 392.215 348.052 392.11 347.787 392.11H340.267C340.002 392.11 339.748 392.215 339.56 392.403C339.372 392.59 339.267 392.844 339.267 393.11C339.267 393.375 339.372 393.629 339.56 393.817C339.748 394.004 340.002 394.11 340.267 394.11Z" fill="white"/>
<path d="M383.077 399.44C383.077 399.174 382.972 398.92 382.784 398.733C382.597 398.545 382.342 398.44 382.077 398.44H353.757C353.492 398.44 353.237 398.545 353.05 398.733C352.862 398.92 352.757 399.174 352.757 399.44C352.757 399.705 352.862 399.959 353.05 400.147C353.237 400.334 353.492 400.44 353.757 400.44H382.077C382.342 400.44 382.597 400.334 382.784 400.147C382.972 399.959 383.077 399.705 383.077 399.44Z" fill="white"/>
<path opacity="0.5" d="M340.267 400.44H347.867C348.132 400.44 348.387 400.334 348.574 400.147C348.762 399.959 348.867 399.705 348.867 399.44C348.867 399.174 348.762 398.92 348.574 398.733C348.387 398.545 348.132 398.44 347.867 398.44H340.267C340.002 398.44 339.748 398.545 339.56 398.733C339.372 398.92 339.267 399.174 339.267 399.44C339.267 399.705 339.372 399.959 339.56 400.147C339.748 400.334 340.002 400.44 340.267 400.44Z" fill="white"/>
<path d="M373.157 406.77H402.157C402.422 406.77 402.677 406.664 402.864 406.477C403.052 406.289 403.157 406.035 403.157 405.77C403.157 405.504 403.052 405.25 402.864 405.063C402.677 404.875 402.422 404.77 402.157 404.77H373.157C372.892 404.77 372.638 404.875 372.45 405.063C372.262 405.25 372.157 405.504 372.157 405.77C372.157 406.035 372.262 406.289 372.45 406.477C372.638 406.664 372.892 406.77 373.157 406.77Z" fill="white"/>
<path d="M353.777 404.77C353.512 404.77 353.258 404.875 353.07 405.063C352.882 405.25 352.777 405.504 352.777 405.77C352.777 406.035 352.882 406.289 353.07 406.477C353.258 406.664 353.512 406.77 353.777 406.77H366.947C367.212 406.77 367.467 406.664 367.654 406.477C367.842 406.289 367.947 406.035 367.947 405.77C367.947 405.504 367.842 405.25 367.654 405.063C367.467 404.875 367.212 404.77 366.947 404.77H353.777Z" fill="white"/>
<path opacity="0.5" d="M340.267 406.77H347.777C348.042 406.77 348.297 406.664 348.484 406.477C348.672 406.289 348.777 406.035 348.777 405.77C348.777 405.504 348.672 405.25 348.484 405.063C348.297 404.875 348.042 404.77 347.777 404.77H340.267C340.002 404.77 339.748 404.875 339.56 405.063C339.372 405.25 339.267 405.504 339.267 405.77C339.267 406.035 339.372 406.289 339.56 406.477C339.748 406.664 340.002 406.77 340.267 406.77Z" fill="white"/>
<path d="M365.077 411.1H358.547C358.282 411.1 358.028 411.205 357.84 411.393C357.652 411.58 357.547 411.834 357.547 412.1C357.547 412.365 357.652 412.619 357.84 412.807C358.028 412.994 358.282 413.1 358.547 413.1H365.077C365.342 413.1 365.597 412.994 365.784 412.807C365.972 412.619 366.077 412.365 366.077 412.1C366.077 411.834 365.972 411.58 365.784 411.393C365.597 411.205 365.342 411.1 365.077 411.1Z" fill="white"/>
<path d="M353.887 411.1H340.267C340.002 411.1 339.748 411.205 339.56 411.393C339.372 411.58 339.267 411.834 339.267 412.1C339.267 412.365 339.372 412.619 339.56 412.807C339.748 412.994 340.002 413.1 340.267 413.1H353.887C354.152 413.1 354.407 412.994 354.594 412.807C354.782 412.619 354.887 412.365 354.887 412.1C354.887 411.834 354.782 411.58 354.594 411.393C354.407 411.205 354.152 411.1 353.887 411.1Z" fill="white"/>
<path d="M396.757 418.43C396.757 418.695 396.862 418.949 397.05 419.137C397.237 419.324 397.492 419.43 397.757 419.43H451.077C451.342 419.43 451.597 419.324 451.784 419.137C451.972 418.949 452.077 418.695 452.077 418.43C452.077 418.164 451.972 417.91 451.784 417.723C451.597 417.535 451.342 417.43 451.077 417.43H397.757C397.492 417.43 397.237 417.535 397.05 417.723C396.862 417.91 396.757 418.164 396.757 418.43Z" fill="white"/>
<path opacity="0.5" d="M382.267 417.43C382.002 417.43 381.748 417.535 381.56 417.723C381.372 417.91 381.267 418.164 381.267 418.43C381.267 418.695 381.372 418.949 381.56 419.137C381.748 419.324 382.002 419.43 382.267 419.43H392.357C392.622 419.43 392.877 419.324 393.064 419.137C393.252 418.949 393.357 418.695 393.357 418.43C393.357 418.164 393.252 417.91 393.064 417.723C392.877 417.535 392.622 417.43 392.357 417.43H382.267Z" fill="white"/>
<path opacity="0.5" d="M451.077 423.76H438.077C437.812 423.76 437.558 423.865 437.37 424.053C437.182 424.24 437.077 424.494 437.077 424.76C437.077 425.025 437.182 425.279 437.37 425.467C437.558 425.654 437.812 425.76 438.077 425.76H451.077C451.342 425.76 451.597 425.654 451.784 425.467C451.972 425.279 452.077 425.025 452.077 424.76C452.077 424.494 451.972 424.24 451.784 424.053C451.597 423.865 451.342 423.76 451.077 423.76Z" fill="white"/>
<path d="M432.637 424.76C432.637 424.494 432.532 424.24 432.344 424.053C432.157 423.865 431.902 423.76 431.637 423.76H377.267C377.002 423.76 376.748 423.865 376.56 424.053C376.372 424.24 376.267 424.494 376.267 424.76C376.267 425.025 376.372 425.279 376.56 425.467C376.748 425.654 377.002 425.76 377.267 425.76H431.637C431.902 425.76 432.157 425.654 432.344 425.467C432.532 425.279 432.637 425.025 432.637 424.76Z" fill="white"/>
<path d="M451.077 430.09H427.527C427.262 430.09 427.008 430.195 426.82 430.383C426.632 430.57 426.527 430.824 426.527 431.09C426.527 431.355 426.632 431.609 426.82 431.797C427.008 431.984 427.262 432.09 427.527 432.09H451.077C451.342 432.09 451.597 431.984 451.784 431.797C451.972 431.609 452.077 431.355 452.077 431.09C452.077 430.824 451.972 430.57 451.784 430.383C451.597 430.195 451.342 430.09 451.077 430.09Z" fill="white"/>
<path opacity="0.5" d="M416.267 430.09C416.002 430.09 415.748 430.195 415.56 430.383C415.372 430.57 415.267 430.824 415.267 431.09C415.267 431.355 415.372 431.609 415.56 431.797C415.748 431.984 416.002 432.09 416.267 432.09H422.157C422.422 432.09 422.677 431.984 422.864 431.797C423.052 431.609 423.157 431.355 423.157 431.09C423.157 430.824 423.052 430.57 422.864 430.383C422.677 430.195 422.422 430.09 422.157 430.09H416.267Z" fill="white"/>
<path d="M451.077 436.42H404.267C404.002 436.42 403.748 436.525 403.56 436.713C403.372 436.9 403.267 437.154 403.267 437.42C403.267 437.685 403.372 437.939 403.56 438.127C403.748 438.314 404.002 438.42 404.267 438.42H451.077C451.342 438.42 451.597 438.314 451.784 438.127C451.972 437.939 452.077 437.685 452.077 437.42C452.077 437.154 451.972 436.9 451.784 436.713C451.597 436.525 451.342 436.42 451.077 436.42Z" fill="white"/>
<path d="M383.607 436.42H367.267C367.002 436.42 366.748 436.525 366.56 436.713C366.372 436.9 366.267 437.154 366.267 437.42C366.267 437.685 366.372 437.939 366.56 438.127C366.748 438.314 367.002 438.42 367.267 438.42H383.607C383.872 438.42 384.127 438.314 384.314 438.127C384.502 437.939 384.607 437.685 384.607 437.42C384.607 437.154 384.502 436.9 384.314 436.713C384.127 436.525 383.872 436.42 383.607 436.42Z" fill="white"/>
<path opacity="0.2" d="M399.407 399.66V451.92H334.777C334.476 451.921 334.178 451.863 333.899 451.748C333.621 451.633 333.368 451.465 333.155 451.252C332.942 451.039 332.773 450.786 332.659 450.508C332.544 450.229 332.486 449.931 332.487 449.63V395.21H394.957C396.137 395.21 397.269 395.678 398.104 396.513C398.938 397.348 399.407 398.479 399.407 399.66Z" fill="black"/>
<path d="M388.867 399.08H248.917C247.652 399.08 246.627 400.105 246.627 401.37V488.53C246.627 489.794 247.652 490.82 248.917 490.82H388.867C390.132 490.82 391.157 489.794 391.157 488.53V401.37C391.157 400.105 390.132 399.08 388.867 399.08Z" fill="#407BFF"/>
<path opacity="0.6" d="M388.867 399.08H248.917C247.652 399.08 246.627 400.105 246.627 401.37V488.53C246.627 489.794 247.652 490.82 248.917 490.82H388.867C390.132 490.82 391.157 489.794 391.157 488.53V401.37C391.157 400.105 390.132 399.08 388.867 399.08Z" fill="white"/>
<path d="M388.787 408.4H249.007V488.24H388.787V408.4Z" fill="#263238"/>
<path d="M276.777 425.16H254.407C254.142 425.16 253.888 425.265 253.7 425.453C253.512 425.64 253.407 425.894 253.407 426.16C253.407 426.425 253.512 426.679 253.7 426.867C253.888 427.054 254.142 427.16 254.407 427.16H276.777C277.042 427.16 277.297 427.054 277.484 426.867C277.672 426.679 277.777 426.425 277.777 426.16C277.777 425.894 277.672 425.64 277.484 425.453C277.297 425.265 277.042 425.16 276.777 425.16Z" fill="white"/>
<path d="M276.777 431.4H257.407C257.142 431.4 256.888 431.505 256.7 431.693C256.512 431.88 256.407 432.134 256.407 432.4C256.407 432.665 256.512 432.919 256.7 433.107C256.888 433.294 257.142 433.4 257.407 433.4H276.777C277.042 433.4 277.297 433.294 277.484 433.107C277.672 432.919 277.777 432.665 277.777 432.4C277.777 432.134 277.672 431.88 277.484 431.693C277.297 431.505 277.042 431.4 276.777 431.4Z" fill="white"/>
<path opacity="0.5" d="M276.777 437.64H254.407C254.142 437.64 253.888 437.745 253.7 437.933C253.512 438.12 253.407 438.374 253.407 438.64C253.407 438.905 253.512 439.159 253.7 439.347C253.888 439.534 254.142 439.64 254.407 439.64H276.777C277.042 439.64 277.297 439.534 277.484 439.347C277.672 439.159 277.777 438.905 277.777 438.64C277.777 438.374 277.672 438.12 277.484 437.933C277.297 437.745 277.042 437.64 276.777 437.64Z" fill="white"/>
<path d="M276.777 443.88H263.407C263.142 443.88 262.888 443.985 262.7 444.173C262.512 444.36 262.407 444.614 262.407 444.88C262.407 445.145 262.512 445.399 262.7 445.587C262.888 445.774 263.142 445.88 263.407 445.88H276.777C277.042 445.88 277.297 445.774 277.484 445.587C277.672 445.399 277.777 445.145 277.777 444.88C277.777 444.614 277.672 444.36 277.484 444.173C277.297 443.985 277.042 443.88 276.777 443.88Z" fill="white"/>
<path d="M276.777 450.12H254.407C254.142 450.12 253.888 450.225 253.7 450.413C253.512 450.6 253.407 450.854 253.407 451.12C253.407 451.385 253.512 451.639 253.7 451.827C253.888 452.014 254.142 452.12 254.407 452.12H276.777C277.042 452.12 277.297 452.014 277.484 451.827C277.672 451.639 277.777 451.385 277.777 451.12C277.777 450.854 277.672 450.6 277.484 450.413C277.297 450.225 277.042 450.12 276.777 450.12Z" fill="white"/>
<path d="M276.777 456.36H258.407C258.142 456.36 257.888 456.465 257.7 456.653C257.512 456.84 257.407 457.094 257.407 457.36C257.407 457.625 257.512 457.879 257.7 458.067C257.888 458.254 258.142 458.36 258.407 458.36H276.777C277.042 458.36 277.297 458.254 277.484 458.067C277.672 457.879 277.777 457.625 277.777 457.36C277.777 457.094 277.672 456.84 277.484 456.653C277.297 456.465 277.042 456.36 276.777 456.36Z" fill="white"/>
<path d="M276.777 462.6H258.407C258.142 462.6 257.888 462.705 257.7 462.893C257.512 463.08 257.407 463.334 257.407 463.6C257.407 463.865 257.512 464.119 257.7 464.307C257.888 464.494 258.142 464.6 258.407 464.6H276.777C277.042 464.6 277.297 464.494 277.484 464.307C277.672 464.119 277.777 463.865 277.777 463.6C277.777 463.334 277.672 463.08 277.484 462.893C277.297 462.705 277.042 462.6 276.777 462.6Z" fill="white"/>
<path d="M276.777 468.84H256.407C256.142 468.84 255.888 468.945 255.7 469.133C255.512 469.32 255.407 469.574 255.407 469.84C255.407 470.105 255.512 470.359 255.7 470.547C255.888 470.734 256.142 470.84 256.407 470.84H276.777C277.042 470.84 277.297 470.734 277.484 470.547C277.672 470.359 277.777 470.105 277.777 469.84C277.777 469.574 277.672 469.32 277.484 469.133C277.297 468.945 277.042 468.84 276.777 468.84Z" fill="white"/>
<path opacity="0.5" d="M276.777 475.08H263.407C263.142 475.08 262.888 475.185 262.7 475.373C262.512 475.56 262.407 475.814 262.407 476.08C262.407 476.345 262.512 476.599 262.7 476.787C262.888 476.974 263.142 477.08 263.407 477.08H276.777C277.042 477.08 277.297 476.974 277.484 476.787C277.672 476.599 277.777 476.345 277.777 476.08C277.777 475.814 277.672 475.56 277.484 475.373C277.297 475.185 277.042 475.08 276.777 475.08Z" fill="white"/>
<path opacity="0.5" d="M276.777 418.92H260.407C260.142 418.92 259.888 419.025 259.7 419.213C259.512 419.4 259.407 419.654 259.407 419.92C259.407 420.185 259.512 420.439 259.7 420.627C259.888 420.814 260.142 420.92 260.407 420.92H276.777C277.042 420.92 277.297 420.814 277.484 420.627C277.672 420.439 277.777 420.185 277.777 419.92C277.777 419.654 277.672 419.4 277.484 419.213C277.297 419.025 277.042 418.92 276.777 418.92Z" fill="white"/>
<path d="M276.777 412.68H254.407C254.142 412.68 253.888 412.785 253.7 412.973C253.512 413.16 253.407 413.414 253.407 413.68C253.407 413.945 253.512 414.199 253.7 414.387C253.888 414.574 254.142 414.68 254.407 414.68H276.777C277.042 414.68 277.297 414.574 277.484 414.387C277.672 414.199 277.777 413.945 277.777 413.68C277.777 413.414 277.672 413.16 277.484 412.973C277.297 412.785 277.042 412.68 276.777 412.68Z" fill="white"/>
<path d="M276.777 481.31H254.407C254.142 481.31 253.888 481.415 253.7 481.603C253.512 481.79 253.407 482.044 253.407 482.31C253.407 482.575 253.512 482.829 253.7 483.017C253.888 483.204 254.142 483.31 254.407 483.31H276.777C277.042 483.31 277.297 483.204 277.484 483.017C277.672 482.829 277.777 482.575 277.777 482.31C277.777 482.044 277.672 481.79 277.484 481.603C277.297 481.415 277.042 481.31 276.777 481.31Z" fill="white"/>
<path opacity="0.5" d="M288.777 424.91H284.407V427.41H288.777V424.91Z" fill="white"/>
<path opacity="0.5" d="M288.777 431.15H284.407V433.65H288.777V431.15Z" fill="white"/>
<path opacity="0.5" d="M288.777 437.39H284.407V439.89H288.777V437.39Z" fill="white"/>
<path opacity="0.5" d="M288.777 443.63H284.407V446.13H288.777V443.63Z" fill="white"/>
<path opacity="0.5" d="M288.777 449.87H284.407V452.37H288.777V449.87Z" fill="white"/>
<path opacity="0.5" d="M288.777 456.11H284.407V458.61H288.777V456.11Z" fill="white"/>
<path opacity="0.5" d="M288.777 462.35H284.407V464.85H288.777V462.35Z" fill="white"/>
<path opacity="0.5" d="M288.777 468.59H284.407V471.09H288.777V468.59Z" fill="white"/>
<path opacity="0.5" d="M288.777 474.83H284.407V477.33H288.777V474.83Z" fill="white"/>
<path opacity="0.5" d="M288.777 418.67H284.407V421.17H288.777V418.67Z" fill="white"/>
<path opacity="0.5" d="M288.777 412.43H284.407V414.93H288.777V412.43Z" fill="white"/>
<path opacity="0.5" d="M288.777 481.07H284.407V483.57H288.777V481.07Z" fill="white"/>
<path d="M311.407 426.16C311.407 426.425 311.512 426.679 311.7 426.867C311.888 427.054 312.142 427.16 312.407 427.16H384.777C385.042 427.16 385.297 427.054 385.484 426.867C385.672 426.679 385.777 426.425 385.777 426.16C385.777 425.894 385.672 425.64 385.484 425.453C385.297 425.265 385.042 425.16 384.777 425.16H312.407C312.142 425.16 311.888 425.265 311.7 425.453C311.512 425.64 311.407 425.894 311.407 426.16Z" fill="white"/>
<path d="M384.777 431.4H345.157C344.892 431.4 344.638 431.505 344.45 431.693C344.262 431.88 344.157 432.134 344.157 432.4C344.157 432.665 344.262 432.919 344.45 433.107C344.638 433.294 344.892 433.4 345.157 433.4H384.787C385.052 433.4 385.307 433.294 385.494 433.107C385.682 432.919 385.787 432.665 385.787 432.4C385.787 432.134 385.682 431.88 385.494 431.693C385.307 431.505 385.052 431.4 384.787 431.4H384.777Z" fill="white"/>
<path opacity="0.5" d="M335.737 431.4H323.407C323.142 431.4 322.888 431.505 322.7 431.693C322.512 431.88 322.407 432.134 322.407 432.4C322.407 432.665 322.512 432.919 322.7 433.107C322.888 433.294 323.142 433.4 323.407 433.4H335.737C336.002 433.4 336.257 433.294 336.444 433.107C336.632 432.919 336.737 432.665 336.737 432.4C336.737 432.134 336.632 431.88 336.444 431.693C336.257 431.505 336.002 431.4 335.737 431.4Z" fill="white"/>
<path d="M360.777 437.64H305.777C305.512 437.64 305.257 437.745 305.07 437.933C304.882 438.12 304.777 438.374 304.777 438.64C304.777 438.905 304.882 439.159 305.07 439.347C305.257 439.534 305.512 439.64 305.777 439.64H360.777C361.042 439.64 361.297 439.534 361.484 439.347C361.672 439.159 361.777 438.905 361.777 438.64C361.777 438.374 361.672 438.12 361.484 437.933C361.297 437.745 361.042 437.64 360.777 437.64Z" fill="white"/>
<path opacity="0.5" d="M294.407 439.64H298.307C298.572 439.64 298.827 439.534 299.014 439.347C299.202 439.159 299.307 438.905 299.307 438.64C299.307 438.374 299.202 438.12 299.014 437.933C298.827 437.745 298.572 437.64 298.307 437.64H294.407C294.142 437.64 293.888 437.745 293.7 437.933C293.512 438.12 293.407 438.374 293.407 438.64C293.407 438.905 293.512 439.159 293.7 439.347C293.888 439.534 294.142 439.64 294.407 439.64Z" fill="white"/>
<path d="M367.777 444.88C367.777 444.614 367.672 444.36 367.484 444.173C367.297 443.985 367.042 443.88 366.777 443.88H315.777C315.512 443.88 315.257 443.985 315.07 444.173C314.882 444.36 314.777 444.614 314.777 444.88C314.777 445.145 314.882 445.399 315.07 445.587C315.257 445.774 315.512 445.88 315.777 445.88H366.777C367.042 445.88 367.297 445.774 367.484 445.587C367.672 445.399 367.777 445.145 367.777 444.88Z" fill="white"/>
<path d="M294.407 445.88H308.797C309.062 445.88 309.317 445.774 309.504 445.587C309.692 445.399 309.797 445.145 309.797 444.88C309.797 444.614 309.692 444.36 309.504 444.173C309.317 443.985 309.062 443.88 308.797 443.88H294.407C294.142 443.88 293.888 443.985 293.7 444.173C293.512 444.36 293.407 444.614 293.407 444.88C293.407 445.145 293.512 445.399 293.7 445.587C293.888 445.774 294.142 445.88 294.407 445.88Z" fill="white"/>
<path d="M294.407 452.12H348.777C349.042 452.12 349.297 452.014 349.484 451.827C349.672 451.639 349.777 451.385 349.777 451.12C349.777 450.854 349.672 450.6 349.484 450.413C349.297 450.225 349.042 450.12 348.777 450.12H294.407C294.142 450.12 293.888 450.225 293.7 450.413C293.512 450.6 293.407 450.854 293.407 451.12C293.407 451.385 293.512 451.639 293.7 451.827C293.888 452.014 294.142 452.12 294.407 452.12Z" fill="white"/>
<path d="M329.577 456.36C329.312 456.36 329.058 456.465 328.87 456.653C328.682 456.84 328.577 457.094 328.577 457.36C328.577 457.625 328.682 457.879 328.87 458.067C329.058 458.254 329.312 458.36 329.577 458.36H357.777C358.042 458.36 358.297 458.254 358.484 458.067C358.672 457.879 358.777 457.625 358.777 457.36C358.777 457.094 358.672 456.84 358.484 456.653C358.297 456.465 358.042 456.36 357.777 456.36H329.577Z" fill="white"/>
<path d="M294.407 458.36H318.817C319.082 458.36 319.337 458.254 319.524 458.067C319.712 457.879 319.817 457.625 319.817 457.36C319.817 457.094 319.712 456.84 319.524 456.653C319.337 456.465 319.082 456.36 318.817 456.36H294.407C294.142 456.36 293.888 456.465 293.7 456.653C293.512 456.84 293.407 457.094 293.407 457.36C293.407 457.625 293.512 457.879 293.7 458.067C293.888 458.254 294.142 458.36 294.407 458.36Z" fill="white"/>
<path d="M384.777 462.6H318.407C318.142 462.6 317.888 462.705 317.7 462.893C317.512 463.08 317.407 463.334 317.407 463.6C317.407 463.865 317.512 464.119 317.7 464.307C317.888 464.494 318.142 464.6 318.407 464.6H384.777C385.042 464.6 385.297 464.494 385.484 464.307C385.672 464.119 385.777 463.865 385.777 463.6C385.777 463.334 385.672 463.08 385.484 462.893C385.297 462.705 385.042 462.6 384.777 462.6Z" fill="white"/>
<path d="M384.777 468.84H327.407C327.142 468.84 326.888 468.945 326.7 469.133C326.512 469.32 326.407 469.574 326.407 469.84C326.407 470.105 326.512 470.359 326.7 470.547C326.888 470.734 327.142 470.84 327.407 470.84H384.777C385.042 470.84 385.297 470.734 385.484 470.547C385.672 470.359 385.777 470.105 385.777 469.84C385.777 469.574 385.672 469.32 385.484 469.133C385.297 468.945 385.042 468.84 384.777 468.84Z" fill="white"/>
<path opacity="0.5" d="M384.777 475.08H372.977C372.712 475.08 372.457 475.185 372.27 475.373C372.082 475.56 371.977 475.814 371.977 476.08C371.977 476.345 372.082 476.599 372.27 476.787C372.457 476.974 372.712 477.08 372.977 477.08H384.777C385.042 477.08 385.297 476.974 385.484 476.787C385.672 476.599 385.777 476.345 385.777 476.08C385.777 475.814 385.672 475.56 385.484 475.373C385.297 475.185 385.042 475.08 384.777 475.08Z" fill="white"/>
<path d="M364.727 475.08H321.407C321.142 475.08 320.888 475.185 320.7 475.373C320.512 475.56 320.407 475.814 320.407 476.08C320.407 476.345 320.512 476.599 320.7 476.787C320.888 476.974 321.142 477.08 321.407 477.08H364.727C364.992 477.08 365.247 476.974 365.434 476.787C365.622 476.599 365.727 476.345 365.727 476.08C365.727 475.814 365.622 475.56 365.434 475.373C365.247 475.185 364.992 475.08 364.727 475.08Z" fill="white"/>
<path d="M294.407 420.92H340.777C341.042 420.92 341.297 420.814 341.484 420.627C341.672 420.439 341.777 420.185 341.777 419.92C341.777 419.654 341.672 419.4 341.484 419.213C341.297 419.025 341.042 418.92 340.777 418.92H294.407C294.142 418.92 293.888 419.025 293.7 419.213C293.512 419.4 293.407 419.654 293.407 419.92C293.407 420.185 293.512 420.439 293.7 420.627C293.888 420.814 294.142 420.92 294.407 420.92Z" fill="white"/>
<path d="M294.407 414.68H366.777C367.042 414.68 367.297 414.574 367.484 414.387C367.672 414.199 367.777 413.945 367.777 413.68C367.777 413.414 367.672 413.16 367.484 412.973C367.297 412.785 367.042 412.68 366.777 412.68H294.407C294.142 412.68 293.888 412.785 293.7 412.973C293.512 413.16 293.407 413.414 293.407 413.68C293.407 413.945 293.512 414.199 293.7 414.387C293.888 414.574 294.142 414.68 294.407 414.68Z" fill="white"/>
<path d="M361.777 481.31H331.057C330.792 481.31 330.538 481.415 330.35 481.603C330.162 481.79 330.057 482.044 330.057 482.31C330.057 482.575 330.162 482.829 330.35 483.017C330.538 483.204 330.792 483.31 331.057 483.31H361.777C362.042 483.31 362.297 483.204 362.484 483.017C362.672 482.829 362.777 482.575 362.777 482.31C362.777 482.044 362.672 481.79 362.484 481.603C362.297 481.415 362.042 481.31 361.777 481.31Z" fill="white"/>
<path opacity="0.5" d="M322.347 481.31H294.407C294.142 481.31 293.888 481.415 293.7 481.603C293.512 481.79 293.407 482.044 293.407 482.31C293.407 482.575 293.512 482.829 293.7 483.017C293.888 483.204 294.142 483.31 294.407 483.31H322.347C322.612 483.31 322.867 483.204 323.054 483.017C323.242 482.829 323.347 482.575 323.347 482.31C323.347 482.044 323.242 481.79 323.054 481.603C322.867 481.415 322.612 481.31 322.347 481.31Z" fill="white"/>
<path opacity="0.5" d="M351.067 420.92C351.332 420.92 351.587 420.814 351.774 420.627C351.962 420.439 352.067 420.185 352.067 419.92C352.067 419.654 351.962 419.4 351.774 419.213C351.587 419.025 351.332 418.92 351.067 418.92H347.467C347.202 418.92 346.948 419.025 346.76 419.213C346.572 419.4 346.467 419.654 346.467 419.92C346.467 420.185 346.572 420.439 346.76 420.627C346.948 420.814 347.202 420.92 347.467 420.92H351.067Z" fill="white"/>
<path opacity="0.5" d="M307.237 426.16C307.237 425.894 307.132 425.64 306.944 425.453C306.757 425.265 306.502 425.16 306.237 425.16H301.407C301.142 425.16 300.888 425.265 300.7 425.453C300.512 425.64 300.407 425.894 300.407 426.16C300.407 426.425 300.512 426.679 300.7 426.867C300.888 427.054 301.142 427.16 301.407 427.16H306.237C306.502 427.16 306.757 427.054 306.944 426.867C307.132 426.679 307.237 426.425 307.237 426.16Z" fill="white"/>
<path opacity="0.5" d="M362.377 451.12C362.377 450.854 362.272 450.6 362.084 450.413C361.897 450.225 361.642 450.12 361.377 450.12H356.097C355.832 450.12 355.577 450.225 355.39 450.413C355.202 450.6 355.097 450.854 355.097 451.12C355.097 451.385 355.202 451.639 355.39 451.827C355.577 452.014 355.832 452.12 356.097 452.12H361.377C361.642 452.12 361.897 452.014 362.084 451.827C362.272 451.639 362.377 451.385 362.377 451.12Z" fill="white"/>
<path opacity="0.5" d="M379.687 445.88C379.952 445.88 380.207 445.774 380.394 445.587C380.582 445.399 380.687 445.145 380.687 444.88C380.687 444.614 380.582 444.36 380.394 444.173C380.207 443.985 379.952 443.88 379.687 443.88H375.397C375.132 443.88 374.878 443.985 374.69 444.173C374.502 444.36 374.397 444.614 374.397 444.88C374.397 445.145 374.502 445.399 374.69 445.587C374.878 445.774 375.132 445.88 375.397 445.88H379.687Z" fill="white"/>
<path opacity="0.5" d="M310.367 462.6C310.102 462.6 309.848 462.705 309.66 462.893C309.472 463.08 309.367 463.334 309.367 463.6C309.367 463.865 309.472 464.119 309.66 464.307C309.848 464.494 310.102 464.6 310.367 464.6H314.677C314.942 464.6 315.197 464.494 315.384 464.307C315.572 464.119 315.677 463.865 315.677 463.6C315.677 463.334 315.572 463.08 315.384 462.893C315.197 462.705 314.942 462.6 314.677 462.6H310.367Z" fill="white"/>
<path d="M202.757 448.32H169.687C167.809 448.32 166.287 449.842 166.287 451.72V469.61C166.287 471.487 167.809 473.01 169.687 473.01H202.757C204.635 473.01 206.157 471.487 206.157 469.61V451.72C206.157 449.842 204.635 448.32 202.757 448.32Z" fill="#407BFF"/>
<path d="M192.267 471.76C192.267 471.76 193.777 478.65 202.577 481.32C202.577 481.32 197.997 477.18 199.027 471.76H192.267Z" fill="#407BFF"/>
<path d="M171.497 452.21V456.36H171.067V452.59H170.067V452.21H171.497Z" fill="white"/>
<path d="M172.477 454.31C172.477 452.99 173.177 452.21 174.137 452.21C175.097 452.21 175.787 452.99 175.787 454.31C175.787 455.63 175.097 456.42 174.137 456.42C173.177 456.42 172.477 455.6 172.477 454.31ZM175.357 454.31C175.357 453.21 174.857 452.6 174.137 452.6C173.417 452.6 172.917 453.21 172.917 454.31C172.917 455.41 173.407 456.03 174.137 456.03C174.867 456.03 175.357 455.39 175.357 454.31Z" fill="white"/>
<path d="M176.397 454.31C176.397 452.99 177.087 452.21 178.047 452.21C179.007 452.21 179.707 452.99 179.707 454.31C179.707 455.63 179.007 456.42 178.047 456.42C177.087 456.42 176.397 455.6 176.397 454.31ZM179.267 454.31C179.267 453.21 178.777 452.6 178.047 452.6C177.317 452.6 176.827 453.21 176.827 454.31C176.827 455.41 177.327 456.03 178.047 456.03C178.767 456.03 179.267 455.39 179.267 454.31Z" fill="white"/>
<path d="M181.457 452.21V456.36H181.027V452.59H180.027V452.21H181.457Z" fill="white"/>
<path d="M183.587 452.21V456.36H183.157V452.59H182.157V452.21H183.587Z" fill="white"/>
<path d="M184.577 454.31C184.577 452.99 185.267 452.21 186.227 452.21C187.187 452.21 187.887 452.99 187.887 454.31C187.887 455.63 187.187 456.42 186.227 456.42C185.267 456.42 184.577 455.6 184.577 454.31ZM187.447 454.31C187.447 453.21 186.947 452.6 186.227 452.6C185.507 452.6 185.007 453.21 185.007 454.31C185.007 455.41 185.507 456.03 186.227 456.03C186.947 456.03 187.447 455.39 187.447 454.31Z" fill="white"/>
<path d="M189.637 452.21V456.36H189.207V452.59H188.207V452.21H189.637Z" fill="white"/>
<path d="M190.617 454.31C190.617 452.99 191.317 452.21 192.267 452.21C193.217 452.21 193.927 452.99 193.927 454.31C193.927 455.63 193.227 456.42 192.267 456.42C191.307 456.42 190.617 455.6 190.617 454.31ZM193.487 454.31C193.487 453.21 192.997 452.6 192.267 452.6C191.537 452.6 191.057 453.21 191.057 454.31C191.057 455.41 191.547 456.03 192.267 456.03C192.987 456.03 193.487 455.39 193.487 454.31Z" fill="white"/>
<path d="M194.537 454.31C194.537 452.99 195.227 452.21 196.187 452.21C197.147 452.21 197.847 452.99 197.847 454.31C197.847 455.63 197.147 456.42 196.187 456.42C195.227 456.42 194.537 455.6 194.537 454.31ZM197.407 454.31C197.407 453.21 196.907 452.6 196.187 452.6C195.467 452.6 194.967 453.21 194.967 454.31C194.967 455.41 195.467 456.03 196.187 456.03C196.907 456.03 197.407 455.39 197.407 454.31Z" fill="white"/>
<path d="M199.597 452.21V456.36H199.157V452.59H198.157V452.21H199.597Z" fill="white"/>
<path d="M201.727 452.21V456.36H201.307V452.59H200.307V452.21H201.727Z" fill="white"/>
<path d="M170.347 460.31C170.347 458.99 171.037 458.21 171.997 458.21C172.957 458.21 173.657 458.99 173.657 460.31C173.657 461.63 172.957 462.42 171.997 462.42C171.037 462.42 170.347 461.6 170.347 460.31ZM173.217 460.31C173.217 459.21 172.717 458.6 171.997 458.6C171.277 458.6 170.777 459.21 170.777 460.31C170.777 461.41 171.277 462.03 171.997 462.03C172.717 462.03 173.217 461.39 173.217 460.31Z" fill="white"/>
<path d="M174.267 460.31C174.267 458.99 174.957 458.21 175.917 458.21C176.877 458.21 177.567 458.99 177.567 460.31C177.567 461.63 176.877 462.42 175.917 462.42C174.957 462.42 174.267 461.6 174.267 460.31ZM177.137 460.31C177.137 459.21 176.637 458.6 175.917 458.6C175.197 458.6 174.697 459.21 174.697 460.31C174.697 461.41 175.197 462.03 175.917 462.03C176.637 462.03 177.157 461.39 177.157 460.31H177.137Z" fill="white"/>
<path d="M179.317 458.21V462.36H178.887V458.59H177.887V458.21H179.317Z" fill="white"/>
<path d="M181.457 458.21V462.36H181.027V458.59H180.027V458.21H181.457Z" fill="white"/>
<path d="M182.437 460.31C182.437 458.99 183.137 458.21 184.097 458.21C185.057 458.21 185.747 458.99 185.747 460.31C185.747 461.63 185.057 462.42 184.097 462.42C183.137 462.42 182.437 461.6 182.437 460.31ZM185.317 460.31C185.317 459.21 184.817 458.6 184.097 458.6C183.377 458.6 182.877 459.21 182.877 460.31C182.877 461.41 183.367 462.03 184.097 462.03C184.827 462.03 185.317 461.39 185.317 460.31Z" fill="white"/>
<path d="M187.497 458.21V462.36H187.067V458.59H186.067V458.21H187.497Z" fill="white"/>
<path d="M188.487 460.31C188.487 458.99 189.177 458.21 190.137 458.21C191.097 458.21 191.797 458.99 191.797 460.31C191.797 461.63 191.097 462.42 190.137 462.42C189.177 462.42 188.487 461.6 188.487 460.31ZM191.357 460.31C191.357 459.21 190.857 458.6 190.137 458.6C189.417 458.6 188.917 459.21 188.917 460.31C188.917 461.41 189.417 462.03 190.137 462.03C190.857 462.03 191.357 461.39 191.357 460.31Z" fill="white"/>
<path d="M192.397 460.31C192.397 458.99 193.097 458.21 194.057 458.21C195.017 458.21 195.707 458.99 195.707 460.31C195.707 461.63 195.007 462.42 194.057 462.42C193.107 462.42 192.397 461.6 192.397 460.31ZM195.277 460.31C195.277 459.21 194.777 458.6 194.057 458.6C193.337 458.6 192.837 459.21 192.837 460.31C192.837 461.41 193.327 462.03 194.057 462.03C194.787 462.03 195.277 461.39 195.277 460.31Z" fill="white"/>
<path d="M197.457 458.21V462.36H197.027V458.59H196.027V458.21H197.457Z" fill="white"/>
<path d="M199.597 458.21V462.36H199.157V458.59H198.157V458.21H199.597Z" fill="white"/>
<path d="M201.727 458.21V462.36H201.307V458.59H200.307V458.21H201.727Z" fill="white"/>
<path d="M171.497 464.21V468.36H171.067V464.59H170.067V464.21H171.497Z" fill="white"/>
<path d="M173.627 464.21V468.36H173.207V464.59H172.207V464.21H173.627Z" fill="white"/>
<path d="M174.617 466.31C174.617 464.99 175.307 464.21 176.267 464.21C177.227 464.21 177.927 464.99 177.927 466.31C177.927 467.63 177.227 468.42 176.267 468.42C175.307 468.42 174.617 467.6 174.617 466.31ZM177.487 466.31C177.487 465.21 176.997 464.6 176.267 464.6C175.537 464.6 175.047 465.21 175.047 466.31C175.047 467.41 175.547 468.03 176.267 468.03C176.987 468.03 177.487 467.39 177.487 466.31Z" fill="white"/>
<path d="M178.537 466.31C178.537 464.99 179.227 464.21 180.187 464.21C181.147 464.21 181.847 464.99 181.847 466.31C181.847 467.63 181.147 468.42 180.187 468.42C179.227 468.42 178.537 467.6 178.537 466.31ZM181.407 466.31C181.407 465.21 180.907 464.6 180.187 464.6C179.467 464.6 178.967 465.21 178.967 466.31C178.967 467.41 179.467 468.03 180.187 468.03C180.907 468.03 181.407 467.39 181.407 466.31Z" fill="white"/>
<path d="M183.587 464.21V468.36H183.157V464.59H182.157V464.21H183.587Z" fill="white"/>
<path d="M185.727 464.21V468.36H185.297V464.59H184.297V464.21H185.727Z" fill="white"/>
<path d="M186.717 466.31C186.717 464.99 187.407 464.21 188.367 464.21C189.327 464.21 190.027 464.99 190.027 466.31C190.027 467.63 189.327 468.42 188.367 468.42C187.407 468.42 186.717 467.6 186.717 466.31ZM189.587 466.31C189.587 465.21 189.087 464.6 188.367 464.6C187.647 464.6 187.157 465.18 187.157 466.31C187.157 467.44 187.657 468.03 188.377 468.03C189.097 468.03 189.587 467.39 189.587 466.31Z" fill="white"/>
<path d="M190.627 466.31C190.627 464.99 191.327 464.21 192.287 464.21C193.247 464.21 193.937 464.99 193.937 466.31C193.937 467.63 193.247 468.42 192.287 468.42C191.327 468.42 190.627 467.6 190.627 466.31ZM193.507 466.31C193.507 465.21 193.007 464.6 192.287 464.6C191.567 464.6 191.067 465.21 191.067 466.31C191.067 467.41 191.557 468.03 192.287 468.03C193.017 468.03 193.507 467.39 193.507 466.31Z" fill="white"/>
<path d="M195.687 464.21V468.36H195.257V464.59H194.257V464.21H195.687Z" fill="white"/>
<path d="M196.677 466.31C196.677 464.99 197.367 464.21 198.327 464.21C199.287 464.21 199.987 464.99 199.987 466.31C199.987 467.63 199.287 468.42 198.327 468.42C197.367 468.42 196.677 467.6 196.677 466.31ZM199.547 466.31C199.547 465.21 199.047 464.6 198.327 464.6C197.607 464.6 197.157 465.18 197.157 466.31C197.157 467.44 197.657 468.03 198.377 468.03C199.097 468.03 199.547 467.39 199.547 466.31Z" fill="white"/>
<path d="M201.727 464.21V468.36H201.307V464.59H200.307V464.21H201.727Z" fill="white"/>
<path d="M139.387 684.17L166.887 681.47V642.82H177.787V681.46L205.397 684.17C206.722 684.299 207.951 684.916 208.845 685.901C209.74 686.886 210.236 688.169 210.237 689.5V693.63H134.557V689.5C134.558 688.17 135.053 686.889 135.945 685.904C136.838 684.919 138.064 684.301 139.387 684.17Z" fill="#263238"/>
<path opacity="0.2" d="M139.387 684.17L166.887 681.47V642.82H177.787V681.46L205.397 684.17C206.722 684.299 207.951 684.916 208.845 685.901C209.74 686.886 210.236 688.169 210.237 689.5V693.63H134.557V689.5C134.558 688.17 135.053 686.889 135.945 685.904C136.838 684.919 138.064 684.301 139.387 684.17Z" fill="white"/>
<path d="M207.327 705.89C211.265 705.89 214.457 702.697 214.457 698.76C214.457 694.822 211.265 691.63 207.327 691.63C203.389 691.63 200.197 694.822 200.197 698.76C200.197 702.697 203.389 705.89 207.327 705.89Z" fill="#263238"/>
<path d="M137.467 705.89C141.405 705.89 144.597 702.697 144.597 698.76C144.597 694.822 141.405 691.63 137.467 691.63C133.529 691.63 130.337 694.822 130.337 698.76C130.337 702.697 133.529 705.89 137.467 705.89Z" fill="#263238"/>
<path d="M175.517 651.13H169.127C168.032 651.13 166.981 650.695 166.207 649.92C165.432 649.145 164.997 648.095 164.997 647V616.71H179.667V647C179.667 647.544 179.56 648.082 179.351 648.585C179.142 649.087 178.836 649.543 178.45 649.927C178.065 650.311 177.607 650.615 177.104 650.821C176.6 651.027 176.061 651.132 175.517 651.13Z" fill="#263238"/>
<path opacity="0.3" d="M175.517 651.13H169.127C168.032 651.13 166.981 650.695 166.207 649.92C165.432 649.145 164.997 648.095 164.997 647V616.71H179.667V647C179.667 647.544 179.56 648.082 179.351 648.585C179.142 649.087 178.836 649.543 178.45 649.927C178.065 650.311 177.607 650.615 177.104 650.821C176.6 651.027 176.061 651.132 175.517 651.13Z" fill="white"/>
<path d="M146.277 556.31C146.277 556.31 144.157 607.83 158.547 616.7H142.157C142.157 616.7 129.477 599.14 133.057 556.31H146.277Z" fill="#263238"/>
<path opacity="0.3" d="M146.277 556.31C146.277 556.31 144.157 607.83 158.547 616.7H142.157C142.157 616.7 129.477 599.14 133.057 556.31H146.277Z" fill="white"/>
<path d="M141.587 609.49H205.007C206.333 609.49 207.605 610.016 208.543 610.954C209.48 611.892 210.007 613.164 210.007 614.49V620.65H136.587V614.49C136.587 613.164 137.114 611.892 138.052 610.954C138.989 610.016 140.261 609.49 141.587 609.49Z" fill="#263238"/>
<path d="M211.067 615.07H135.537C134.427 615.07 133.527 615.97 133.527 617.08V618.64C133.527 619.75 134.427 620.65 135.537 620.65H211.067C212.177 620.65 213.077 619.75 213.077 618.64V617.08C213.077 615.97 212.177 615.07 211.067 615.07Z" fill="#263238"/>
<path opacity="0.6" d="M211.067 615.07H135.537C134.427 615.07 133.527 615.97 133.527 617.08V618.64C133.527 619.75 134.427 620.65 135.537 620.65H211.067C212.177 620.65 213.077 619.75 213.077 618.64V617.08C213.077 615.97 212.177 615.07 211.067 615.07Z" fill="white"/>
<path d="M129.697 566.76H154.627C162.679 566.76 169.207 560.232 169.207 552.18V543.23C169.207 535.177 162.679 528.65 154.627 528.65H129.697C121.645 528.65 115.117 535.177 115.117 543.23V552.18C115.117 560.232 121.645 566.76 129.697 566.76Z" fill="#263238"/>
<path d="M201.287 698.66L209.257 697.57L210.357 678.63L202.407 679.74L201.287 698.66Z" fill="#EBB376"/>
<path opacity="0.2" d="M202.407 679.74L210.357 678.64L209.727 689.47L201.787 690.16L202.407 679.74Z" fill="black"/>
<path d="M201.607 587.31L199.667 575.14L155.007 572.47C155.007 572.47 150.257 597.8 153.907 604.55C160.417 616.6 195.527 610.55 205.797 611.71C199.657 636.82 200.257 685.89 200.257 685.89L214.927 687.01C214.927 687.01 226.217 634.13 228.497 609.01C230.037 592.08 215.987 592.51 201.607 587.31Z" fill="#407BFF"/>
<path d="M198.537 686.61L216.167 687.77L217.677 680.22L198.307 679.32L198.537 686.61Z" fill="#407BFF"/>
<path d="M219.667 691.59L227.687 692.18L232.707 673.89L224.697 673.31L219.667 691.59Z" fill="#EBB376"/>
<path d="M228.797 692.54C228.797 692.54 228.797 692.54 228.797 692.6H228.857C229.492 692.951 230.162 693.232 230.857 693.44C231.36 693.63 231.915 693.63 232.417 693.44C232.582 693.345 232.717 693.206 232.805 693.037C232.894 692.869 232.933 692.679 232.917 692.49C232.927 692.371 232.908 692.251 232.861 692.141C232.814 692.031 232.74 691.935 232.647 691.86C231.928 691.571 231.13 691.55 230.397 691.8C230.973 691.415 231.392 690.837 231.577 690.17C231.591 690.013 231.551 689.856 231.464 689.725C231.377 689.594 231.247 689.497 231.097 689.45C230.971 689.388 230.833 689.356 230.692 689.356C230.552 689.356 230.413 689.388 230.287 689.45C229.287 689.99 228.937 692.23 228.907 692.35H228.767C228.759 692.382 228.757 692.415 228.762 692.448C228.767 692.48 228.779 692.512 228.797 692.54ZM229.397 692.09L229.217 692.15C229.407 691.41 229.807 690.2 230.397 689.89C230.461 689.85 230.532 689.825 230.606 689.815C230.68 689.804 230.755 689.809 230.827 689.83H230.907C231.157 689.93 231.197 690.08 231.177 690.19C231.157 690.76 230.157 691.66 229.397 692.09ZM229.397 692.51C230.457 692.19 231.927 691.9 232.397 692.24C232.442 692.275 232.478 692.321 232.501 692.373C232.523 692.425 232.532 692.483 232.527 692.54C232.535 692.66 232.51 692.78 232.456 692.887C232.401 692.995 232.319 693.085 232.217 693.15C231.767 693.4 230.737 693.16 229.427 692.51H229.397Z" fill="#407BFF"/>
<path opacity="0.2" d="M224.697 673.31L232.707 673.9L229.837 684.35L221.917 683.38L224.697 673.31Z" fill="black"/>
<path d="M235.427 683.06L221.307 678.91C221.307 678.91 229.737 631.33 238.307 614.83C237.667 614.62 236.817 614.35 235.767 614.04C233.877 613.47 231.367 612.76 228.417 611.94C207.897 606.25 166.307 595.58 166.307 595.58L185.307 577.85C185.307 577.85 260.987 589.39 262.557 609.33C263.287 618.92 235.427 683.06 235.427 683.06Z" fill="#407BFF"/>
<path d="M219.487 679.23L236.487 684.03L239.537 676.96L220.777 672.05L219.487 679.23Z" fill="#407BFF"/>
<path opacity="0.2" d="M235.747 614.04C233.857 613.47 231.347 612.76 228.397 611.94C228.987 607.1 228.997 601.55 226.667 598.72C222.037 593.08 210.127 589.72 203.347 588.57C197.677 587.57 178.627 585.57 178.627 585.57C178.627 585.57 203.347 583.2 228.627 590.57C241.157 594.23 238.677 606.44 235.747 614.04Z" fill="black"/>
<path opacity="0.2" d="M198.537 686.61L216.167 687.77L217.677 680.22L198.307 679.32L198.537 686.61Z" fill="white"/>
<path opacity="0.2" d="M219.487 679.23L236.487 684.03L239.537 676.96L220.777 672.05L219.487 679.23Z" fill="white"/>
<path d="M228.477 691.37L219.787 688.94C219.643 688.895 219.486 688.909 219.352 688.978C219.217 689.047 219.115 689.166 219.067 689.31L216.727 696.07C216.677 696.25 216.664 696.438 216.687 696.623C216.71 696.808 216.77 696.987 216.863 697.149C216.956 697.31 217.081 697.452 217.229 697.566C217.377 697.679 217.547 697.762 217.727 697.81C220.727 698.61 222.257 698.81 226.087 699.87C229.45 700.955 232.885 701.804 236.367 702.41C239.717 702.79 239.997 699.47 238.617 699.01C235.337 697.91 231.417 694.5 229.707 692.17C229.397 691.774 228.964 691.493 228.477 691.37Z" fill="#263238"/>
<path d="M210.047 697.59H210.217C210.217 697.59 210.397 697.65 210.417 697.67C210.437 697.69 210.417 697.67 210.417 697.72H210.487C211.167 697.931 211.868 698.068 212.577 698.13C213.107 698.228 213.654 698.12 214.107 697.83C214.243 697.706 214.341 697.547 214.393 697.37C214.444 697.194 214.445 697.007 214.397 696.83C214.382 696.711 214.337 696.597 214.267 696.5C214.197 696.402 214.105 696.323 213.997 696.27C213.229 696.141 212.44 696.286 211.767 696.68C212.241 696.184 212.522 695.535 212.557 694.85C212.527 694.687 212.444 694.539 212.321 694.429C212.198 694.319 212.042 694.252 211.877 694.24C211.722 694.213 211.564 694.217 211.411 694.253C211.258 694.289 211.114 694.356 210.987 694.45C210.147 695.17 209.987 697.45 209.987 697.58L210.047 697.59ZM210.917 697.13L210.747 697.22C210.699 696.347 210.938 695.483 211.427 694.76C211.481 694.708 211.546 694.669 211.617 694.645C211.688 694.621 211.763 694.612 211.837 694.62H211.927C212.187 694.67 212.257 694.8 212.267 694.91C212.087 695.783 211.61 696.568 210.917 697.13ZM211.027 697.52C212.027 696.99 213.367 696.4 213.887 696.64C213.94 696.663 213.986 696.701 214.02 696.748C214.053 696.796 214.073 696.852 214.077 696.91C214.108 697.025 214.109 697.146 214.079 697.262C214.05 697.378 213.99 697.484 213.907 697.57C213.497 697.92 212.447 697.9 211.027 697.52Z" fill="#407BFF"/>
<path d="M209.857 696.61L200.857 696.05C200.707 696.033 200.557 696.076 200.439 696.17C200.321 696.263 200.245 696.4 200.227 696.55L199.347 703.65C199.322 704.023 199.446 704.391 199.691 704.674C199.937 704.957 200.284 705.131 200.657 705.16C203.797 705.3 205.307 705.21 209.267 705.43C212.781 705.793 216.317 705.907 219.847 705.77C223.197 705.44 222.787 702.14 221.347 701.98C217.907 701.59 213.347 699.06 211.207 697.15C210.829 696.825 210.354 696.635 209.857 696.61Z" fill="#263238"/>
<path d="M219.817 541.88C219.817 541.88 222.337 555.54 226.877 558.17C231.417 560.8 262.817 542.04 262.817 542.04L260.187 536.74C260.187 536.74 233.897 543.84 233.647 543.88C233.397 543.92 232.647 537.88 232.647 537.88L219.817 541.88Z" fill="#263238"/>
<path d="M229.617 520.4C231.687 522.96 234.617 541.88 234.617 541.88L219.197 545.47L215.857 535.89L229.617 520.4Z" fill="#407BFF"/>
<path opacity="0.4" d="M229.617 520.4C231.687 522.96 234.617 541.88 234.617 541.88L219.197 545.47L215.857 535.89L229.617 520.4Z" fill="white"/>
<path d="M150.587 588.24L202.337 579.63C202.337 579.63 205.577 548.89 229.617 520.4C229.617 520.4 221.267 502.16 191.567 504.69C161.867 507.22 150.587 588.24 150.587 588.24Z" fill="#407BFF"/>
<path opacity="0.6" d="M150.587 588.24L202.337 579.63C202.337 579.63 205.577 548.89 229.617 520.4C229.617 520.4 221.267 502.16 191.567 504.69C161.867 507.22 150.587 588.24 150.587 588.24Z" fill="white"/>
<path d="M190.867 530.85C190.867 530.85 190.347 545.07 191.927 545.85C193.507 546.63 223.397 535.79 228.137 535C232.877 534.21 243.747 538.36 243.747 538.36L244.747 544.85C244.747 544.85 235.067 544.66 229.627 542.01C229.627 542.01 194.707 562.89 187.187 561.7C179.667 560.51 177.087 532.31 177.087 532.31L190.867 530.85Z" fill="#EBB376"/>
<path d="M190.867 535.89C190.867 535.89 190.977 544.25 192.717 544.89C194.457 545.53 220.317 536.42 220.317 536.42L224.407 545.89C224.407 545.89 191.727 566.98 185.407 561.79C179.087 556.6 177.497 538.01 177.497 538.01L190.867 535.89Z" fill="#263238"/>
<path d="M186.157 507.88C195.457 506.88 192.097 539.81 192.097 539.81L176.467 542.04C176.467 542.04 169.777 509.6 186.157 507.88Z" fill="#407BFF"/>
<path opacity="0.4" d="M186.157 507.88C195.457 506.88 192.097 539.81 192.097 539.81L176.467 542.04C176.467 542.04 169.777 509.6 186.157 507.88Z" fill="white"/>
<path d="M200.907 505.5C200.907 505.5 200.597 519.96 209.457 521.43C218.317 522.9 219.247 511.13 219.247 511.13C219.247 511.13 213.287 504.71 200.907 505.5Z" fill="#263238"/>
<path d="M223.157 513.5C221.62 512.958 219.944 512.958 218.407 513.5C218.054 515.005 217.208 516.348 216.003 517.316C214.797 518.284 213.303 518.82 211.757 518.84C210.996 518.878 210.232 518.845 209.477 518.74C201.737 517.68 202.587 506.17 202.587 506.17C205.409 506.364 208.223 505.686 210.647 504.23C212.705 503.025 214.5 501.42 215.927 499.51L223.157 513.5Z" fill="#EBB376"/>
<path opacity="0.2" d="M223.157 513.5C221.62 512.958 219.944 512.958 218.407 513.5C218.054 515.005 217.208 516.348 216.003 517.316C214.797 518.284 213.303 518.82 211.757 518.84C209.757 513.91 210.027 508.26 210.647 504.23C212.705 503.025 214.5 501.42 215.927 499.51L223.157 513.5Z" fill="black"/>
<path d="M229.157 491.15C225.707 493.49 227.277 497.45 235.077 503.66C238.247 499.55 238.767 491.57 236.257 489.57C233.747 487.57 232.157 489.12 229.157 491.15Z" fill="#263238"/>
<path d="M214.347 497.57C214.717 506 214.517 510.95 218.687 515.34C224.967 521.95 235.427 518.27 237.577 509.9C239.507 502.38 238.577 489.9 230.397 486.37C228.597 485.591 226.628 485.285 224.676 485.481C222.725 485.678 220.856 486.37 219.248 487.493C217.64 488.615 216.345 490.13 215.487 491.894C214.629 493.658 214.237 495.611 214.347 497.57Z" fill="#EBB376"/>
<path d="M226.877 500.1C226.877 500.78 227.227 501.34 227.667 501.35C228.107 501.36 228.487 500.81 228.497 500.13C228.507 499.45 228.157 498.88 227.717 498.87C227.277 498.86 226.937 499.42 226.877 500.1Z" fill="#263238"/>
<path d="M234.667 500.24C234.667 500.92 235.007 501.49 235.457 501.49C235.907 501.49 236.277 500.96 236.297 500.26C236.317 499.56 235.947 499.02 235.497 499.01C235.047 499 234.677 499.55 234.667 500.24Z" fill="#263238"/>
<path d="M232.157 500.52C232.936 502.628 234.006 504.618 235.337 506.43C234.861 506.754 234.321 506.972 233.753 507.069C233.185 507.166 232.603 507.139 232.047 506.99L232.157 500.52Z" fill="#D58745"/>
<path d="M238.157 495.72C238.12 495.784 238.066 495.838 238.001 495.875C237.936 495.912 237.862 495.931 237.787 495.93C237.283 495.884 236.775 495.959 236.305 496.149C235.836 496.338 235.418 496.637 235.087 497.02C235.056 497.062 235.016 497.097 234.971 497.124C234.926 497.151 234.876 497.168 234.824 497.176C234.772 497.183 234.719 497.18 234.668 497.167C234.617 497.154 234.569 497.131 234.527 497.1C234.485 497.07 234.449 497.032 234.421 496.988C234.393 496.944 234.375 496.895 234.367 496.844C234.358 496.792 234.36 496.74 234.372 496.689C234.384 496.639 234.406 496.591 234.437 496.55C234.848 496.059 235.37 495.674 235.959 495.427C236.549 495.18 237.19 495.078 237.827 495.13C237.879 495.131 237.931 495.143 237.978 495.164C238.026 495.185 238.068 495.216 238.104 495.254C238.139 495.293 238.166 495.338 238.184 495.387C238.202 495.436 238.21 495.488 238.207 495.54C238.206 495.603 238.189 495.665 238.157 495.72Z" fill="#263238"/>
<path d="M230.157 497.23C230.085 497.254 230.007 497.257 229.933 497.239C229.859 497.222 229.791 497.184 229.737 497.13C229.393 496.757 228.965 496.472 228.488 496.298C228.012 496.124 227.5 496.066 226.997 496.13C226.891 496.148 226.783 496.125 226.693 496.065C226.604 496.006 226.541 495.914 226.517 495.81C226.496 495.706 226.517 495.599 226.575 495.511C226.633 495.423 226.724 495.361 226.827 495.34C227.46 495.245 228.106 495.304 228.712 495.511C229.318 495.718 229.865 496.067 230.307 496.53C230.379 496.607 230.419 496.709 230.419 496.815C230.419 496.92 230.379 497.022 230.307 497.1L230.157 497.23Z" fill="#263238"/>
<path d="M217.827 490.17C221.737 491.59 221.187 495.82 215.137 503.74C211.067 500.53 208.597 492.92 210.557 490.37C212.517 487.82 214.407 488.94 217.827 490.17Z" fill="#263238"/>
<path d="M210.227 504.24C210.499 505.255 210.968 506.207 211.608 507.041C212.248 507.875 213.047 508.574 213.957 509.1C216.397 510.48 218.287 508.45 218.177 505.8C218.067 503.4 216.667 499.8 213.947 499.5C211.227 499.2 209.557 501.72 210.227 504.24Z" fill="#EBB376"/>
<path d="M225.687 508.39C225.687 508.39 227.147 511.15 231.227 511.02" stroke="#263238" stroke-width="0.526291" stroke-linecap="round" stroke-linejoin="round"/>
<path d="M218.727 493.1C218.727 493.1 222.047 493.27 223.577 495.37C223.988 494.825 224.275 494.198 224.418 493.531C224.561 492.865 224.558 492.175 224.407 491.51C224.407 491.51 228.407 492 230.197 494.78C230.696 493.766 230.904 492.634 230.797 491.51C231.556 492.433 231.983 493.585 232.007 494.78C232.007 494.78 235.067 492.84 234.667 491.02C235.426 491.947 235.982 493.024 236.297 494.18C236.297 494.18 238.297 493.49 237.867 489.93C238.538 490.667 239.028 491.55 239.297 492.51C239.297 492.51 241.917 485.08 232.007 480.93C222.097 476.78 210.717 481.7 210.917 489.93C211.117 498.16 218.727 493.1 218.727 493.1Z" fill="#263238"/>
<path d="M299.047 541.88V544.53C299.047 545.32 297.687 545.88 296.897 545.88H235.157C234.367 545.88 233.097 545.32 233.097 544.53V541.88H299.047Z" fill="#263238"/>
<path opacity="0.6" d="M299.047 541.88V544.53C299.047 545.32 297.687 545.88 296.897 545.88H235.157C234.367 545.88 233.097 545.32 233.097 544.53V541.88H299.047Z" fill="white"/>
<path opacity="0.2" d="M299.047 541.88V544.53C299.047 545.32 297.687 545.88 296.897 545.88H256.157C255.367 545.88 254.057 545.32 254.057 544.53V541.88H299.047Z" fill="black"/>
<path d="M308.957 509.4L301.607 542.87C301.477 543.416 301.174 543.905 300.743 544.265C300.313 544.626 299.778 544.838 299.217 544.87H259.027C258.77 544.845 258.522 544.764 258.3 544.632C258.078 544.499 257.888 544.32 257.744 544.106C257.599 543.892 257.504 543.648 257.465 543.393C257.426 543.138 257.444 542.877 257.517 542.63L264.867 509.51C265.017 509.004 265.336 508.564 265.771 508.266C266.206 507.967 266.731 507.827 267.257 507.87H307.437C308.517 507.88 309.157 508.31 308.957 509.4Z" fill="#263238"/>
<path opacity="0.6" d="M308.957 509.4L301.607 542.87C301.477 543.416 301.174 543.905 300.743 544.265C300.313 544.626 299.778 544.838 299.217 544.87H259.027C258.77 544.845 258.522 544.764 258.3 544.632C258.078 544.499 257.888 544.32 257.744 544.106C257.599 543.892 257.504 543.648 257.465 543.393C257.426 543.138 257.444 542.877 257.517 542.63L264.867 509.51C265.017 509.004 265.336 508.564 265.771 508.266C266.206 507.967 266.731 507.827 267.257 507.87H307.437C308.517 507.88 309.157 508.31 308.957 509.4Z" fill="white"/>
<path opacity="0.4" d="M308.957 509.4L301.607 542.87C301.477 543.416 301.174 543.905 300.743 544.265C300.313 544.626 299.778 544.838 299.217 544.87H260.397C260.139 544.846 259.89 544.766 259.667 544.634C259.443 544.503 259.252 544.324 259.107 544.109C258.962 543.895 258.865 543.651 258.826 543.395C258.786 543.139 258.804 542.878 258.877 542.63L266.237 509.51C266.387 509.004 266.706 508.564 267.141 508.266C267.576 507.967 268.101 507.827 268.627 507.87H307.437C308.517 507.88 309.157 508.31 308.957 509.4Z" fill="white"/>
<path opacity="0.2" d="M285.317 530.85C287.187 530.85 289.107 528.85 289.597 526.37C290.087 523.89 288.957 521.88 287.077 521.88C286.735 521.887 286.396 521.955 286.077 522.08C285.904 522.964 285.525 523.795 284.97 524.506C284.416 525.216 283.703 525.786 282.887 526.17C282.866 526.235 282.849 526.302 282.837 526.37C282.307 528.84 283.437 530.85 285.317 530.85Z" fill="black"/>
<path d="M334.497 518.38L343.857 527.74L347.027 545.88H327.777L328.567 543.88L339.117 541.88L340.037 530.85L333.047 529.19L334.497 518.38Z" fill="#263238"/>
<path opacity="0.6" d="M347.027 545.88H327.777L328.567 543.88L339.117 541.88L340.037 530.85L339.127 530.63L333.047 529.19L334.497 518.38L343.857 527.74L347.027 545.88Z" fill="white"/>
<path opacity="0.2" d="M342.557 526.44L339.127 530.63L333.047 529.19L334.497 518.38L342.557 526.44Z" fill="black"/>
<path d="M333.407 534.09H322.657C322.553 534.093 322.45 534.073 322.355 534.031C322.26 533.989 322.175 533.927 322.108 533.848C322.04 533.77 321.99 533.677 321.962 533.577C321.934 533.477 321.929 533.372 321.947 533.27L328.157 487.16C328.193 486.921 328.314 486.704 328.498 486.548C328.682 486.391 328.916 486.307 329.157 486.31H339.907C340.012 486.305 340.116 486.324 340.212 486.365C340.309 486.406 340.395 486.468 340.464 486.547C340.533 486.626 340.583 486.719 340.612 486.82C340.64 486.921 340.645 487.026 340.627 487.13L334.347 533.31C334.299 533.525 334.18 533.719 334.01 533.86C333.84 534.001 333.628 534.082 333.407 534.09Z" fill="#263238"/>
<path opacity="0.6" d="M333.407 534.09H322.657C322.553 534.093 322.45 534.073 322.355 534.031C322.26 533.989 322.175 533.927 322.108 533.848C322.04 533.77 321.99 533.677 321.962 533.577C321.934 533.477 321.929 533.372 321.947 533.27L328.157 487.16C328.193 486.921 328.314 486.704 328.498 486.548C328.682 486.391 328.916 486.307 329.157 486.31H339.907C340.012 486.305 340.116 486.324 340.212 486.365C340.309 486.406 340.395 486.468 340.464 486.547C340.533 486.626 340.583 486.719 340.612 486.82C340.64 486.921 340.645 487.026 340.627 487.13L334.347 533.31C334.299 533.525 334.18 533.719 334.01 533.86C333.84 534.001 333.628 534.082 333.407 534.09Z" fill="white"/>
<path opacity="0.4" d="M330.407 534.09H322.657C322.553 534.093 322.45 534.073 322.355 534.031C322.26 533.989 322.175 533.927 322.108 533.848C322.04 533.77 321.99 533.677 321.962 533.577C321.934 533.477 321.929 533.372 321.947 533.27L328.157 487.16C328.193 486.921 328.314 486.704 328.498 486.548C328.682 486.391 328.916 486.307 329.157 486.31H336.907C337.012 486.305 337.116 486.324 337.212 486.365C337.309 486.406 337.395 486.468 337.464 486.547C337.533 486.626 337.583 486.719 337.612 486.82C337.64 486.921 337.645 487.026 337.627 487.13L331.347 533.31C331.299 533.525 331.18 533.719 331.01 533.86C330.84 534.001 330.628 534.082 330.407 534.09Z" fill="white"/>
<path d="M330.867 532.64H322.617L328.687 487.79H336.937L330.867 532.64Z" fill="#407BFF"/>
<path d="M259.657 705.88H253.527L242.517 552.64H250.647L259.657 705.88Z" fill="#263238"/>
<path opacity="0.4" d="M259.657 705.88H253.527L243.057 560.25L242.517 552.88H250.647L251.087 560.25L259.657 705.88Z" fill="white"/>
<path opacity="0.2" d="M251.087 559.88H243.057L242.517 552.88H250.647L251.087 559.88Z" fill="black"/>
<path d="M304.617 705.88H298.487L297.487 552.64H305.617L304.617 705.88Z" fill="#263238"/>
<path opacity="0.5" d="M305.617 552.88L305.457 577.61L304.617 705.88H298.487L297.647 577.61L297.487 552.88H305.617Z" fill="white"/>
<path opacity="0.2" d="M305.617 552.88L305.457 577.88H297.647L297.487 552.88H305.617Z" fill="black"/>
<path d="M369.657 705.88H363.527L352.517 552.64H360.647L369.657 705.88Z" fill="#263238"/>
<path opacity="0.5" d="M369.657 705.88H363.527L353.057 560.25L352.517 552.88H360.647L361.087 560.25L369.657 705.88Z" fill="white"/>
<path opacity="0.2" d="M361.087 559.88H353.057L352.517 552.88H360.647L361.087 559.88Z" fill="black"/>
<path d="M189.577 705.88H183.447L192.447 552.64H200.577L189.577 705.88Z" fill="#263238"/>
<path opacity="0.5" d="M200.577 552.88L200.037 560.25L189.567 705.88H183.447L192.007 560.25L192.447 552.88H200.577Z" fill="white"/>
<path opacity="0.2" d="M192.447 552.88H200.577L200.037 559.88H192.007L192.447 552.88Z" fill="black"/>
<path d="M186.007 548.8H367.087V554.31C367.087 554.882 366.86 555.432 366.454 555.837C366.049 556.242 365.5 556.47 364.927 556.47H188.157C187.584 556.47 187.035 556.242 186.63 555.837C186.225 555.432 185.997 554.882 185.997 554.31V548.8H186.007Z" fill="#407BFF"/>
<path opacity="0.2" d="M367.087 548.8H186.007V552.64H367.087V548.8Z" fill="black"/>
<path d="M370.887 549.8H182.217C181.643 549.8 181.093 549.572 180.686 549.168C180.28 548.763 180.05 548.213 180.047 547.64C180.047 547.064 180.276 546.512 180.683 546.105C181.09 545.698 181.642 545.47 182.217 545.47H370.887C371.461 545.472 372.01 545.702 372.415 546.109C372.82 546.515 373.047 547.066 373.047 547.64C373.047 547.923 372.991 548.204 372.883 548.466C372.774 548.728 372.615 548.966 372.414 549.167C372.214 549.368 371.976 549.527 371.714 549.635C371.452 549.744 371.171 549.8 370.887 549.8Z" fill="#407BFF"/>
<defs>
<filter id="filter0_d" x="0.373291" y="0" width="1085.13" height="792.555" filterUnits="userSpaceOnUse" color-interpolation-filters="sRGB">
<feFlood flood-opacity="0" result="BackgroundImageFix"/>
<feColorMatrix in="SourceAlpha" type="matrix" values="0 0 0 0 0 0 0 0 0 0 0 0 0 0 0 0 0 0 127 0"/>
<feOffset/>
<feGaussianBlur stdDeviation="50"/>
<feColorMatrix type="matrix" values="0 0 0 0 0.25098 0 0 0 0 0.482353 0 0 0 0 1 0 0 0 0.2 0"/>
<feBlend mode="normal" in2="BackgroundImageFix" result="effect1_dropShadow"/>
<feBlend mode="normal" in="SourceGraphic" in2="effect1_dropShadow" result="shape"/>
</filter>
</defs>
</svg>
