<svg width="722" height="464" viewBox="0 0 722 464" fill="none" xmlns="http://www.w3.org/2000/svg">
<path d="M722 229.949H0V239.036H722V229.949Z" fill="#407BFF"/>
<path d="M43.006 236.468V453.163H48.6386L55.7237 236.468H43.006Z" fill="#407BFF"/>
<path d="M109.499 243.553V444.307H115.132L122.217 243.553H109.499Z" fill="#407BFF"/>
<path opacity="0.5" d="M109.499 243.553V444.307H115.132L122.217 243.553H109.499Z" fill="black"/>
<path d="M681.562 236.468V453.163H675.947L668.845 236.468H681.562Z" fill="#407BFF"/>
<path d="M615.069 243.553V444.307H609.437L602.352 243.553H615.069Z" fill="#407BFF"/>
<path opacity="0.5" d="M615.069 243.553V444.307H609.437L602.352 243.553H615.069Z" fill="black"/>
<path d="M694.404 248.76H29.7216L15.0202 239.036H709.105L694.404 248.76Z" fill="#407BFF"/>
<path opacity="0.5" d="M694.404 248.76H29.7216L15.0202 239.036H709.105L694.404 248.76Z" fill="black"/>
<path d="M47.452 202.088V209.173C47.4518 210.348 47.9167 211.475 48.745 212.308L54.3599 217.923C54.8572 218.417 55.464 218.787 56.1311 219.003C57.2888 221.495 59.1341 223.604 61.45 225.082C63.7658 226.56 66.4557 227.345 69.203 227.346H71.3108C73.2168 227.358 75.1062 226.991 76.8694 226.267C78.6325 225.543 80.2345 224.476 81.5822 223.128C82.93 221.781 83.9968 220.179 84.7207 218.416C85.4447 216.652 85.8115 214.763 85.7997 212.857V196.331H54.8381V197.677H51.8801C50.7088 197.677 49.5851 198.141 48.7552 198.968C47.9253 199.795 47.4567 200.916 47.452 202.088ZM50.9945 202.088C50.9945 201.972 51.0175 201.858 51.0622 201.751C51.1069 201.645 51.1724 201.549 51.2549 201.468C51.3374 201.387 51.4352 201.323 51.5425 201.281C51.6499 201.238 51.7647 201.217 51.8801 201.22H54.8381V212.857C54.8381 213.016 54.8381 213.176 54.8381 213.335L51.2956 209.793C51.2105 209.714 51.1429 209.618 51.0972 209.511C51.0514 209.404 51.0285 209.289 51.0299 209.173L50.9945 202.088Z" fill="#407BFF"/>
<path opacity="0.5" d="M47.452 202.088V209.173C47.4518 210.348 47.9167 211.475 48.745 212.308L54.3599 217.923C54.8572 218.417 55.464 218.787 56.1311 219.003C57.2888 221.495 59.1341 223.604 61.45 225.082C63.7658 226.56 66.4557 227.345 69.203 227.346H71.3108C73.2168 227.358 75.1062 226.991 76.8694 226.267C78.6325 225.543 80.2345 224.476 81.5822 223.128C82.93 221.781 83.9968 220.179 84.7207 218.416C85.4447 216.652 85.8115 214.763 85.7997 212.857V196.331H54.8381V197.677H51.8801C50.7088 197.677 49.5851 198.141 48.7552 198.968C47.9253 199.795 47.4567 200.916 47.452 202.088ZM50.9945 202.088C50.9945 201.972 51.0175 201.858 51.0622 201.751C51.1069 201.645 51.1724 201.549 51.2549 201.468C51.3374 201.387 51.4352 201.323 51.5425 201.281C51.6499 201.238 51.7647 201.217 51.8801 201.22H54.8381V212.857C54.8381 213.016 54.8381 213.176 54.8381 213.335L51.2956 209.793C51.2105 209.714 51.1429 209.618 51.0972 209.511C51.0514 209.404 51.0285 209.289 51.0299 209.173L50.9945 202.088Z" fill="white"/>
<path d="M93.1327 229.737H48.6033C46.5672 229.556 44.6721 228.621 43.2895 227.115H98.3756C97.0137 228.609 95.145 229.544 93.1327 229.737Z" fill="#407BFF"/>
<path opacity="0.5" d="M93.1327 229.737H48.6033C46.5672 229.556 44.6721 228.621 43.2895 227.115H98.3756C97.0137 228.609 95.145 229.544 93.1327 229.737Z" fill="white"/>
<path d="M692.207 208.057C691.977 200.972 686.628 199.307 679.649 198.51V195.941C679.64 195.644 679.514 195.362 679.299 195.156C679.083 194.951 678.796 194.838 678.498 194.843H654.373C654.224 194.838 654.076 194.863 653.937 194.916C653.797 194.968 653.67 195.048 653.561 195.15C653.453 195.252 653.365 195.374 653.304 195.51C653.243 195.646 653.209 195.793 653.204 195.941V229.436H679.667V225.769C686.646 224.99 691.995 215.106 692.207 208.057ZM679.649 221.448V202.849C684.786 203.593 688.328 204.302 687.567 209.438C686.965 213.548 683.741 220.881 679.649 221.448Z" fill="#407BFF"/>
<g opacity="0.5">
<path opacity="0.5" d="M692.207 208.057C691.977 200.972 686.628 199.307 679.649 198.51V195.941C679.64 195.644 679.514 195.362 679.299 195.156C679.083 194.951 678.796 194.838 678.498 194.843H654.373C654.224 194.838 654.076 194.863 653.937 194.916C653.797 194.968 653.67 195.048 653.561 195.15C653.453 195.252 653.365 195.374 653.304 195.51C653.243 195.646 653.209 195.793 653.204 195.941V229.436H679.667V225.769C686.646 224.99 691.995 215.106 692.207 208.057ZM679.649 221.448V202.849C684.786 203.593 688.328 204.302 687.567 209.438C686.965 213.548 683.741 220.881 679.649 221.448Z" fill="white"/>
</g>
<path d="M370.777 186.749H349.894V229.17H370.777V186.749Z" fill="#407BFF"/>
<path opacity="0.5" d="M370.777 186.749H349.894V229.17H370.777V186.749Z" fill="white"/>
<path d="M380.218 229.932H340.648L350.302 221.448H370.565L380.218 229.932Z" fill="#407BFF"/>
<path opacity="0.5" d="M380.218 229.932H340.648L350.302 221.448H370.565L380.218 229.932Z" fill="white"/>
<path d="M467.205 216.205H368.298L386.17 229.985H485.059L467.205 216.205Z" fill="#407BFF"/>
<path opacity="0.4" d="M467.205 216.205H368.298L386.17 229.985H485.059L467.205 216.205Z" fill="white"/>
<path d="M370.583 229.985L368.298 216.205L386.17 229.985H370.583Z" fill="#407BFF"/>
<path opacity="0.5" d="M370.583 229.985L368.298 216.205L386.17 229.985H370.583Z" fill="black"/>
<path d="M449.846 86.3359H269.833C267.945 86.3359 266.415 87.8665 266.415 89.7545V200.139C266.415 202.027 267.945 203.558 269.833 203.558H449.846C451.734 203.558 453.265 202.027 453.265 200.139V89.7545C453.265 87.8665 451.734 86.3359 449.846 86.3359Z" fill="#407BFF"/>
<path opacity="0.5" d="M446.286 93.6691H273.199V195.818H446.286V93.6691Z" fill="black"/>
<path opacity="0.4" d="M440.778 114.676H353.437V174.81H440.778V114.676Z" fill="black"/>
<path d="M440.778 114.676H353.437V120.185H440.778V114.676Z" fill="#407BFF"/>
<path d="M369.449 147.94L383.725 155.84C384.27 156.103 384.757 156.47 385.16 156.921C385.403 157.274 385.527 157.696 385.514 158.125C385.515 158.425 385.456 158.722 385.341 158.999C385.225 159.276 385.055 159.527 384.841 159.737C384.644 159.948 384.405 160.117 384.14 160.232C383.875 160.348 383.589 160.409 383.3 160.41C382.665 160.338 382.058 160.113 381.529 159.755L363.108 149.517C362.813 149.37 362.565 149.144 362.392 148.864C362.219 148.584 362.127 148.261 362.127 147.932C362.127 147.602 362.219 147.279 362.392 146.999C362.565 146.719 362.813 146.493 363.108 146.346L381.529 136.108C382.062 135.765 382.669 135.553 383.3 135.489C383.591 135.484 383.88 135.54 384.148 135.653C384.416 135.766 384.658 135.933 384.859 136.144C385.074 136.35 385.245 136.597 385.361 136.871C385.476 137.145 385.535 137.44 385.532 137.738C385.547 138.167 385.423 138.59 385.178 138.942C384.775 139.393 384.288 139.76 383.743 140.023L369.449 147.94Z" fill="white"/>
<path d="M406.185 133.186L392.015 163.634C391.788 164.187 391.457 164.692 391.041 165.122C390.657 165.421 390.181 165.578 389.694 165.564C389.405 165.569 389.118 165.515 388.85 165.405C388.582 165.295 388.339 165.133 388.136 164.927C387.927 164.742 387.76 164.516 387.644 164.263C387.528 164.01 387.466 163.735 387.463 163.457C387.514 162.835 387.695 162.232 387.994 161.685L402.164 131.255C402.386 130.712 402.704 130.214 403.103 129.785C403.492 129.481 403.973 129.319 404.467 129.324C404.753 129.32 405.038 129.375 405.303 129.484C405.568 129.594 405.808 129.757 406.008 129.962C406.208 130.147 406.368 130.372 406.478 130.622C406.588 130.872 406.645 131.142 406.645 131.415C406.62 132.031 406.463 132.635 406.185 133.186Z" fill="white"/>
<path d="M423.951 147.94L409.674 140.023C409.136 139.751 408.65 139.385 408.24 138.942C407.994 138.59 407.87 138.167 407.885 137.738C407.883 137.44 407.941 137.145 408.057 136.871C408.173 136.597 408.343 136.349 408.558 136.144C408.763 135.933 409.008 135.767 409.279 135.654C409.55 135.541 409.841 135.485 410.135 135.488C410.765 135.556 411.371 135.768 411.906 136.108L430.327 146.346C430.622 146.493 430.87 146.719 431.043 146.999C431.216 147.279 431.308 147.602 431.308 147.932C431.308 148.261 431.216 148.584 431.043 148.864C430.87 149.144 430.622 149.37 430.327 149.517L411.906 159.755C411.375 160.109 410.768 160.334 410.135 160.41C409.835 160.414 409.539 160.354 409.264 160.235C408.989 160.116 408.743 159.94 408.541 159.719C408.331 159.51 408.165 159.262 408.053 158.988C407.94 158.714 407.883 158.421 407.885 158.125C407.872 157.696 407.996 157.274 408.24 156.921C408.65 156.478 409.136 156.112 409.674 155.84L423.951 147.94Z" fill="white"/>
<path d="M286.218 103.092H280.302V109.008H286.218V103.092Z" fill="white"/>
<path d="M286.218 118.414H280.302V124.33H286.218V118.414Z" fill="white"/>
<path d="M286.218 133.717H280.302V139.633H286.218V133.717Z" fill="white"/>
<path d="M286.218 149.021H280.302V154.937H286.218V149.021Z" fill="white"/>
<path d="M286.218 164.324H280.302V170.24H286.218V164.324Z" fill="white"/>
<path d="M286.218 179.628H280.302V185.544H286.218V179.628Z" fill="white"/>
<path d="M315.408 104.438H291.832V106.209H315.408V104.438Z" fill="white"/>
<path d="M305.719 119.777H297.323V121.549H305.719V119.777Z" fill="white"/>
<path d="M342.26 136.994H333.864V138.765H342.26V136.994Z" fill="white"/>
<path d="M305.719 150.651H297.323V152.422H305.719V150.651Z" fill="white"/>
<path d="M317.817 150.651H309.421V152.422H317.817V150.651Z" fill="white"/>
<path d="M330.871 136.994H309.421V138.765H330.871V136.994Z" fill="white"/>
<path d="M336.043 150.651H321.926V152.422H336.043V150.651Z" fill="white"/>
<path d="M330.269 183.472H321.873V185.243H330.269V183.472Z" fill="white"/>
<path d="M342.384 183.472H333.988V185.243H342.384V183.472Z" fill="white"/>
<path d="M351.17 183.472H346.476V185.243H351.17V183.472Z" fill="white"/>
<path d="M336.043 119.777H309.917V121.549H336.043V119.777Z" fill="white"/>
<path d="M317.817 166.645H309.421V168.416H317.817V166.645Z" fill="white"/>
<path d="M325.486 166.645H320.633V168.416H325.486V166.645Z" fill="white"/>
<path d="M342.898 166.645H329.188V168.416H342.898V166.645Z" fill="white"/>
<path d="M345.183 37.5556C344.74 58.9878 322.475 76.9661 295.428 77.6746C287.122 77.9546 278.854 76.4256 271.197 73.1933C268.47 79.9241 262.731 85.6984 246.276 88.2844C263.439 75.0177 254.052 63.7879 250.137 53.922C248.112 49.6146 247.1 44.9007 247.179 40.1416C247.622 18.6917 269.887 0.748865 296.934 0.0226499C323.981 -0.703566 345.608 16.1234 345.183 37.5556Z" fill="#407BFF"/>
<path d="M296.757 15.1139H273.181V16.8851H296.757V15.1139Z" fill="white"/>
<path d="M287.068 30.4706H278.672V32.2418H287.068V30.4706Z" fill="white"/>
<path d="M323.609 47.6873H315.213V49.4585H323.609V47.6873Z" fill="white"/>
<path d="M287.068 61.3436H278.672V63.1149H287.068V61.3436Z" fill="white"/>
<path d="M299.183 61.3436H290.787V63.1149H299.183V61.3436Z" fill="white"/>
<path d="M312.237 47.6873H290.787V49.4585H312.237V47.6873Z" fill="white"/>
<path d="M317.392 61.3436H303.275V63.1149H317.392V61.3436Z" fill="white"/>
<path d="M317.409 30.4706H291.283V32.2418H317.409V30.4706Z" fill="white"/>
<path d="M447.437 443.616L434.525 439.755L437.536 408.103L450.449 411.964L447.437 443.616Z" fill="#7F3E3B"/>
<path opacity="0.2" d="M451.511 404.808L438.599 400.964L436.916 418.695L449.97 421.121L451.511 404.808Z" fill="black"/>
<path d="M523.867 248.122C523.867 248.122 435.074 255.615 437.253 294.175C439.024 325.739 443.718 317.201 434.525 411.078L456.86 412.318C456.86 412.318 479.586 335.552 476.521 305.051C501.549 305.051 558.849 307.247 567.174 284.663C571.305 273.195 573.316 261.072 573.108 248.884L523.867 248.122Z" fill="#407BFF"/>
<path d="M460.403 416.569L431.213 411.574L431.691 398.662L461.909 405.375L460.403 416.569Z" fill="#263238"/>
<path d="M433.197 434.441L448.11 437.399C448.381 437.463 448.618 437.625 448.776 437.854C448.933 438.084 448.999 438.364 448.961 438.639L447.721 452.809C447.698 453.143 447.61 453.469 447.46 453.768C447.31 454.067 447.102 454.333 446.848 454.551C446.594 454.769 446.299 454.934 445.981 455.036C445.662 455.138 445.326 455.176 444.993 455.147C439.821 454.014 437.377 453.181 430.823 451.87C426.785 451.073 417.556 449.143 411.941 448.505C406.327 447.867 407 441.314 409.426 440.977C420.337 439.542 426.537 437.771 430.77 435.043C431.469 434.533 432.34 434.317 433.197 434.441Z" fill="#263238"/>
<path d="M426.501 436.974C427.675 437.133 428.862 437.169 430.044 437.08C430.103 437.082 430.162 437.064 430.21 437.029C430.259 436.994 430.293 436.943 430.309 436.885C430.336 436.833 430.35 436.776 430.35 436.717C430.35 436.659 430.336 436.601 430.309 436.549C429.937 436.177 426.59 433.006 424.872 433.361C424.673 433.393 424.486 433.48 424.333 433.611C424.18 433.742 424.066 433.913 424.004 434.105C423.864 434.383 423.8 434.693 423.819 435.004C423.838 435.315 423.938 435.616 424.11 435.876C424.736 436.535 425.593 436.928 426.501 436.974ZM429.353 436.496C426.891 436.496 425.155 436.212 424.641 435.486C424.536 435.316 424.481 435.119 424.481 434.919C424.481 434.719 424.536 434.523 424.641 434.352C424.669 434.258 424.722 434.172 424.793 434.103C424.865 434.035 424.953 433.987 425.049 433.963C425.881 433.786 427.971 435.203 429.424 436.513L429.353 436.496Z" fill="#407BFF"/>
<path d="M430.061 437.098H430.203C430.254 437.079 430.299 437.048 430.336 437.008C430.373 436.968 430.4 436.92 430.416 436.868C430.416 436.708 431.39 432.936 430.256 431.43C430.118 431.228 429.933 431.063 429.717 430.949C429.501 430.835 429.261 430.775 429.016 430.775C428.751 430.736 428.481 430.789 428.249 430.924C428.017 431.059 427.838 431.269 427.741 431.519C427.192 432.918 428.715 436.018 429.902 437.027C429.921 437.051 429.946 437.069 429.973 437.081C430.001 437.094 430.031 437.099 430.061 437.098ZM429.14 431.412C429.387 431.463 429.607 431.602 429.76 431.802C430.27 433.201 430.326 434.726 429.92 436.159C428.839 434.95 428.268 433.369 428.326 431.749C428.326 431.572 428.52 431.377 428.981 431.395L429.14 431.412Z" fill="#407BFF"/>
<path d="M389.872 448.54L377.579 443.014L386.081 412.69L398.374 418.216L389.872 448.54Z" fill="#7F3E3B"/>
<path opacity="0.2" d="M400.446 410.405L388.153 404.879L383.778 420.519L396.071 426.045L400.446 410.405Z" fill="black"/>
<path d="M497.44 248.122C496.855 248.122 397.895 258.307 397.771 291.872C397.559 347.384 381.706 411.007 381.706 411.007L401.19 420.696C401.19 420.696 435.251 351.723 434.737 308.451C461.962 300.64 532.387 313.765 540.712 291.199C547.531 272.743 543.847 248.122 543.847 248.122H497.44Z" fill="#407BFF"/>
<path d="M404.378 423.513L378.164 411.716L380.271 400.982L407.921 410.529L404.378 423.513Z" fill="#263238"/>
<path d="M378.801 432.829L393.751 435.929C394.031 436.022 394.27 436.213 394.422 436.466C394.575 436.719 394.632 437.019 394.583 437.311L393.414 452.809C393.202 454.492 391.997 455.643 390.704 455.377C385.532 454.191 383.088 453.27 376.534 451.835C372.496 451.02 361.496 448.292 355.952 446.893C350.408 445.494 351.648 438.391 354.181 438.338C365.145 438.178 372.248 436.39 376.463 433.325C376.797 433.085 377.178 432.918 377.58 432.832C377.983 432.747 378.398 432.746 378.801 432.829Z" fill="#263238"/>
<path d="M372.743 436.177C373.784 435.605 374.763 434.928 375.666 434.158C375.712 434.116 375.745 434.063 375.764 434.004C375.783 433.945 375.786 433.882 375.772 433.821C375.755 433.763 375.72 433.712 375.672 433.674C375.625 433.636 375.567 433.613 375.507 433.609C374.993 433.609 370.423 432.936 369.236 434.264C369.106 434.415 369.015 434.596 368.972 434.791C368.928 434.985 368.934 435.188 368.988 435.38C369.041 435.687 369.173 435.974 369.372 436.214C369.571 436.453 369.83 436.636 370.122 436.744C371.036 436.889 371.971 436.687 372.743 436.177ZM374.745 434.105C372.814 435.61 371.202 436.336 370.37 436.088C370.184 436.005 370.022 435.874 369.901 435.71C369.78 435.545 369.704 435.352 369.679 435.15C369.65 435.058 369.646 434.96 369.668 434.867C369.69 434.773 369.736 434.687 369.803 434.618C370.335 433.981 372.743 433.927 374.656 434.105H374.745Z" fill="#407BFF"/>
<path d="M375.577 434.158L375.701 434.069C375.732 434.025 375.748 433.972 375.748 433.919C375.748 433.865 375.732 433.812 375.701 433.768C375.613 433.644 374.143 430.013 372.354 429.464C372.123 429.391 371.878 429.372 371.638 429.409C371.399 429.445 371.171 429.537 370.972 429.676C370.734 429.803 370.547 430.008 370.44 430.256C370.334 430.504 370.316 430.78 370.388 431.04C370.76 432.51 373.824 434.087 375.4 434.193L375.577 434.158ZM371.45 430.119C371.568 430.067 371.694 430.041 371.822 430.041C371.951 430.041 372.077 430.067 372.194 430.119C373.441 430.943 374.396 432.139 374.922 433.538C373.33 433.207 371.928 432.274 371.008 430.934C370.901 430.792 371.008 430.509 371.326 430.261L371.45 430.119Z" fill="#407BFF"/>
<path d="M531.058 141.032C533.662 146.629 535.805 152.014 537.949 157.611C540.092 163.208 541.987 168.806 543.741 174.544C545.494 180.283 547.017 186.164 548.24 192.257C549.573 198.588 550.238 205.041 550.224 211.511C550.204 215.309 549.637 219.086 548.541 222.723C547.847 224.949 546.851 227.071 545.583 229.028C544.833 230.13 543.985 231.161 543.05 232.11L542.288 232.854C541.863 233.208 541.403 233.598 540.96 233.899C540.211 234.408 539.416 234.847 538.586 235.21C537.353 235.739 536.072 236.149 534.76 236.432C533.725 236.646 532.678 236.8 531.625 236.893C529.826 236.999 528.022 236.999 526.223 236.893C523.028 236.734 519.845 236.379 516.694 235.83C504.937 233.69 493.42 230.391 482.313 225.982L484.882 216.222C496.129 217.568 507.607 219.003 518.429 219.499C521.122 219.499 523.743 219.623 526.188 219.499C527.276 219.433 528.358 219.297 529.429 219.092C530.315 218.932 531.076 218.613 530.81 218.631C530.632 218.685 530.464 218.769 530.315 218.879C530.135 218.983 529.968 219.108 529.819 219.251C529.878 219.154 529.931 219.053 529.978 218.95C530.205 218.443 530.383 217.915 530.509 217.373C530.898 215.427 531.059 213.441 530.988 211.457C530.719 206.385 529.965 201.349 528.738 196.419C527.534 191.106 525.975 185.934 524.275 180.673C522.574 175.412 520.732 170.152 518.713 164.909C516.694 159.666 514.568 154.405 512.478 149.463L531.058 141.032Z" fill="#7F3E3B"/>
<path d="M489.77 218.879L478.027 212.272L472.129 224.99C472.129 224.99 485.856 230.711 488.743 227.133L489.77 218.879Z" fill="#7F3E3B"/>
<path d="M468.515 214.681L463.148 223.183L472.129 224.901L478.027 212.184L468.515 214.681Z" fill="#7F3E3B"/>
<path d="M503.675 151.128C501.425 156.779 499.07 162.181 496.59 167.654C494.11 173.128 491.63 178.512 489.009 183.897C483.73 194.86 477.816 205.506 471.296 215.779C469.525 218.401 467.754 221.005 465.77 223.608C464.778 224.919 463.68 226.212 462.511 227.541C461.873 228.214 461.359 228.834 460.616 229.524L459.553 230.552L458.951 231.118C457.264 232.56 455.28 233.613 453.141 234.2C452.013 234.52 450.865 234.763 449.705 234.927C447.813 235.154 445.905 235.231 444.001 235.157C440.712 235.054 437.434 234.729 434.188 234.183C422.18 232.06 410.418 228.725 399.082 224.228L401.668 214.451C413.128 215.833 424.836 217.303 435.853 217.763C438.451 217.86 441.053 217.825 443.647 217.657C444.691 217.571 445.728 217.405 446.747 217.161C447.077 217.077 447.398 216.959 447.703 216.807C447.809 216.807 447.703 216.683 447.225 216.984C447.047 217.075 446.886 217.195 446.747 217.338L446.924 217.126L447.42 216.576C447.739 216.258 448.128 215.726 448.5 215.301C449.226 214.38 449.97 213.388 450.714 212.308C452.184 210.2 453.619 207.862 455.036 205.488C457.87 200.741 460.509 195.693 463.095 190.592C465.681 185.491 468.161 180.283 470.605 175.04C475.476 164.59 480.241 153.785 484.776 143.335L503.675 151.128Z" fill="#7F3E3B"/>
<path d="M406.699 217.001L394.937 210.253L389.039 222.971C389.039 222.971 402.766 228.709 405.671 225.131L406.699 217.001Z" fill="#7F3E3B"/>
<path d="M385.443 212.821L380.059 221.306L389.039 223.024L394.937 210.306L385.443 212.821Z" fill="#7F3E3B"/>
<path d="M534.087 88.2842L526.577 96.9811L515.117 108.831L515.985 110.974C516.869 113.165 517.384 115.487 517.508 117.846C517.774 122.593 517.314 126.614 509.821 129.838C509.821 129.838 501.957 140.111 520.661 137.259C539.366 134.408 542.182 124.701 542.182 124.701C533.928 118.803 533.432 99.1951 534.087 88.2842Z" fill="#7F3E3B"/>
<path d="M495.952 78.4714C495.952 79.6405 495.368 80.6323 494.588 80.6678C493.809 80.7032 493.189 79.7821 493.171 78.6131C493.154 77.4441 493.774 76.4522 494.535 76.4168C495.297 76.3813 495.934 77.3024 495.952 78.4714Z" fill="#263238"/>
<path d="M499.867 74.1141C499.753 74.1132 499.641 74.0835 499.542 74.0277C499.443 73.972 499.36 73.892 499.3 73.7953C498.841 73.0439 498.216 72.4074 497.473 71.9347C496.73 71.4619 495.889 71.1653 495.013 71.0676C494.832 71.0585 494.66 70.9798 494.535 70.8479C494.41 70.716 494.34 70.541 494.34 70.3591C494.34 70.2676 494.359 70.1771 494.395 70.093C494.431 70.009 494.483 69.9331 494.55 69.8702C494.616 69.8072 494.695 69.7584 494.78 69.7267C494.866 69.695 494.957 69.6812 495.049 69.686C496.152 69.7841 497.218 70.1396 498.159 70.7241C499.1 71.3086 499.891 72.1057 500.469 73.0514C500.563 73.2075 500.594 73.3941 500.555 73.5723C500.515 73.7505 500.408 73.9065 500.256 74.0079C500.137 74.0754 500.003 74.112 499.867 74.1141Z" fill="#263238"/>
<path d="M495.527 79.1799C494.573 82.3685 493.203 85.4176 491.453 88.2488C492.18 88.6591 492.99 88.9036 493.822 88.9649C494.655 89.0261 495.491 88.9026 496.271 88.603L495.527 79.1799Z" fill="#630F0F"/>
<path d="M535.15 72.5731C534.459 87.0266 534.778 95.5995 527.605 103.251C525.298 105.793 522.341 107.656 519.053 108.639C515.765 109.622 512.271 109.687 508.948 108.828C505.626 107.969 502.601 106.218 500.201 103.765C497.801 101.312 496.118 98.2494 495.332 94.9087C492.073 82.1025 493.773 60.6171 507.731 54.1698C510.734 52.682 514.078 52.0141 517.422 52.2338C520.767 52.4535 523.994 53.553 526.777 55.4209C529.56 57.2888 531.8 59.8589 533.27 62.8709C534.741 65.8829 535.389 69.2299 535.15 72.5731Z" fill="#7F3E3B"/>
<path d="M541.704 77.4088C539.618 83.5395 536.437 89.2408 532.316 94.2357L513.505 97.7783C513.505 97.7783 498.644 91.5612 502.612 81.3233C500.097 79.1978 501.036 72.6264 502.807 69.013C504.233 70.1844 506.033 70.8023 507.878 70.7535C509.723 70.7047 511.488 69.9924 512.85 68.7473C513.42 69.6387 514.187 70.3864 515.093 70.9325C515.999 71.4786 517.019 71.8081 518.073 71.8955C519.127 71.983 520.187 71.8259 521.171 71.4365C522.154 71.0471 523.035 70.436 523.743 69.6507C524.549 70.4308 525.525 71.0135 526.594 71.3533C527.663 71.693 528.796 71.7806 529.905 71.609C531.013 71.4374 532.067 71.0113 532.983 70.3643C533.899 69.7172 534.653 68.8667 535.185 67.8794C536.341 68.6022 537.696 68.9432 539.056 68.8542C540.416 68.7652 541.714 68.2507 542.766 67.3835L543.032 67.1355C543.287 70.6145 542.835 74.109 541.704 77.4088Z" fill="#263238"/>
<path opacity="0.1" d="M541.704 77.4088C539.618 83.5395 536.437 89.2408 532.316 94.2357L513.505 97.7783C513.505 97.7783 498.644 91.5612 502.612 81.3233C500.097 79.1978 501.036 72.6264 502.807 69.013C504.233 70.1844 506.033 70.8023 507.878 70.7535C509.723 70.7047 511.488 69.9924 512.85 68.7473C513.42 69.6387 514.187 70.3864 515.093 70.9325C515.999 71.4786 517.019 71.8081 518.073 71.8955C519.127 71.983 520.187 71.8259 521.171 71.4365C522.154 71.0471 523.035 70.436 523.743 69.6507C524.549 70.4308 525.525 71.0135 526.594 71.3533C527.663 71.693 528.796 71.7806 529.905 71.609C531.013 71.4374 532.067 71.0113 532.983 70.3643C533.899 69.7172 534.653 68.8667 535.185 67.8794C536.341 68.6022 537.696 68.9432 539.056 68.8542C540.416 68.7652 541.714 68.2507 542.766 67.3835L543.032 67.1355C543.287 70.6145 542.835 74.109 541.704 77.4088Z" fill="white"/>
<path d="M544.414 59.8733C544.924 61.0707 545.065 62.3931 544.819 63.6712C544.573 64.9492 543.951 66.1246 543.032 67.0469L542.766 67.2949C541.714 68.1621 540.416 68.6766 539.056 68.7656C537.696 68.8546 536.342 68.5136 535.185 67.7908C534.653 68.7781 533.899 69.6286 532.983 70.2757C532.067 70.9227 531.013 71.3488 529.905 71.5204C528.796 71.692 527.663 71.6044 526.594 71.2647C525.525 70.9249 524.549 70.3422 523.743 69.5621C523.035 70.3474 522.154 70.9585 521.171 71.3479C520.187 71.7373 519.127 71.8944 518.073 71.807C517.019 71.7195 515.999 71.39 515.093 70.8439C514.187 70.2979 513.42 69.5501 512.85 68.6587C511.488 69.9038 509.723 70.6161 507.878 70.6649C506.033 70.7137 504.233 70.0958 502.807 68.9245C502.053 68.3405 501.447 67.5884 501.036 66.7281C500.938 66.5399 500.855 66.3445 500.788 66.1436C500.636 66.3163 500.47 66.4763 500.292 66.6218C499.408 67.3278 498.327 67.7426 497.198 67.8093C496.069 67.8759 494.947 67.591 493.986 66.9938C493.226 66.4658 492.617 65.7484 492.219 64.9127C491.822 64.077 491.649 63.1519 491.719 62.2291C491.739 61.8449 491.805 61.4644 491.914 61.0955C491.773 61.3624 491.594 61.6071 491.382 61.8217C490.96 62.2292 490.461 62.5486 489.914 62.7614C489.367 62.9743 488.783 63.0762 488.196 63.0614C487.609 63.0465 487.031 62.9152 486.496 62.675C485.96 62.4348 485.478 62.0906 485.077 61.6623C484.668 61.0442 484.39 60.3497 484.258 59.6208C484.126 58.8918 484.143 58.1437 484.308 57.4216C484.474 56.6996 484.785 56.0187 485.221 55.4202C485.658 54.8216 486.211 54.3179 486.848 53.9396C487.858 53.351 489.009 53.0451 490.178 53.054C492.019 53.0807 493.802 53.7021 495.261 54.8252C494.699 53.7086 494.548 52.4294 494.835 51.2126C495.123 49.9957 495.83 48.9192 496.833 48.1724C497.836 47.4256 499.07 47.0563 500.318 47.1295C501.566 47.2028 502.749 47.7138 503.657 48.5727C503.46 47.6686 503.538 46.7262 503.883 45.8673C504.227 45.0083 504.821 44.2725 505.588 43.7549C508.032 42.3379 512.106 43.56 514.09 45.9335C514.09 45.9335 516.818 39.3444 521.529 40.0884C522.556 40.2301 527.392 42.3733 527.268 44.1091C527.294 44.2197 527.294 44.335 527.268 44.4457C527.334 44.3098 527.411 44.1795 527.498 44.056C528.019 43.353 528.706 42.7896 529.497 42.4157C530.288 42.0419 531.159 41.8691 532.033 41.9128C533.926 42.0523 535.776 42.545 537.488 43.3652C541.155 44.8708 545.051 46.5535 547.177 49.9011C549.302 53.2488 548.222 58.8106 544.414 59.8733Z" fill="#263238"/>
<path d="M510.902 82.7224C510.379 86.2895 508.743 89.6001 506.225 92.1809C503.019 95.2452 500.292 92.1809 500.256 87.5225C500.256 83.3069 501.833 76.6293 505.57 75.3894C509.307 74.1495 511.61 78.064 510.902 82.7224Z" fill="#7F3E3B"/>
<path d="M567.582 129.732C566.253 126.189 560.054 122.647 556.246 122.647H553.731C548.657 122.691 543.589 123.016 538.551 123.621C528.426 124.741 518.373 126.432 508.439 128.687C503.87 129.891 499.459 131.414 495.952 132.725C491.489 134.496 488.867 135.683 488.867 135.683C488.867 135.683 493.756 168.239 496.289 200.582C497.688 218.596 497.103 236.468 497.564 248.76H573.126C575.73 233.988 575.322 221.111 575.535 194.436C575.641 178.37 573.037 144.309 567.582 129.732Z" fill="#263238"/>
<path opacity="0.2" d="M494.641 182.515C495.208 189.299 495.793 196.42 496.413 203.54C505.269 190.61 510.158 155.238 510.158 155.238L494.641 182.515Z" fill="black"/>
<path d="M484.581 138.057C473.758 144.15 463.148 175.253 463.148 175.253L487.946 193.94C497.405 184.995 511.238 162.801 512.744 153.927C515.153 140.395 501.921 128.35 484.581 138.057Z" fill="#263238"/>
<path d="M463.184 455.466C463.184 456.99 462.732 458.48 461.885 459.747C461.039 461.014 459.835 462.001 458.427 462.584C457.02 463.168 455.47 463.32 453.976 463.023C452.481 462.726 451.108 461.992 450.031 460.914C448.953 459.837 448.219 458.464 447.922 456.969C447.625 455.474 447.777 453.925 448.36 452.517C448.944 451.11 449.931 449.906 451.198 449.06C452.465 448.213 453.955 447.761 455.479 447.761C457.522 447.761 459.482 448.573 460.927 450.018C462.372 451.463 463.184 453.422 463.184 455.466Z" fill="#263238"/>
<path d="M578.209 455.466C578.209 456.99 578.661 458.48 579.508 459.747C580.354 461.014 581.558 462.001 582.966 462.584C584.374 463.168 585.923 463.32 587.417 463.023C588.912 462.726 590.285 461.992 591.363 460.914C592.44 459.837 593.174 458.464 593.471 456.969C593.769 455.474 593.616 453.925 593.033 452.517C592.45 451.11 591.462 449.906 590.195 449.06C588.928 448.213 587.438 447.761 585.914 447.761C583.871 447.761 581.911 448.573 580.466 450.018C579.021 451.463 578.209 453.422 578.209 455.466Z" fill="#263238"/>
<path d="M513.151 452.915C513.151 454.439 513.603 455.929 514.45 457.196C515.296 458.463 516.5 459.451 517.907 460.034C519.315 460.617 520.865 460.77 522.359 460.472C523.854 460.175 525.227 459.441 526.304 458.364C527.382 457.286 528.116 455.913 528.413 454.418C528.71 452.924 528.558 451.375 527.975 449.967C527.391 448.559 526.404 447.356 525.137 446.509C523.87 445.662 522.38 445.21 520.856 445.21C518.813 445.21 516.853 446.022 515.408 447.467C513.963 448.912 513.151 450.872 513.151 452.915Z" fill="#263238"/>
<path d="M518.465 443.492V428.596H496.395C492.062 428.59 487.739 428.994 483.482 429.801L442.389 437.771C441.467 437.951 440.647 438.471 440.091 439.228C439.536 439.985 439.285 440.924 439.39 441.857C439.495 442.79 439.948 443.65 440.658 444.265C441.368 444.88 442.283 445.205 443.222 445.175L518.465 443.492Z" fill="#263238"/>
<path d="M518.465 443.492V428.596H540.552C544.87 428.621 549.176 429.054 553.412 429.889L599.606 437.257C600.528 437.437 601.348 437.957 601.904 438.714C602.46 439.471 602.71 440.41 602.605 441.343C602.5 442.277 602.048 443.136 601.338 443.751C600.628 444.366 599.712 444.691 598.774 444.661L518.465 443.492Z" fill="#263238"/>
<path d="M532.121 360.402H504.791V428.614H532.121V360.402Z" fill="#263238"/>
<path d="M528.207 328.662H508.723V360.385H528.207V328.662Z" fill="#263238"/>
<path opacity="0.5" d="M508.723 337.979L528.207 342.885V328.662H508.723V337.979Z" fill="black"/>
<path d="M455.479 256.89H445.578V299.135H455.479V256.89Z" fill="#263238"/>
<path d="M505.127 328.662V145C505.125 141.564 505.859 138.167 507.28 135.038C508.7 131.91 510.775 129.122 513.364 126.862L526.453 115.402C530.862 111.536 536.531 109.413 542.395 109.433H589.669L612.731 134.089V328.662H505.127Z" fill="#407BFF"/>
<path d="M434.737 293.13H542.607V328.662H417.149C414.899 328.658 412.691 328.06 410.747 326.929C408.802 325.797 407.191 324.172 406.077 322.218C404.962 320.264 404.384 318.05 404.4 315.801C404.415 313.551 405.025 311.346 406.167 309.408C409.1 304.442 413.279 300.328 418.29 297.473C423.301 294.618 428.97 293.121 434.737 293.13Z" fill="#407BFF"/>
<path opacity="0.7" d="M612.731 134.089V328.662H417.149C414.899 328.658 412.691 328.06 410.747 326.929C408.802 325.797 407.191 324.172 406.077 322.218C404.962 320.264 404.384 318.05 404.4 315.801C404.415 313.551 405.025 311.346 406.167 309.408C409.101 304.443 413.28 300.331 418.291 297.476C423.302 294.621 428.971 293.123 434.737 293.13H489.062C493.342 293.13 497.446 291.43 500.472 288.404C503.498 285.378 505.198 281.274 505.198 276.994V145C505.196 141.564 505.93 138.167 507.35 135.038C508.771 131.91 510.846 129.122 513.434 126.862L526.524 115.402C530.933 111.536 536.602 109.413 542.465 109.433H589.74L612.731 134.089Z" fill="white"/>
<path d="M520.856 328.662V145C520.858 141.564 521.594 138.169 523.015 135.041C524.435 131.913 526.507 129.125 529.092 126.862L542.182 115.402C546.591 111.536 552.26 109.413 558.123 109.433H594.983C598.276 109.43 601.534 110.103 604.556 111.411C607.579 112.718 610.301 114.631 612.554 117.032L621.977 127.039C626.176 131.517 628.513 137.426 628.513 143.565V310.258C628.515 312.677 628.04 315.073 627.115 317.308C626.19 319.543 624.833 321.573 623.122 323.283C621.411 324.992 619.379 326.348 617.143 327.271C614.907 328.194 612.511 328.666 610.092 328.662H520.856Z" fill="#407BFF"/>
<path opacity="0.5" d="M520.856 328.662V145C520.858 141.564 521.594 138.169 523.015 135.041C524.435 131.913 526.507 129.125 529.092 126.862L542.182 115.402C546.591 111.536 552.26 109.413 558.123 109.433H594.983C598.276 109.43 601.534 110.103 604.556 111.411C607.579 112.718 610.301 114.631 612.554 117.032L621.977 127.039C626.176 131.517 628.513 137.426 628.513 143.565V310.258C628.515 312.677 628.04 315.073 627.115 317.308C626.19 319.543 624.833 321.573 623.122 323.283C621.411 324.992 619.379 326.348 617.143 327.271C614.907 328.194 612.511 328.666 610.092 328.662H520.856Z" fill="white"/>
<path d="M484.156 269.785C462.366 262.168 438.637 262.168 416.848 269.785C414.661 270.601 412.252 270.593 410.071 269.762C407.89 268.93 406.087 267.333 404.998 265.268C402.979 260.999 405.689 255.473 411.18 253.542C436.628 244.65 464.34 244.65 489.788 253.542C495.279 255.455 497.989 260.999 495.97 265.268C494.882 267.325 493.085 268.916 490.912 269.747C488.739 270.578 486.338 270.591 484.156 269.785Z" fill="#407BFF"/>
<path opacity="0.7" d="M484.156 269.785C462.366 262.168 438.637 262.168 416.848 269.785C414.661 270.601 412.252 270.593 410.071 269.762C407.89 268.93 406.087 267.333 404.998 265.268C402.979 260.999 405.689 255.473 411.18 253.542C436.628 244.65 464.34 244.65 489.788 253.542C495.279 255.455 497.989 260.999 495.97 265.268C494.882 267.325 493.085 268.916 490.912 269.747C488.739 270.578 486.338 270.591 484.156 269.785Z" fill="white"/>
<path d="M208.884 94.0411C208.513 95.0861 208.778 96.1312 209.469 96.3614C210.16 96.5917 211.01 95.9541 211.364 94.909C211.719 93.864 211.471 92.8012 210.797 92.571C210.124 92.3407 209.256 92.9783 208.884 94.0411Z" fill="#263238"/>
<path d="M208.69 95.1213C208.834 98.7684 209.472 102.379 210.585 105.855C209.692 106.107 208.756 106.165 207.84 106.025C206.923 105.884 206.047 105.548 205.271 105.04L208.69 95.1213Z" fill="#A02724"/>
<path d="M207.184 86.9205C207.249 86.9473 207.318 86.9611 207.388 86.9611C207.458 86.9611 207.527 86.9473 207.591 86.9205C208.37 86.6725 209.196 86.6073 210.004 86.7302C210.811 86.8531 211.58 87.1607 212.25 87.6291C212.319 87.6807 212.399 87.718 212.483 87.7388C212.567 87.7597 212.654 87.7636 212.74 87.7504C212.826 87.7373 212.908 87.7072 212.982 87.6621C213.056 87.6169 213.12 87.5575 213.171 87.4874C213.269 87.3673 213.322 87.2171 213.322 87.0622C213.322 86.9074 213.269 86.7572 213.171 86.6372C212.339 86.0188 211.371 85.6079 210.349 85.4385C209.326 85.269 208.277 85.346 207.29 85.663C207.129 85.7231 206.996 85.843 206.921 85.9979C206.845 86.1528 206.831 86.3309 206.883 86.4955C206.913 86.5913 206.966 86.6784 207.036 86.7493C207.107 86.8203 207.195 86.873 207.29 86.9028L207.184 86.9205Z" fill="#263238"/>
<path d="M170.041 97.9025C172.025 107.981 173.991 126.455 166.941 133.186C166.941 133.186 169.704 143.406 188.444 143.406C209.044 143.406 198.292 133.186 198.292 133.186C187.045 130.494 188.851 122.151 190.818 114.322L170.041 97.9025Z" fill="#B55B52"/>
<path d="M174.628 79.623C170.944 92.8012 168.11 100.329 172.326 109.203C178.649 122.576 200.754 124.312 206.777 109.008C211.364 94.8381 215.899 80.0127 205.005 70.5011C202.624 68.3919 199.743 66.9257 196.636 66.2415C193.529 65.5573 190.298 65.6776 187.251 66.5911C184.203 67.5047 181.44 69.1811 179.221 71.4617C177.003 73.7423 175.404 76.5514 174.575 79.623H174.628Z" fill="#B55B52"/>
<path d="M160.352 84.0156C159.396 79.1624 159.148 73.8486 161.574 69.5267C164.001 65.2049 169.864 62.5657 174.132 65.0809C175.52 62.1592 177.571 59.6028 180.123 57.6161C182.676 55.6294 185.657 54.2676 188.83 53.6397C192.003 53.0118 195.278 53.1351 198.395 54C201.511 54.8648 204.382 56.447 206.777 58.6201C209.173 60.7932 211.026 63.4968 212.19 66.5145C213.353 69.5323 213.794 72.7805 213.477 75.9992C213.161 79.2178 212.095 82.3177 210.365 85.0507C208.636 87.7837 206.291 90.074 203.518 91.7383C204.492 88.1072 205.484 84.4939 206.458 80.8628C205.588 85.9184 202.905 90.4837 198.912 93.7044L200.684 82.8466C200.405 85.4096 199.533 87.8725 198.138 90.04C196.742 92.2076 194.86 94.0201 192.642 95.334L194.714 87.7353C193.664 91.2295 192.326 94.6302 190.711 97.9023C188.94 99.9393 187.807 113.259 181.713 113.684C160.777 117.847 162.584 95.3517 160.352 84.0156Z" fill="#263238"/>
<path d="M188.533 90.3214C188.179 93.7001 188.938 97.1019 190.694 100.01C193.049 103.801 196.503 102.348 197.779 98.4692C198.912 94.9267 199.036 88.8158 195.759 86.3538C192.483 83.8917 189.029 86.2652 188.533 90.3214Z" fill="#B55B52"/>
<path d="M138.601 217.994C136.351 217.25 125.812 211.83 124.13 212.804C129.001 200.405 132.03 198.474 134.244 190.575C134.86 188.613 134.967 186.527 134.555 184.513C134.143 182.499 133.225 180.623 131.888 179.061C128.77 174.881 127.69 172.774 122.518 173.287C115.433 185.19 106.417 199.856 102.91 213.3C101.723 217.817 100.873 221.253 103.565 225.079C105.939 228.444 110.314 229.79 114.423 230.162C124.289 231.048 138.937 229.241 138.743 223.378C138.636 219.676 138.601 217.994 138.601 217.994Z" fill="#B55B52"/>
<path d="M136.936 217.551L145.296 214.841L144.552 229.949C144.552 229.949 137.857 230.18 134.279 225.698L136.936 217.551Z" fill="#B55B52"/>
<path d="M155.747 214.593L154.56 227.062L144.552 229.95L145.296 214.841L155.747 214.593Z" fill="#B55B52"/>
<path d="M251.607 228.284C251.607 228.284 239.899 219.109 224.631 188.998C222.364 184.782 220.203 180.514 218.113 176.227C216.023 171.941 214.039 167.654 212.126 163.102L230.228 155.309C233.948 163.421 239.757 171.799 243.867 179.858C247.976 187.917 257.665 207.012 258.887 208.783C259.489 209.704 260.145 210.466 260.765 211.316L261.703 212.556L250.031 226.053L251.607 228.284Z" fill="#B55B52"/>
<path d="M266.929 169.514L263.386 165.193L261.721 158.727L272.65 148.578C274.321 150.703 275.808 152.967 277.096 155.344C277.377 155.891 277.511 156.501 277.485 157.116L277.042 168.505L266.929 169.514Z" fill="#B55B52"/>
<path d="M261.792 151.749L269.957 144.327L272.543 148.667L261.633 158.763L261.792 151.749Z" fill="#B55B52"/>
<path d="M267.088 166.397C267.371 165.175 267.619 167.566 268.434 166.609C270.843 163.704 274.35 163.403 276.44 166.609C278.53 169.815 276.741 201.361 273.411 211.263C271.197 217.834 270.011 223.077 264.343 227.08C262.052 228.848 259.264 229.851 256.372 229.95C254.932 229.967 253.517 229.573 252.293 228.813C251.069 228.054 250.088 226.961 249.464 225.663C247.693 221.536 254.034 206.658 256.266 201.857C263.262 186.749 263.74 180.673 267.088 166.397Z" fill="#B55B52"/>
<path d="M243.654 165.033L258.125 164.891C260.191 165.024 262.259 164.697 264.183 163.935C266.54 162.559 268.302 160.356 269.125 157.753C271.18 152.439 271.357 146.736 272.154 141.174C272.951 135.613 274.651 129.767 278.867 126.03C271.18 127.057 257.612 124.648 251.678 130.936C248.561 134.284 243.052 165.033 243.654 165.033Z" fill="#407BFF"/>
<path opacity="0.5" d="M243.654 165.033L258.125 164.891C260.191 165.024 262.259 164.697 264.183 163.935C266.54 162.559 268.302 160.356 269.125 157.753C271.18 152.439 271.357 146.736 272.154 141.174C272.951 135.613 274.651 129.767 278.867 126.03C271.18 127.057 257.612 124.648 251.678 130.936C248.561 134.284 243.052 165.033 243.654 165.033Z" fill="white"/>
<path d="M268.416 143.53C267.584 143.76 267.035 146.718 267.212 147.568L268.027 149.021L269.674 156.106L275.2 153.059L270.223 144.203C270.033 143.913 269.755 143.692 269.43 143.571C269.105 143.449 268.75 143.435 268.416 143.53Z" fill="#B55B52"/>
<path d="M143.596 135.719C130.666 138.677 111.536 178.973 111.536 178.973L137.485 196.685C144.958 186.022 151.704 174.867 157.677 163.297C165.347 147.25 156.81 132.69 143.596 135.719Z" fill="#407BFF"/>
<path d="M162.478 136.693C160.99 133.451 159.378 129.749 162.726 128.598C166.427 127.323 186.691 126.012 193.669 128.403C194.584 128.651 195.44 129.078 196.189 129.657C196.938 130.237 197.565 130.96 198.034 131.782C198.503 132.605 198.805 133.513 198.922 134.453C199.039 135.393 198.97 136.347 198.717 137.26V137.384L162.478 136.693Z" fill="#263238"/>
<path opacity="0.2" d="M151.584 158.993L133.146 193.71L137.485 196.685C137.485 196.685 145.845 185.048 151.655 174.987L151.584 158.993Z" fill="black"/>
<path d="M222.187 153.449C224.985 167.619 218.449 201.273 218.52 256.182H144.8C144.322 245.094 152.399 218.808 142.356 166.45C142.037 164.679 141.896 136.073 143.596 135.772C150.735 134.524 157.937 133.673 165.17 133.221C175.612 132.619 186.079 132.619 196.521 133.221C200.79 133.664 207.503 136.303 211.754 137.826C218.361 140.165 220.841 146.488 222.187 153.449Z" fill="#407BFF"/>
<path opacity="0.2" d="M202.703 167.53C204.616 179.168 212.25 194.542 219.848 203.576C220.15 196.969 220.823 190.061 220.805 184.765L202.703 167.53Z" fill="black"/>
<path d="M197.389 150.03C195.618 163.084 221.301 196.402 221.301 196.402L247.144 178.689C247.144 178.689 239.97 160.321 227.908 148.277C214.216 134.496 199.461 135.86 197.389 150.03Z" fill="#407BFF"/>
<path d="M281.913 438.976H295.694L298.829 407.04H285.049L281.913 438.976Z" fill="#B55B52"/>
<path opacity="0.2" d="M298.616 408.971L297.022 425.426H283.224L284.836 408.971H298.616Z" fill="black"/>
<path d="M227.554 438.976H241.334L248.26 407.04H234.479L227.554 438.976Z" fill="#B55B52"/>
<g opacity="0.2">
<path opacity="0.2" d="M234.178 408.74H247.958L244.38 425.195H230.6L234.178 408.74Z" fill="black"/>
</g>
<path d="M296.473 432.776H281.435C281.124 432.813 280.835 432.956 280.619 433.183C280.402 433.409 280.271 433.704 280.248 434.016L277.521 449.78C277.364 450.392 277.427 451.039 277.699 451.609C277.971 452.179 278.434 452.635 279.009 452.898C279.173 452.924 279.34 452.924 279.504 452.898C284.925 452.791 292.771 452.366 299.591 452.366C307.579 452.366 314.469 452.915 323.821 452.915C329.489 452.915 331.066 445.512 328.692 444.856C317.905 441.81 309.102 441.491 299.785 434.034C298.858 433.248 297.689 432.804 296.473 432.776Z" fill="#263238"/>
<path d="M307.42 437.895C309.191 437.895 310.962 437.647 311.476 436.85C311.622 436.64 311.7 436.389 311.7 436.133C311.7 435.876 311.622 435.626 311.476 435.416C311.24 435.043 310.874 434.771 310.448 434.654C308.146 434.034 303.363 436.779 303.133 436.903C303.073 436.933 303.024 436.983 302.995 437.044C302.966 437.105 302.959 437.174 302.974 437.24C302.983 437.304 303.012 437.364 303.056 437.412C303.1 437.459 303.158 437.492 303.222 437.506C304.605 437.768 306.011 437.898 307.42 437.895ZM309.616 435.221H310.236C310.369 435.248 310.494 435.303 310.604 435.382C310.714 435.462 310.806 435.564 310.873 435.681C311.104 436.089 311.033 436.283 310.873 436.39C310.236 437.293 306.746 437.311 304.178 436.939C305.868 436.029 307.711 435.44 309.616 435.203V435.221Z" fill="#407BFF"/>
<path d="M303.257 437.506H303.399C305.064 436.762 308.358 433.786 308.093 432.192C308.093 431.82 307.774 431.377 306.888 431.271C306.247 431.223 305.611 431.426 305.117 431.838C303.346 433.272 302.991 436.992 302.974 437.151C302.965 437.208 302.972 437.266 302.994 437.319C303.016 437.372 303.052 437.418 303.098 437.452C303.144 437.486 303.2 437.504 303.257 437.506ZM306.622 431.926H306.817C307.402 431.926 307.437 432.227 307.455 432.298C307.614 433.237 305.365 435.575 303.664 436.584C303.809 435.026 304.427 433.548 305.436 432.351C305.773 432.082 306.191 431.932 306.622 431.926Z" fill="#407BFF"/>
<path d="M242.308 432.776H226.827C226.518 432.813 226.231 432.957 226.018 433.184C225.804 433.411 225.677 433.705 225.658 434.016L222.931 449.78C222.782 450.405 222.859 451.062 223.148 451.635C223.436 452.208 223.917 452.662 224.507 452.915C224.654 452.933 224.803 452.933 224.95 452.915C230.352 452.809 232.991 452.384 239.793 452.384C243.991 452.384 249.358 452.933 255.15 452.933C260.942 452.933 261.686 445.529 259.312 444.874C248.685 441.863 247.958 437.789 244.558 433.75C244.276 433.435 243.928 433.184 243.54 433.016C243.152 432.848 242.731 432.766 242.308 432.776Z" fill="#263238"/>
<path d="M250.403 439.649C250.987 439.729 251.582 439.691 252.151 439.536C252.72 439.38 253.252 439.112 253.715 438.745C253.878 438.522 253.965 438.252 253.965 437.975C253.965 437.698 253.878 437.428 253.715 437.204C253.61 437.01 253.464 436.841 253.286 436.709C253.109 436.578 252.904 436.487 252.688 436.443C250.668 435.965 246.86 438.568 246.701 438.675C246.65 438.714 246.611 438.765 246.586 438.824C246.561 438.883 246.552 438.948 246.559 439.011C246.569 439.073 246.599 439.131 246.643 439.175C246.688 439.219 246.745 439.249 246.807 439.259C247.988 439.521 249.193 439.652 250.403 439.649ZM252.174 437.027H252.564C252.689 437.051 252.807 437.101 252.911 437.174C253.015 437.248 253.102 437.342 253.166 437.452C253.467 438.002 253.29 438.214 253.166 438.303C252.581 439.064 249.765 439.082 247.693 438.745C249.024 437.831 250.543 437.226 252.138 436.974L252.174 437.027Z" fill="#407BFF"/>
<path d="M246.984 439.277C248.419 438.497 251.182 435.486 250.881 433.963C250.835 433.719 250.706 433.499 250.515 433.34C250.324 433.182 250.084 433.095 249.836 433.095C249.589 433.071 249.34 433.096 249.103 433.169C248.865 433.242 248.645 433.362 248.454 433.52C246.86 434.831 246.524 438.834 246.506 438.976C246.503 439.035 246.517 439.095 246.545 439.148C246.573 439.201 246.614 439.245 246.665 439.277H246.984ZM249.765 433.697H249.907C250.332 433.697 250.367 433.945 250.385 434.034C250.562 434.937 248.791 437.222 247.374 438.303C247.484 436.734 248.05 435.231 249.003 433.981C249.216 433.8 249.486 433.699 249.765 433.697Z" fill="#407BFF"/>
<path d="M196.432 256.146C196.432 256.146 261.703 283.105 275.2 303.811C267.176 356.488 252.776 416.498 252.776 416.498H228.227C228.266 390.533 230.392 364.613 234.585 338.988C238.128 274.603 122.252 341.22 144.765 256.146H196.432Z" fill="#263238"/>
<path opacity="0.3" d="M241.564 300.587C236.992 300.857 232.439 301.383 227.925 302.164L213.631 304.36C221.005 310.555 228.786 316.248 236.923 321.4C241.865 324.535 247.25 327.546 253.077 327.564C259.631 327.564 277.414 319.168 274.474 310.435C271.534 301.703 249.003 300.268 241.564 300.587Z" fill="black"/>
<path d="M218.538 256.146C218.538 256.146 278.867 263.94 312.131 282.875C322.369 288.702 320.987 307.424 320.669 319.752C319.955 352.834 313.606 385.552 301.893 416.498H281.382C281.382 416.498 282.427 383.075 281.736 329.14C281.524 312.968 248.88 307.637 216.979 305.759C203.47 304.91 190.468 300.302 179.439 292.456C168.409 284.61 159.792 273.837 154.56 261.354L152.381 256.146H218.538Z" fill="#263238"/>
<path d="M306.87 411.007C306.977 411.007 305.542 420.696 305.542 420.696H277.202L276.422 412.052L306.87 411.007Z" fill="#407BFF"/>
<path d="M255.15 411.007C255.256 411.007 252.546 420.696 252.546 420.696H224.206L224.719 412.052L255.15 411.007Z" fill="#407BFF"/>
<path d="M179.003 305.033L158.687 454.722L155.021 454.208L170.696 303.9L179.003 305.033Z" fill="#407BFF"/>
<path opacity="0.4" d="M178.277 310.4L158.687 454.722L155.021 454.208L170.023 310.365L178.277 310.4Z" fill="black"/>
<path d="M250.42 310.382H135.289C135.289 308.656 135.629 306.947 136.289 305.353C136.95 303.758 137.918 302.309 139.138 301.089C140.359 299.869 141.807 298.901 143.402 298.24C144.996 297.58 146.705 297.24 148.431 297.24H237.278C239.004 297.24 240.713 297.58 242.307 298.24C243.902 298.901 245.351 299.869 246.571 301.089C247.791 302.309 248.76 303.758 249.42 305.353C250.08 306.947 250.42 308.656 250.42 310.382Z" fill="#407BFF"/>
<path opacity="0.7" d="M250.42 310.382H135.289C135.289 308.656 135.629 306.947 136.289 305.353C136.95 303.758 137.918 302.309 139.138 301.089C140.359 299.869 141.807 298.901 143.402 298.24C144.996 297.58 146.705 297.24 148.431 297.24H237.278C239.004 297.24 240.713 297.58 242.307 298.24C243.902 298.901 245.351 299.869 246.571 301.089C247.791 302.309 248.76 303.758 249.42 305.353C250.08 306.947 250.42 308.656 250.42 310.382Z" fill="white"/>
<path d="M140.62 310.365L123.262 455.909H126.982L148.998 310.365H140.62Z" fill="#407BFF"/>
<path d="M245.089 310.365L262.447 455.909H258.728L236.729 310.365H245.089Z" fill="#407BFF"/>
<path opacity="0.4" d="M245.089 310.365L262.447 455.909H258.728L236.729 310.365H245.089Z" fill="black"/>
<path d="M221.868 310.365L222.204 455.909H218.502L213.49 310.365H221.868Z" fill="#407BFF"/>
</svg>
