<svg width="229" height="29" viewBox="0 0 229 29" fill="none" xmlns="http://www.w3.org/2000/svg">
<path d="M10.054 3.586V5.401C9.55533 5.401 9.108 5.44867 8.712 5.544C8.32333 5.63933 8.02267 5.80433 7.81 6.039C7.60467 6.27367 7.524 6.6 7.568 7.018L7.975 11.055C8.04833 11.7443 7.98967 12.3127 7.799 12.76C7.61567 13.2 7.31867 13.541 6.908 13.783C6.49733 14.025 5.995 14.1973 5.401 14.3C6.017 14.4027 6.53033 14.5713 6.941 14.806C7.35167 15.0333 7.645 15.367 7.821 15.807C7.997 16.247 8.04833 16.8263 7.975 17.545L7.568 21.582C7.524 22 7.60467 22.3263 7.81 22.561C8.02267 22.803 8.32333 22.968 8.712 23.056C9.108 23.1513 9.55533 23.199 10.054 23.199V25.014C9.29133 25.014 8.59833 24.9517 7.975 24.827C7.359 24.7097 6.83467 24.5117 6.402 24.233C5.97667 23.9543 5.665 23.5767 5.467 23.1C5.27633 22.6307 5.21767 22.0477 5.291 21.351L5.698 17.556C5.74933 17.0353 5.67967 16.61 5.489 16.28C5.30567 15.9427 4.972 15.6933 4.488 15.532C4.004 15.3707 3.33667 15.29 2.486 15.29V13.31C3.32933 13.31 3.993 13.233 4.477 13.079C4.96833 12.9177 5.30567 12.672 5.489 12.342C5.67967 12.0047 5.74933 11.5757 5.698 11.055L5.291 7.26C5.21767 6.556 5.27633 5.96567 5.467 5.489C5.665 5.01233 5.97667 4.63833 6.402 4.367C6.83467 4.08833 7.359 3.89033 7.975 3.773C8.59833 3.64833 9.29133 3.586 10.054 3.586ZM214.209 3.586C214.971 3.586 215.661 3.64833 216.277 3.773C216.9 3.89033 217.424 4.08833 217.85 4.367C218.282 4.64567 218.598 5.02333 218.796 5.5C218.994 5.96933 219.052 6.55233 218.972 7.249L218.565 11.055C218.513 11.5757 218.59 12.0047 218.796 12.342C219.008 12.672 219.36 12.9177 219.852 13.079C220.343 13.233 220.985 13.31 221.777 13.31V15.29C220.985 15.29 220.343 15.3707 219.852 15.532C219.36 15.6933 219.008 15.9427 218.796 16.28C218.59 16.61 218.513 17.0353 218.565 17.556L218.972 21.34C219.045 22.044 218.983 22.6343 218.785 23.111C218.594 23.5877 218.282 23.9617 217.85 24.233C217.424 24.5117 216.9 24.7097 216.277 24.827C215.661 24.9517 214.971 25.014 214.209 25.014V23.199C214.707 23.199 215.151 23.1513 215.54 23.056C215.936 22.968 216.236 22.803 216.442 22.561C216.654 22.3263 216.739 22 216.695 21.582L216.288 17.545C216.214 16.8263 216.269 16.247 216.453 15.807C216.643 15.367 216.955 15.0333 217.388 14.806C217.82 14.5713 218.363 14.4063 219.016 14.311C218.363 14.2083 217.82 14.036 217.388 13.794C216.955 13.5447 216.643 13.2 216.453 12.76C216.269 12.32 216.214 11.7517 216.288 11.055L216.695 7.018C216.739 6.6 216.654 6.27367 216.442 6.039C216.236 5.80433 215.939 5.63933 215.551 5.544C215.162 5.44867 214.715 5.401 214.209 5.401V3.586Z" fill="#407BFF"/>
<path d="M24.9284 8.91L25.5884 10.956C25.1264 11.11 24.6167 11.2127 24.0594 11.264C23.5094 11.3153 22.8934 11.341 22.2114 11.341C22.9081 11.649 23.4324 12.045 23.7844 12.529C24.1364 13.0057 24.3124 13.5923 24.3124 14.289C24.3124 15.0443 24.1291 15.719 23.7624 16.313C23.3957 16.907 22.8714 17.3727 22.1894 17.71C21.5074 18.0473 20.6897 18.216 19.7364 18.216C19.3991 18.216 19.1057 18.2013 18.8564 18.172C18.6144 18.1427 18.3761 18.095 18.1414 18.029C17.9947 18.1317 17.8701 18.271 17.7674 18.447C17.6721 18.6157 17.6244 18.7953 17.6244 18.986C17.6244 19.2207 17.7197 19.426 17.9104 19.602C18.1084 19.7707 18.4971 19.855 19.0764 19.855H21.1004C21.9291 19.855 22.6587 19.998 23.2894 20.284C23.9274 20.5627 24.4261 20.9477 24.7854 21.439C25.1521 21.923 25.3354 22.473 25.3354 23.089C25.3354 24.2477 24.8367 25.146 23.8394 25.784C22.8421 26.422 21.4047 26.741 19.5274 26.741C18.2001 26.741 17.1587 26.6053 16.4034 26.334C15.6481 26.0627 15.1164 25.6593 14.8084 25.124C14.5004 24.5887 14.3464 23.9323 14.3464 23.155H16.5574C16.5574 23.5583 16.6344 23.892 16.7884 24.156C16.9497 24.42 17.2467 24.618 17.6794 24.75C18.1121 24.882 18.7354 24.948 19.5494 24.948C20.3634 24.948 21.0087 24.8783 21.4854 24.739C21.9694 24.607 22.3177 24.4127 22.5304 24.156C22.7504 23.9067 22.8604 23.606 22.8604 23.254C22.8604 22.7847 22.6551 22.4217 22.2444 22.165C21.8337 21.9083 21.2837 21.78 20.5944 21.78H18.6034C17.5034 21.78 16.6967 21.5563 16.1834 21.109C15.6774 20.6617 15.4244 20.141 15.4244 19.547C15.4244 19.151 15.5344 18.7697 15.7544 18.403C15.9817 18.0363 16.3044 17.7173 16.7224 17.446C16.0257 17.0793 15.5161 16.6357 15.1934 16.115C14.8781 15.587 14.7204 14.949 14.7204 14.201C14.7204 13.3797 14.9257 12.661 15.3364 12.045C15.7471 11.429 16.3154 10.9487 17.0414 10.604C17.7747 10.2593 18.6181 10.087 19.5714 10.087C20.5027 10.087 21.2801 10.0393 21.9034 9.944C22.5267 9.84133 23.0694 9.69833 23.5314 9.515C24.0007 9.33167 24.4664 9.13 24.9284 8.91ZM19.5934 11.781C18.8087 11.781 18.2184 12.0047 17.8224 12.452C17.4264 12.892 17.2284 13.4677 17.2284 14.179C17.2284 14.9123 17.4301 15.5027 17.8334 15.95C18.2441 16.39 18.8417 16.61 19.6264 16.61C20.3524 16.61 20.9061 16.3973 21.2874 15.972C21.6761 15.5467 21.8704 14.9417 21.8704 14.157C21.8704 13.365 21.6797 12.771 21.2984 12.375C20.9171 11.979 20.3487 11.781 19.5934 11.781ZM37.2178 19.151C37.2178 19.6057 37.2875 19.9393 37.4268 20.152C37.5661 20.3573 37.7898 20.5113 38.0978 20.614L37.5478 22.286C36.9758 22.22 36.4845 22.0623 36.0738 21.813C35.6631 21.5637 35.3515 21.186 35.1388 20.68C34.7135 21.2153 34.1745 21.6187 33.5218 21.89C32.8691 22.1613 32.1725 22.297 31.4318 22.297C30.2585 22.297 29.3271 21.967 28.6378 21.307C27.9558 20.6397 27.6148 19.767 27.6148 18.689C27.6148 17.4643 28.0915 16.522 29.0448 15.862C29.9981 15.202 31.3621 14.872 33.1368 14.872H34.7978V14.113C34.7978 13.365 34.5705 12.826 34.1158 12.496C33.6685 12.166 33.0341 12.001 32.2128 12.001C31.8315 12.001 31.3695 12.0523 30.8268 12.155C30.2841 12.2503 29.7158 12.4007 29.1218 12.606L28.5168 10.868C29.2428 10.5967 29.9541 10.3987 30.6508 10.274C31.3475 10.142 31.9928 10.076 32.5868 10.076C34.1415 10.076 35.3001 10.4207 36.0628 11.11C36.8328 11.7993 37.2178 12.7527 37.2178 13.97V19.151ZM32.1798 20.482C32.6785 20.482 33.1661 20.35 33.6428 20.086C34.1195 19.822 34.5045 19.4517 34.7978 18.975V16.412H33.4338C32.2751 16.412 31.4465 16.6063 30.9478 16.995C30.4491 17.3763 30.1998 17.9043 30.1998 18.579C30.1998 19.195 30.3648 19.668 30.6948 19.998C31.0321 20.3207 31.5271 20.482 32.1798 20.482ZM43.9962 11.77C44.3996 11.242 44.8689 10.8277 45.4042 10.527C45.9469 10.2263 46.5409 10.076 47.1862 10.076C48.2056 10.076 49.0306 10.329 49.6612 10.835C50.2992 11.3337 50.7649 12.0413 51.0582 12.958C51.3589 13.8673 51.5092 14.938 51.5092 16.17C51.5092 17.3507 51.3332 18.403 50.9812 19.327C50.6292 20.251 50.1086 20.977 49.4192 21.505C48.7372 22.033 47.8939 22.297 46.8892 22.297C45.5912 22.297 44.5719 21.8167 43.8312 20.856L43.6992 22H41.5322V5.72L43.9962 5.445V11.77ZM46.2732 20.416C47.1092 20.416 47.7546 20.075 48.2092 19.393C48.6712 18.711 48.9022 17.6403 48.9022 16.181C48.9022 15.191 48.8106 14.388 48.6272 13.772C48.4439 13.1487 48.1726 12.694 47.8132 12.408C47.4612 12.122 47.0286 11.979 46.5152 11.979C45.9652 11.979 45.4812 12.144 45.0632 12.474C44.6452 12.804 44.2896 13.1927 43.9962 13.64V19.074C44.2676 19.492 44.5939 19.822 44.9752 20.064C45.3639 20.2987 45.7966 20.416 46.2732 20.416ZM54.8336 22V20.24H56.5386V12.133H54.8336V10.384H58.4196L58.8706 13.079C59.3033 12.1037 59.8386 11.363 60.4766 10.857C61.122 10.3437 61.9506 10.087 62.9626 10.087C63.3073 10.087 63.6153 10.1163 63.8866 10.175C64.1653 10.2263 64.4403 10.296 64.7116 10.384L63.9746 12.496C63.74 12.43 63.52 12.3823 63.3146 12.353C63.1093 12.3163 62.882 12.298 62.6326 12.298C61.7893 12.298 61.0596 12.6133 60.4436 13.244C59.835 13.8747 59.3546 14.7693 59.0026 15.928V20.24H61.3456V22H54.8336ZM62.5336 14.663V11.803L62.8416 10.384H64.7116L64.2936 14.663H62.5336ZM74.262 10.384V20.196H77.419V22H68.322V20.196H71.798V12.188H68.432V10.384H74.262ZM72.546 4.697C73.03 4.697 73.4187 4.84367 73.712 5.137C74.0127 5.43033 74.163 5.797 74.163 6.237C74.163 6.677 74.0127 7.04733 73.712 7.348C73.4187 7.64867 73.03 7.799 72.546 7.799C72.0767 7.799 71.6917 7.64867 71.391 7.348C71.0904 7.04733 70.94 6.677 70.94 6.237C70.94 5.797 71.0904 5.43033 71.391 5.137C71.6917 4.84367 72.0767 4.697 72.546 4.697ZM83.1524 16.984C83.2038 17.776 83.3724 18.425 83.6584 18.931C83.9444 19.4297 84.3184 19.7963 84.7804 20.031C85.2498 20.2657 85.7631 20.383 86.3204 20.383C86.8924 20.383 87.4204 20.295 87.9044 20.119C88.3884 19.943 88.8761 19.6937 89.3674 19.371L90.4344 20.845C89.8918 21.285 89.2574 21.637 88.5314 21.901C87.8054 22.165 87.0281 22.297 86.1994 22.297C84.9968 22.297 83.9774 22.0403 83.1414 21.527C82.3128 21.0137 81.6821 20.2987 81.2494 19.382C80.8168 18.4653 80.6004 17.4057 80.6004 16.203C80.6004 15.037 80.8131 13.9957 81.2384 13.079C81.6638 12.155 82.2724 11.4253 83.0644 10.89C83.8564 10.3473 84.8024 10.076 85.9024 10.076C86.9364 10.076 87.8238 10.3107 88.5644 10.78C89.3124 11.2493 89.8881 11.9167 90.2914 12.782C90.7021 13.64 90.9074 14.674 90.9074 15.884C90.9074 16.082 90.9001 16.28 90.8854 16.478C90.8781 16.6687 90.8671 16.8373 90.8524 16.984H83.1524ZM85.9244 11.902C85.1544 11.902 84.5164 12.177 84.0104 12.727C83.5118 13.277 83.2221 14.135 83.1414 15.301H88.5204C88.4984 14.2083 88.2638 13.3687 87.8164 12.782C87.3764 12.1953 86.7458 11.902 85.9244 11.902ZM99.4018 5.72V18.832C99.4018 19.3673 99.5632 19.7487 99.8858 19.976C100.216 20.196 100.641 20.306 101.162 20.306C101.499 20.306 101.818 20.2693 102.119 20.196C102.42 20.1227 102.713 20.031 102.999 19.921L103.626 21.637C103.281 21.813 102.856 21.967 102.35 22.099C101.851 22.231 101.279 22.297 100.634 22.297C99.4678 22.297 98.5585 21.9707 97.9058 21.318C97.2605 20.658 96.9378 19.756 96.9378 18.612V7.535H93.4288V5.72H99.4018ZM106.631 26.026V23.991H117.631V26.026H106.631ZM130.383 21.384C129.957 21.6553 129.448 21.8753 128.854 22.044C128.26 22.2127 127.64 22.297 126.995 22.297C125.645 22.297 124.619 21.9487 123.915 21.252C123.218 20.548 122.87 19.624 122.87 18.48V12.177H120.285V10.384H122.87V7.788L125.334 7.491V10.384H129.25L128.975 12.177H125.334V18.458C125.334 19.0813 125.488 19.547 125.796 19.855C126.111 20.1557 126.624 20.306 127.336 20.306C127.761 20.306 128.153 20.2547 128.513 20.152C128.872 20.0493 129.198 19.9173 129.492 19.756L130.383 21.384ZM135.918 16.984C135.969 17.776 136.138 18.425 136.424 18.931C136.71 19.4297 137.084 19.7963 137.546 20.031C138.015 20.2657 138.529 20.383 139.086 20.383C139.658 20.383 140.186 20.295 140.67 20.119C141.154 19.943 141.642 19.6937 142.133 19.371L143.2 20.845C142.657 21.285 142.023 21.637 141.297 21.901C140.571 22.165 139.794 22.297 138.965 22.297C137.762 22.297 136.743 22.0403 135.907 21.527C135.078 21.0137 134.448 20.2987 134.015 19.382C133.582 18.4653 133.366 17.4057 133.366 16.203C133.366 15.037 133.579 13.9957 134.004 13.079C134.429 12.155 135.038 11.4253 135.83 10.89C136.622 10.3473 137.568 10.076 138.668 10.076C139.702 10.076 140.589 10.3107 141.33 10.78C142.078 11.2493 142.654 11.9167 143.057 12.782C143.468 13.64 143.673 14.674 143.673 15.884C143.673 16.082 143.666 16.28 143.651 16.478C143.644 16.6687 143.633 16.8373 143.618 16.984H135.918ZM138.69 11.902C137.92 11.902 137.282 12.177 136.776 12.727C136.277 13.277 135.988 14.135 135.907 15.301H141.286C141.264 14.2083 141.029 13.3687 140.582 12.782C140.142 12.1953 139.511 11.902 138.69 11.902ZM151.716 10.076C152.853 10.076 153.81 10.329 154.587 10.835C155.365 11.341 155.951 12.0487 156.347 12.958C156.751 13.8673 156.952 14.938 156.952 16.17C156.952 17.3947 156.747 18.469 156.336 19.393C155.933 20.3097 155.339 21.0247 154.554 21.538C153.777 22.044 152.827 22.297 151.705 22.297C150.583 22.297 149.63 22.0513 148.845 21.56C148.068 21.0613 147.474 20.3537 147.063 19.437C146.66 18.5203 146.458 17.4387 146.458 16.192C146.458 14.982 146.66 13.9187 147.063 13.002C147.474 12.0853 148.072 11.3703 148.856 10.857C149.641 10.3363 150.594 10.076 151.716 10.076ZM151.716 11.99C150.829 11.99 150.162 12.331 149.714 13.013C149.267 13.6877 149.043 14.7473 149.043 16.192C149.043 17.6293 149.263 18.689 149.703 19.371C150.151 20.053 150.818 20.394 151.705 20.394C152.593 20.394 153.256 20.053 153.696 19.371C154.144 18.689 154.367 17.622 154.367 16.17C154.367 14.74 154.147 13.6877 153.707 13.013C153.267 12.331 152.604 11.99 151.716 11.99ZM167.075 5.445L169.539 5.72V22H167.372L167.196 20.57C166.8 21.12 166.327 21.5453 165.777 21.846C165.227 22.1467 164.611 22.297 163.929 22.297C162.932 22.297 162.11 22.044 161.465 21.538C160.82 21.0247 160.339 20.3097 160.024 19.393C159.716 18.469 159.562 17.402 159.562 16.192C159.562 15.0113 159.745 13.9627 160.112 13.046C160.479 12.122 161.003 11.396 161.685 10.868C162.367 10.34 163.188 10.076 164.149 10.076C164.758 10.076 165.304 10.186 165.788 10.406C166.272 10.6187 166.701 10.9303 167.075 11.341V5.445ZM164.798 11.968C163.969 11.968 163.324 12.3127 162.862 13.002C162.4 13.684 162.169 14.7473 162.169 16.192C162.169 17.182 162.264 17.9887 162.455 18.612C162.646 19.228 162.921 19.6827 163.28 19.976C163.639 20.262 164.072 20.405 164.578 20.405C165.135 20.405 165.619 20.2437 166.03 19.921C166.441 19.5983 166.789 19.2097 167.075 18.755V13.255C166.789 12.8443 166.455 12.529 166.074 12.309C165.693 12.0817 165.267 11.968 164.798 11.968ZM178.099 10.076C179.236 10.076 180.193 10.329 180.97 10.835C181.748 11.341 182.334 12.0487 182.73 12.958C183.134 13.8673 183.335 14.938 183.335 16.17C183.335 17.3947 183.13 18.469 182.719 19.393C182.316 20.3097 181.722 21.0247 180.937 21.538C180.16 22.044 179.21 22.297 178.088 22.297C176.966 22.297 176.013 22.0513 175.228 21.56C174.451 21.0613 173.857 20.3537 173.446 19.437C173.043 18.5203 172.841 17.4387 172.841 16.192C172.841 14.982 173.043 13.9187 173.446 13.002C173.857 12.0853 174.455 11.3703 175.239 10.857C176.024 10.3363 176.977 10.076 178.099 10.076ZM178.099 11.99C177.212 11.99 176.545 12.331 176.097 13.013C175.65 13.6877 175.426 14.7473 175.426 16.192C175.426 17.6293 175.646 18.689 176.086 19.371C176.534 20.053 177.201 20.394 178.088 20.394C178.976 20.394 179.639 20.053 180.079 19.371C180.527 18.689 180.75 17.622 180.75 16.17C180.75 14.74 180.53 13.6877 180.09 13.013C179.65 12.331 178.987 11.99 178.099 11.99ZM186.748 22V20.24H188.453V12.133H186.748V10.384H190.334L190.785 13.079C191.217 12.1037 191.753 11.363 192.391 10.857C193.036 10.3437 193.865 10.087 194.877 10.087C195.221 10.087 195.529 10.1163 195.801 10.175C196.079 10.2263 196.354 10.296 196.626 10.384L195.889 12.496C195.654 12.43 195.434 12.3823 195.229 12.353C195.023 12.3163 194.796 12.298 194.547 12.298C193.703 12.298 192.974 12.6133 192.358 13.244C191.749 13.8747 191.269 14.7693 190.917 15.928V20.24H193.26V22H186.748ZM194.448 14.663V11.803L194.756 10.384H196.626L196.208 14.663H194.448ZM204.482 10.076C205.619 10.076 206.576 10.329 207.353 10.835C208.13 11.341 208.717 12.0487 209.113 12.958C209.516 13.8673 209.718 14.938 209.718 16.17C209.718 17.3947 209.513 18.469 209.102 19.393C208.699 20.3097 208.105 21.0247 207.32 21.538C206.543 22.044 205.593 22.297 204.471 22.297C203.349 22.297 202.396 22.0513 201.611 21.56C200.834 21.0613 200.24 20.3537 199.829 19.437C199.426 18.5203 199.224 17.4387 199.224 16.192C199.224 14.982 199.426 13.9187 199.829 13.002C200.24 12.0853 200.837 11.3703 201.622 10.857C202.407 10.3363 203.36 10.076 204.482 10.076ZM204.482 11.99C203.595 11.99 202.927 12.331 202.48 13.013C202.033 13.6877 201.809 14.7473 201.809 16.192C201.809 17.6293 202.029 18.689 202.469 19.371C202.916 20.053 203.584 20.394 204.471 20.394C205.358 20.394 206.022 20.053 206.462 19.371C206.909 18.689 207.133 17.622 207.133 16.17C207.133 14.74 206.913 13.6877 206.473 13.013C206.033 12.331 205.369 11.99 204.482 11.99Z" fill="white"/>
</svg>
