<svg width="220" height="24" viewBox="0 0 220 24" fill="none" xmlns="http://www.w3.org/2000/svg">
<path d="M8.054 0.586V2.401C7.55533 2.401 7.108 2.44867 6.712 2.544C6.32333 2.63933 6.02267 2.80433 5.81 3.039C5.60467 3.27367 5.524 3.6 5.568 4.018L5.975 8.055C6.04833 8.74433 5.98967 9.31267 5.799 9.76C5.61567 10.2 5.31867 10.541 4.908 10.783C4.49733 11.025 3.995 11.1973 3.401 11.3C4.017 11.4027 4.53033 11.5713 4.941 11.806C5.35167 12.0333 5.645 12.367 5.821 12.807C5.997 13.247 6.04833 13.8263 5.975 14.545L5.568 18.582C5.524 19 5.60467 19.3263 5.81 19.561C6.02267 19.803 6.32333 19.968 6.712 20.056C7.108 20.1513 7.55533 20.199 8.054 20.199V22.014C7.29133 22.014 6.59833 21.9517 5.975 21.827C5.359 21.7097 4.83467 21.5117 4.402 21.233C3.97667 20.9543 3.665 20.5767 3.467 20.1C3.27633 19.6307 3.21767 19.0477 3.291 18.351L3.698 14.556C3.74933 14.0353 3.67967 13.61 3.489 13.28C3.30567 12.9427 2.972 12.6933 2.488 12.532C2.004 12.3707 1.33667 12.29 0.486 12.29V10.31C1.32933 10.31 1.993 10.233 2.477 10.079C2.96833 9.91767 3.30567 9.672 3.489 9.342C3.67967 9.00467 3.74933 8.57567 3.698 8.055L3.291 4.26C3.21767 3.556 3.27633 2.96567 3.467 2.489C3.665 2.01233 3.97667 1.63833 4.402 1.367C4.83467 1.08833 5.359 0.890333 5.975 0.772999C6.59833 0.648333 7.29133 0.586 8.054 0.586ZM212.209 0.586C212.971 0.586 213.661 0.648333 214.277 0.772999C214.9 0.890333 215.424 1.08833 215.85 1.367C216.282 1.64567 216.598 2.02333 216.796 2.5C216.994 2.96933 217.052 3.55233 216.972 4.249L216.565 8.055C216.513 8.57567 216.59 9.00467 216.796 9.342C217.008 9.672 217.36 9.91767 217.852 10.079C218.343 10.233 218.985 10.31 219.777 10.31V12.29C218.985 12.29 218.343 12.3707 217.852 12.532C217.36 12.6933 217.008 12.9427 216.796 13.28C216.59 13.61 216.513 14.0353 216.565 14.556L216.972 18.34C217.045 19.044 216.983 19.6343 216.785 20.111C216.594 20.5877 216.282 20.9617 215.85 21.233C215.424 21.5117 214.9 21.7097 214.277 21.827C213.661 21.9517 212.971 22.014 212.209 22.014V20.199C212.707 20.199 213.151 20.1513 213.54 20.056C213.936 19.968 214.236 19.803 214.442 19.561C214.654 19.3263 214.739 19 214.695 18.582L214.288 14.545C214.214 13.8263 214.269 13.247 214.453 12.807C214.643 12.367 214.955 12.0333 215.388 11.806C215.82 11.5713 216.363 11.4063 217.016 11.311C216.363 11.2083 215.82 11.036 215.388 10.794C214.955 10.5447 214.643 10.2 214.453 9.76C214.269 9.32 214.214 8.75167 214.288 8.055L214.695 4.018C214.739 3.6 214.654 3.27367 214.442 3.039C214.236 2.80433 213.939 2.63933 213.551 2.544C213.162 2.44867 212.715 2.401 212.209 2.401V0.586Z" fill="#FF3366"/>
<path d="M22.9284 5.91L23.5884 7.956C23.1264 8.11 22.6167 8.21267 22.0594 8.264C21.5094 8.31533 20.8934 8.341 20.2114 8.341C20.9081 8.649 21.4324 9.045 21.7844 9.529C22.1364 10.0057 22.3124 10.5923 22.3124 11.289C22.3124 12.0443 22.1291 12.719 21.7624 13.313C21.3957 13.907 20.8714 14.3727 20.1894 14.71C19.5074 15.0473 18.6897 15.216 17.7364 15.216C17.3991 15.216 17.1057 15.2013 16.8564 15.172C16.6144 15.1427 16.3761 15.095 16.1414 15.029C15.9947 15.1317 15.8701 15.271 15.7674 15.447C15.6721 15.6157 15.6244 15.7953 15.6244 15.986C15.6244 16.2207 15.7197 16.426 15.9104 16.602C16.1084 16.7707 16.4971 16.855 17.0764 16.855H19.1004C19.9291 16.855 20.6587 16.998 21.2894 17.284C21.9274 17.5627 22.4261 17.9477 22.7854 18.439C23.1521 18.923 23.3354 19.473 23.3354 20.089C23.3354 21.2477 22.8367 22.146 21.8394 22.784C20.8421 23.422 19.4047 23.741 17.5274 23.741C16.2001 23.741 15.1587 23.6053 14.4034 23.334C13.6481 23.0627 13.1164 22.6593 12.8084 22.124C12.5004 21.5887 12.3464 20.9323 12.3464 20.155H14.5574C14.5574 20.5583 14.6344 20.892 14.7884 21.156C14.9497 21.42 15.2467 21.618 15.6794 21.75C16.1121 21.882 16.7354 21.948 17.5494 21.948C18.3634 21.948 19.0087 21.8783 19.4854 21.739C19.9694 21.607 20.3177 21.4127 20.5304 21.156C20.7504 20.9067 20.8604 20.606 20.8604 20.254C20.8604 19.7847 20.6551 19.4217 20.2444 19.165C19.8337 18.9083 19.2837 18.78 18.5944 18.78H16.6034C15.5034 18.78 14.6967 18.5563 14.1834 18.109C13.6774 17.6617 13.4244 17.141 13.4244 16.547C13.4244 16.151 13.5344 15.7697 13.7544 15.403C13.9817 15.0363 14.3044 14.7173 14.7224 14.446C14.0257 14.0793 13.5161 13.6357 13.1934 13.115C12.8781 12.587 12.7204 11.949 12.7204 11.201C12.7204 10.3797 12.9257 9.661 13.3364 9.045C13.7471 8.429 14.3154 7.94867 15.0414 7.604C15.7747 7.25933 16.6181 7.087 17.5714 7.087C18.5027 7.087 19.2801 7.03933 19.9034 6.944C20.5267 6.84133 21.0694 6.69833 21.5314 6.515C22.0007 6.33167 22.4664 6.13 22.9284 5.91ZM17.5934 8.781C16.8087 8.781 16.2184 9.00467 15.8224 9.452C15.4264 9.892 15.2284 10.4677 15.2284 11.179C15.2284 11.9123 15.4301 12.5027 15.8334 12.95C16.2441 13.39 16.8417 13.61 17.6264 13.61C18.3524 13.61 18.9061 13.3973 19.2874 12.972C19.6761 12.5467 19.8704 11.9417 19.8704 11.157C19.8704 10.365 19.6797 9.771 19.2984 9.375C18.9171 8.979 18.3487 8.781 17.5934 8.781ZM35.2178 16.151C35.2178 16.6057 35.2875 16.9393 35.4268 17.152C35.5661 17.3573 35.7898 17.5113 36.0978 17.614L35.5478 19.286C34.9758 19.22 34.4845 19.0623 34.0738 18.813C33.6631 18.5637 33.3515 18.186 33.1388 17.68C32.7135 18.2153 32.1745 18.6187 31.5218 18.89C30.8691 19.1613 30.1725 19.297 29.4318 19.297C28.2585 19.297 27.3271 18.967 26.6378 18.307C25.9558 17.6397 25.6148 16.767 25.6148 15.689C25.6148 14.4643 26.0915 13.522 27.0448 12.862C27.9981 12.202 29.3621 11.872 31.1368 11.872H32.7978V11.113C32.7978 10.365 32.5705 9.826 32.1158 9.496C31.6685 9.166 31.0341 9.001 30.2128 9.001C29.8315 9.001 29.3695 9.05233 28.8268 9.155C28.2841 9.25033 27.7158 9.40067 27.1218 9.606L26.5168 7.868C27.2428 7.59667 27.9541 7.39867 28.6508 7.274C29.3475 7.142 29.9928 7.076 30.5868 7.076C32.1415 7.076 33.3001 7.42067 34.0628 8.11C34.8328 8.79933 35.2178 9.75267 35.2178 10.97V16.151ZM30.1798 17.482C30.6785 17.482 31.1661 17.35 31.6428 17.086C32.1195 16.822 32.5045 16.4517 32.7978 15.975V13.412H31.4338C30.2751 13.412 29.4465 13.6063 28.9478 13.995C28.4491 14.3763 28.1998 14.9043 28.1998 15.579C28.1998 16.195 28.3648 16.668 28.6948 16.998C29.0321 17.3207 29.5271 17.482 30.1798 17.482ZM41.9962 8.77C42.3996 8.242 42.8689 7.82767 43.4042 7.527C43.9469 7.22633 44.5409 7.076 45.1862 7.076C46.2056 7.076 47.0306 7.329 47.6612 7.835C48.2992 8.33367 48.7649 9.04133 49.0582 9.958C49.3589 10.8673 49.5092 11.938 49.5092 13.17C49.5092 14.3507 49.3332 15.403 48.9812 16.327C48.6292 17.251 48.1086 17.977 47.4192 18.505C46.7372 19.033 45.8939 19.297 44.8892 19.297C43.5912 19.297 42.5719 18.8167 41.8312 17.856L41.6992 19H39.5322V2.72L41.9962 2.445V8.77ZM44.2732 17.416C45.1092 17.416 45.7546 17.075 46.2092 16.393C46.6712 15.711 46.9022 14.6403 46.9022 13.181C46.9022 12.191 46.8106 11.388 46.6272 10.772C46.4439 10.1487 46.1726 9.694 45.8132 9.408C45.4612 9.122 45.0286 8.979 44.5152 8.979C43.9652 8.979 43.4812 9.144 43.0632 9.474C42.6452 9.804 42.2896 10.1927 41.9962 10.64V16.074C42.2676 16.492 42.5939 16.822 42.9752 17.064C43.3639 17.2987 43.7966 17.416 44.2732 17.416ZM52.8336 19V17.24H54.5386V9.133H52.8336V7.384H56.4196L56.8706 10.079C57.3033 9.10367 57.8386 8.363 58.4766 7.857C59.122 7.34367 59.9506 7.087 60.9626 7.087C61.3073 7.087 61.6153 7.11633 61.8866 7.175C62.1653 7.22633 62.4403 7.296 62.7116 7.384L61.9746 9.496C61.74 9.43 61.52 9.38233 61.3146 9.353C61.1093 9.31633 60.882 9.298 60.6326 9.298C59.7893 9.298 59.0596 9.61333 58.4436 10.244C57.835 10.8747 57.3546 11.7693 57.0026 12.928V17.24H59.3456V19H52.8336ZM60.5336 11.663V8.803L60.8416 7.384H62.7116L62.2936 11.663H60.5336ZM72.262 7.384V17.196H75.419V19H66.322V17.196H69.798V9.188H66.432V7.384H72.262ZM70.546 1.697C71.03 1.697 71.4187 1.84367 71.712 2.137C72.0127 2.43033 72.163 2.797 72.163 3.237C72.163 3.677 72.0127 4.04733 71.712 4.348C71.4187 4.64867 71.03 4.799 70.546 4.799C70.0767 4.799 69.6917 4.64867 69.391 4.348C69.0904 4.04733 68.94 3.677 68.94 3.237C68.94 2.797 69.0904 2.43033 69.391 2.137C69.6917 1.84367 70.0767 1.697 70.546 1.697ZM81.1524 13.984C81.2038 14.776 81.3724 15.425 81.6584 15.931C81.9444 16.4297 82.3184 16.7963 82.7804 17.031C83.2498 17.2657 83.7631 17.383 84.3204 17.383C84.8924 17.383 85.4204 17.295 85.9044 17.119C86.3884 16.943 86.8761 16.6937 87.3674 16.371L88.4344 17.845C87.8918 18.285 87.2574 18.637 86.5314 18.901C85.8054 19.165 85.0281 19.297 84.1994 19.297C82.9968 19.297 81.9774 19.0403 81.1414 18.527C80.3128 18.0137 79.6821 17.2987 79.2494 16.382C78.8168 15.4653 78.6004 14.4057 78.6004 13.203C78.6004 12.037 78.8131 10.9957 79.2384 10.079C79.6638 9.155 80.2724 8.42533 81.0644 7.89C81.8564 7.34733 82.8024 7.076 83.9024 7.076C84.9364 7.076 85.8238 7.31067 86.5644 7.78C87.3124 8.24933 87.8881 8.91667 88.2914 9.782C88.7021 10.64 88.9074 11.674 88.9074 12.884C88.9074 13.082 88.9001 13.28 88.8854 13.478C88.8781 13.6687 88.8671 13.8373 88.8524 13.984H81.1524ZM83.9244 8.902C83.1544 8.902 82.5164 9.177 82.0104 9.727C81.5118 10.277 81.2221 11.135 81.1414 12.301H86.5204C86.4984 11.2083 86.2638 10.3687 85.8164 9.782C85.3764 9.19533 84.7458 8.902 83.9244 8.902ZM97.4018 2.72V15.832C97.4018 16.3673 97.5632 16.7487 97.8858 16.976C98.2158 17.196 98.6412 17.306 99.1618 17.306C99.4992 17.306 99.8182 17.2693 100.119 17.196C100.42 17.1227 100.713 17.031 100.999 16.921L101.626 18.637C101.281 18.813 100.856 18.967 100.35 19.099C99.8512 19.231 99.2792 19.297 98.6338 19.297C97.4678 19.297 96.5585 18.9707 95.9058 18.318C95.2605 17.658 94.9378 16.756 94.9378 15.612V4.535H91.4288V2.72H97.4018ZM104.631 23.026V20.991H115.631V23.026H104.631ZM128.383 18.384C127.957 18.6553 127.448 18.8753 126.854 19.044C126.26 19.2127 125.64 19.297 124.995 19.297C123.645 19.297 122.619 18.9487 121.915 18.252C121.218 17.548 120.87 16.624 120.87 15.48V9.177H118.285V7.384H120.87V4.788L123.334 4.491V7.384H127.25L126.975 9.177H123.334V15.458C123.334 16.0813 123.488 16.547 123.796 16.855C124.111 17.1557 124.624 17.306 125.336 17.306C125.761 17.306 126.153 17.2547 126.513 17.152C126.872 17.0493 127.198 16.9173 127.492 16.756L128.383 18.384ZM133.918 13.984C133.969 14.776 134.138 15.425 134.424 15.931C134.71 16.4297 135.084 16.7963 135.546 17.031C136.015 17.2657 136.529 17.383 137.086 17.383C137.658 17.383 138.186 17.295 138.67 17.119C139.154 16.943 139.642 16.6937 140.133 16.371L141.2 17.845C140.657 18.285 140.023 18.637 139.297 18.901C138.571 19.165 137.794 19.297 136.965 19.297C135.762 19.297 134.743 19.0403 133.907 18.527C133.078 18.0137 132.448 17.2987 132.015 16.382C131.582 15.4653 131.366 14.4057 131.366 13.203C131.366 12.037 131.579 10.9957 132.004 10.079C132.429 9.155 133.038 8.42533 133.83 7.89C134.622 7.34733 135.568 7.076 136.668 7.076C137.702 7.076 138.589 7.31067 139.33 7.78C140.078 8.24933 140.654 8.91667 141.057 9.782C141.468 10.64 141.673 11.674 141.673 12.884C141.673 13.082 141.666 13.28 141.651 13.478C141.644 13.6687 141.633 13.8373 141.618 13.984H133.918ZM136.69 8.902C135.92 8.902 135.282 9.177 134.776 9.727C134.277 10.277 133.988 11.135 133.907 12.301H139.286C139.264 11.2083 139.029 10.3687 138.582 9.782C138.142 9.19533 137.511 8.902 136.69 8.902ZM149.716 7.076C150.853 7.076 151.81 7.329 152.587 7.835C153.365 8.341 153.951 9.04867 154.347 9.958C154.751 10.8673 154.952 11.938 154.952 13.17C154.952 14.3947 154.747 15.469 154.336 16.393C153.933 17.3097 153.339 18.0247 152.554 18.538C151.777 19.044 150.827 19.297 149.705 19.297C148.583 19.297 147.63 19.0513 146.845 18.56C146.068 18.0613 145.474 17.3537 145.063 16.437C144.66 15.5203 144.458 14.4387 144.458 13.192C144.458 11.982 144.66 10.9187 145.063 10.002C145.474 9.08533 146.072 8.37033 146.856 7.857C147.641 7.33633 148.594 7.076 149.716 7.076ZM149.716 8.99C148.829 8.99 148.162 9.331 147.714 10.013C147.267 10.6877 147.043 11.7473 147.043 13.192C147.043 14.6293 147.263 15.689 147.703 16.371C148.151 17.053 148.818 17.394 149.705 17.394C150.593 17.394 151.256 17.053 151.696 16.371C152.144 15.689 152.367 14.622 152.367 13.17C152.367 11.74 152.147 10.6877 151.707 10.013C151.267 9.331 150.604 8.99 149.716 8.99ZM165.075 2.445L167.539 2.72V19H165.372L165.196 17.57C164.8 18.12 164.327 18.5453 163.777 18.846C163.227 19.1467 162.611 19.297 161.929 19.297C160.932 19.297 160.11 19.044 159.465 18.538C158.82 18.0247 158.339 17.3097 158.024 16.393C157.716 15.469 157.562 14.402 157.562 13.192C157.562 12.0113 157.745 10.9627 158.112 10.046C158.479 9.122 159.003 8.396 159.685 7.868C160.367 7.34 161.188 7.076 162.149 7.076C162.758 7.076 163.304 7.186 163.788 7.406C164.272 7.61867 164.701 7.93033 165.075 8.341V2.445ZM162.798 8.968C161.969 8.968 161.324 9.31267 160.862 10.002C160.4 10.684 160.169 11.7473 160.169 13.192C160.169 14.182 160.264 14.9887 160.455 15.612C160.646 16.228 160.921 16.6827 161.28 16.976C161.639 17.262 162.072 17.405 162.578 17.405C163.135 17.405 163.619 17.2437 164.03 16.921C164.441 16.5983 164.789 16.2097 165.075 15.755V10.255C164.789 9.84433 164.455 9.529 164.074 9.309C163.693 9.08167 163.267 8.968 162.798 8.968ZM176.099 7.076C177.236 7.076 178.193 7.329 178.97 7.835C179.748 8.341 180.334 9.04867 180.73 9.958C181.134 10.8673 181.335 11.938 181.335 13.17C181.335 14.3947 181.13 15.469 180.719 16.393C180.316 17.3097 179.722 18.0247 178.937 18.538C178.16 19.044 177.21 19.297 176.088 19.297C174.966 19.297 174.013 19.0513 173.228 18.56C172.451 18.0613 171.857 17.3537 171.446 16.437C171.043 15.5203 170.841 14.4387 170.841 13.192C170.841 11.982 171.043 10.9187 171.446 10.002C171.857 9.08533 172.455 8.37033 173.239 7.857C174.024 7.33633 174.977 7.076 176.099 7.076ZM176.099 8.99C175.212 8.99 174.545 9.331 174.097 10.013C173.65 10.6877 173.426 11.7473 173.426 13.192C173.426 14.6293 173.646 15.689 174.086 16.371C174.534 17.053 175.201 17.394 176.088 17.394C176.976 17.394 177.639 17.053 178.079 16.371C178.527 15.689 178.75 14.622 178.75 13.17C178.75 11.74 178.53 10.6877 178.09 10.013C177.65 9.331 176.987 8.99 176.099 8.99ZM184.748 19V17.24H186.453V9.133H184.748V7.384H188.334L188.785 10.079C189.217 9.10367 189.753 8.363 190.391 7.857C191.036 7.34367 191.865 7.087 192.877 7.087C193.221 7.087 193.529 7.11633 193.801 7.175C194.079 7.22633 194.354 7.296 194.626 7.384L193.889 9.496C193.654 9.43 193.434 9.38233 193.229 9.353C193.023 9.31633 192.796 9.298 192.547 9.298C191.703 9.298 190.974 9.61333 190.358 10.244C189.749 10.8747 189.269 11.7693 188.917 12.928V17.24H191.26V19H184.748ZM192.448 11.663V8.803L192.756 7.384H194.626L194.208 11.663H192.448ZM202.482 7.076C203.619 7.076 204.576 7.329 205.353 7.835C206.13 8.341 206.717 9.04867 207.113 9.958C207.516 10.8673 207.718 11.938 207.718 13.17C207.718 14.3947 207.513 15.469 207.102 16.393C206.699 17.3097 206.105 18.0247 205.32 18.538C204.543 19.044 203.593 19.297 202.471 19.297C201.349 19.297 200.396 19.0513 199.611 18.56C198.834 18.0613 198.24 17.3537 197.829 16.437C197.426 15.5203 197.224 14.4387 197.224 13.192C197.224 11.982 197.426 10.9187 197.829 10.002C198.24 9.08533 198.837 8.37033 199.622 7.857C200.407 7.33633 201.36 7.076 202.482 7.076ZM202.482 8.99C201.595 8.99 200.927 9.331 200.48 10.013C200.033 10.6877 199.809 11.7473 199.809 13.192C199.809 14.6293 200.029 15.689 200.469 16.371C200.916 17.053 201.584 17.394 202.471 17.394C203.358 17.394 204.022 17.053 204.462 16.371C204.909 15.689 205.133 14.622 205.133 13.17C205.133 11.74 204.913 10.6877 204.473 10.013C204.033 9.331 203.369 8.99 202.482 8.99Z" fill="white"/>
</svg>
