<svg width="71" height="71" viewBox="0 0 71 71" fill="none" xmlns="http://www.w3.org/2000/svg">
<rect width="71" height="71" fill="#FDE635"/>
<path d="M19.8289 52.2134L24.3487 49.4785C25.2206 51.0249 26.0144 52.3327 27.9172 52.3327C29.7405 52.3327 30.8907 51.6227 30.8907 48.8437V29.9719H36.4415V48.9218C36.4415 54.67 33.0718 57.2871 28.1558 57.2871C26.4178 57.3811 24.6921 56.9465 23.2059 56.0406C21.7199 55.1348 20.543 53.7998 19.8303 52.212L19.8289 52.2134ZM39.4575 51.617L43.9774 48.9999C44.4799 50.0195 45.2599 50.8765 46.2278 51.4726C47.1957 52.0687 48.3121 52.3795 49.4487 52.3696C51.7491 52.3696 53.2145 51.2194 53.2145 49.6332C53.2145 47.7304 51.7079 47.056 49.1703 45.9413L47.7873 45.3534C43.7829 43.6494 41.126 41.508 41.126 36.9882C41.126 32.8247 44.2983 29.6539 49.2541 29.6539C50.8599 29.5374 52.4645 29.8965 53.8674 30.6862C55.2705 31.4759 56.4099 32.6611 57.1436 34.0942L52.8212 36.8703C52.5375 36.1589 52.0443 35.5505 51.407 35.1258C50.7697 34.701 50.0185 34.4799 49.2527 34.4918C48.9189 34.458 48.5816 34.4942 48.2625 34.598C47.9435 34.702 47.6497 34.8712 47.3996 35.095C47.1497 35.3188 46.949 35.5923 46.8106 35.8979C46.6723 36.2036 46.5992 36.5347 46.5959 36.8703C46.5959 38.536 47.6268 39.209 50.0039 40.24L51.3912 40.8349C56.1099 42.857 58.7653 44.9188 58.7653 49.5566C58.7653 54.5521 54.8404 57.2885 49.5679 57.2885C44.4133 57.2885 41.0834 54.8305 39.4575 51.6184" fill="black"/>
</svg>
