<svg width="71" height="71" viewBox="0 0 71 71" fill="none" xmlns="http://www.w3.org/2000/svg">
<rect width="71" height="71" fill="black"/>
<path d="M20.5024 27.3485H31.2154V28.1954H21.4845V34.5691H30.6351V35.4158H21.4845V42.4134H31.3271V43.2603H20.5024V27.3485ZM32.1751 27.3485H33.3133L38.3575 34.3461L43.5131 27.3485L50.5256 18.46L39.0047 35.0815L44.9414 43.2603H43.7586L38.3575 35.817L32.9339 43.2603H31.7734L37.7548 35.0815L32.1751 27.3485ZM45.3655 28.1954V27.3485H57.5739V28.1954H51.9496V43.2603H50.9675V28.1954H45.3655ZM7.10001 27.3485H8.32754L25.2544 52.54L18.2594 43.2603L8.12667 28.552L8.08204 43.2603H7.10001V27.3485ZM57.4749 42.1578C57.2743 42.1578 57.1238 42.0033 57.1238 41.8034C57.1238 41.6036 57.2743 41.4491 57.4749 41.4491C57.678 41.4491 57.826 41.6036 57.826 41.8034C57.826 42.0033 57.678 42.1578 57.4749 42.1578ZM58.4398 41.2255H58.9654C58.9725 41.5085 59.1804 41.6987 59.4861 41.6987C59.8276 41.6987 60.0211 41.4943 60.0211 41.1113V38.6851H60.556V41.1137C60.556 41.8034 60.1548 42.2007 59.4908 42.2007C58.8674 42.2007 58.4398 41.8153 58.4398 41.2255ZM61.256 41.1945H61.7862C61.8315 41.5204 62.1516 41.7273 62.6126 41.7273C63.0425 41.7273 63.3578 41.5062 63.3578 41.2017C63.3578 40.94 63.1572 40.783 62.701 40.6761L62.2568 40.569C61.6333 40.4239 61.3491 40.1243 61.3491 39.6199C61.3491 39.0087 61.8507 38.6019 62.603 38.6019C63.3029 38.6019 63.814 39.0087 63.8451 39.5866H63.3243C63.2742 39.2703 62.9972 39.0729 62.5959 39.0729C62.1731 39.0729 61.8913 39.2751 61.8913 39.5842C61.8913 39.8292 62.0727 39.9696 62.5219 40.0743L62.9016 40.167C63.6086 40.3311 63.9 40.6166 63.9 41.1327C63.9 41.7892 63.3888 42.2007 62.572 42.2007C61.8076 42.2007 61.2942 41.8082 61.256 41.1945Z" fill="white"/>
</svg>
