<svg width="71" height="71" viewBox="0 0 71 71" fill="none" xmlns="http://www.w3.org/2000/svg">
<rect width="71" height="71" fill="#8CC84B"/>
<path d="M33.9906 12.3894C34.5547 12.074 35.1902 11.9084 35.8365 11.9084C36.4829 11.9084 37.1184 12.074 37.6826 12.3894C43.3039 15.5656 48.9257 18.7411 54.5479 21.9162C55.0766 22.2173 55.5169 22.6521 55.8248 23.1769C56.1325 23.7017 56.2969 24.2983 56.3016 24.9068V44.0228C56.2907 44.6536 56.1097 45.2698 55.7782 45.8066C55.4466 46.3434 54.9764 46.7809 54.4173 47.073C48.8139 50.232 43.212 53.3924 37.6115 56.5543C37.0367 56.8722 36.3874 57.0303 35.7308 57.012C35.0743 56.9938 34.4346 56.8 33.8784 56.4506C32.1989 55.4765 30.5182 54.5048 28.8359 53.5354C28.4667 53.3681 28.1357 53.1268 27.8632 52.8268C28.0777 52.5428 28.4611 52.5016 28.772 52.3752C29.4622 52.1283 30.1277 51.8173 30.7601 51.4466C30.8397 51.3996 30.9316 51.3774 31.024 51.3829C31.1163 51.3885 31.2049 51.4216 31.2784 51.4778C32.7154 52.3014 34.1382 53.1491 35.5795 53.9642C35.8877 54.1417 36.1987 53.906 36.4613 53.7597C41.9596 50.6518 47.4597 47.5477 52.9618 44.4474C53.0599 44.3984 53.141 44.321 53.1943 44.2253C53.2479 44.1294 53.2712 44.0198 53.2614 43.9106C53.2614 37.6068 53.2614 31.302 53.2614 24.9962C53.2713 24.8735 53.2428 24.7508 53.1797 24.6452C53.1165 24.5395 53.022 24.4562 52.9092 24.4069C47.3239 21.262 41.7413 18.1159 36.1617 14.9682C36.0649 14.9019 35.9503 14.8665 35.833 14.8665C35.7157 14.8665 35.6011 14.9019 35.5043 14.9682C29.919 18.1149 24.337 21.2626 18.7582 24.4112C18.645 24.4592 18.5499 24.5418 18.4864 24.647C18.4228 24.7524 18.3943 24.8751 18.4046 24.9976C18.4046 31.3014 18.4046 37.6062 18.4046 43.912C18.395 44.021 18.4188 44.1303 18.4732 44.2253C18.5276 44.3201 18.6097 44.3963 18.7085 44.4431C20.1985 45.2876 21.6891 46.1297 23.1801 46.9693C23.5936 47.2249 24.0564 47.3903 24.538 47.4549C25.0198 47.5195 25.5099 47.4818 25.9761 47.3442C26.3801 47.1918 26.728 46.92 26.9733 46.5647C27.2187 46.2095 27.3498 45.7879 27.3492 45.3562C27.3563 39.0883 27.3492 32.8204 27.3492 26.554C27.3475 26.4875 27.36 26.4213 27.3856 26.36C27.4113 26.2986 27.4497 26.2434 27.4983 26.198C27.5467 26.1525 27.6044 26.1177 27.6673 26.0962C27.7302 26.0746 27.7969 26.0665 27.8632 26.0726C28.5732 26.0726 29.296 26.0626 30.0117 26.0726C30.081 26.0758 30.1487 26.0935 30.2107 26.1246C30.2727 26.1555 30.3274 26.1992 30.3714 26.2528C30.4154 26.3063 30.4478 26.3685 30.4663 26.4352C30.4849 26.5021 30.4891 26.572 30.4789 26.6406C30.4789 32.9482 30.486 39.2559 30.4789 45.5621C30.5265 46.4189 30.3434 47.2728 29.9488 48.0347C29.5542 48.7967 28.9625 49.439 28.2353 49.8945C27.2634 50.3475 26.1994 50.568 25.1276 50.5386C24.0557 50.5092 23.0054 50.2309 22.0597 49.7255C20.421 48.9076 18.8576 47.9434 17.2487 47.0673C16.6903 46.7759 16.2208 46.3394 15.8897 45.8036C15.5585 45.2677 15.378 44.6526 15.3672 44.0228V24.9068C15.3721 24.2855 15.5432 23.677 15.8628 23.1444C16.1825 22.6118 16.639 22.1744 17.1848 21.8779C22.7892 18.717 28.3911 15.5542 33.9906 12.3894Z" fill="#E6E6E6"/>
<path d="M38.8768 25.6281C41.3523 25.3076 43.8679 25.6926 46.1344 26.7385C46.9557 27.2284 47.6348 27.9244 48.1042 28.7576C48.5738 29.5908 48.8175 30.5321 48.8111 31.4884C48.7792 31.608 48.7052 31.7121 48.6026 31.7815C48.5001 31.8508 48.376 31.8809 48.253 31.8662C47.543 31.8662 46.833 31.8761 46.123 31.8662C45.9869 31.8574 45.8588 31.798 45.7639 31.6999C45.6691 31.6016 45.6144 31.4715 45.6104 31.3351C45.53 30.8719 45.35 30.4318 45.0825 30.0454C44.8149 29.6589 44.4663 29.3353 44.0612 29.0972C42.7129 28.5617 41.2568 28.3535 39.8126 28.4894C38.7483 28.456 37.6955 28.718 36.7709 29.2463C36.4526 29.4931 36.2195 29.8336 36.1047 30.2197C35.9898 30.6058 35.9989 31.0183 36.1305 31.399C36.3577 31.94 36.9825 32.109 37.4937 32.2751C40.4388 33.0448 43.5585 32.9681 46.4468 33.9791C47.0671 34.1512 47.6396 34.4632 48.1206 34.891C48.6015 35.3187 48.9781 35.8511 49.2215 36.4471C49.5112 37.2927 49.5812 38.1979 49.4248 39.0779C49.2686 39.958 48.8913 40.7839 48.3283 41.4781C47.3099 42.5352 45.987 43.248 44.544 43.5173C42.6645 43.899 40.7364 43.9809 38.8313 43.7601C37.0029 43.6558 35.2498 42.9965 33.806 41.8701C33.2331 41.3451 32.7833 40.7001 32.4886 39.981C32.1941 39.2621 32.0621 38.4868 32.102 37.7109C32.1149 37.5854 32.1769 37.4702 32.2746 37.3902C32.3723 37.3104 32.4976 37.2725 32.6231 37.2849C33.3331 37.2849 34.0502 37.2778 34.7645 37.2849C34.8306 37.2833 34.8964 37.295 34.9579 37.3191C35.0195 37.3431 35.0757 37.3792 35.1233 37.4252C35.1709 37.4712 35.2088 37.5261 35.2349 37.5868C35.261 37.6475 35.2749 37.7129 35.2757 37.779C35.3113 38.2199 35.4368 38.6491 35.6443 39.0397C35.8519 39.4305 36.1372 39.7746 36.4827 40.051C38.0114 40.8032 39.7198 41.1141 41.4157 40.9485C42.8352 41.0551 44.2516 40.7069 45.4599 39.9545C45.7377 39.683 45.9399 39.3436 46.0464 38.9701C46.153 38.5965 46.1602 38.2016 46.0677 37.8245C45.8944 37.194 45.2341 36.9001 44.6675 36.7084C41.7608 35.7882 38.6056 36.1219 35.7215 35.0825C35.1176 34.9058 34.5593 34.6002 34.085 34.1869C33.6106 33.7736 33.2314 33.2623 32.9738 32.6883C32.643 31.8315 32.5595 30.8989 32.7327 29.9969C32.906 29.0949 33.329 28.2596 33.9536 27.5863C35.3146 26.385 37.0474 25.6885 38.8612 25.6139L38.8768 25.6281Z" fill="#E6E6E6"/>
</svg>
