<svg width="71" height="71" viewBox="0 0 71 71" fill="none" xmlns="http://www.w3.org/2000/svg">
<rect width="71" height="71" fill="#3BC0DD"/>
<path d="M36.8831 52.7489C36.4571 52.3493 36.0126 51.9483 35.588 51.5043C35.2487 51.837 34.9306 52.1488 34.594 52.4592C30.3923 56.3016 26.0613 57.9012 23.4939 56.3462C21.0103 54.858 20.2279 50.4616 21.2219 44.9305C21.328 44.331 21.4552 43.7313 21.6039 43.1318C21.158 42.9927 20.7334 42.8646 20.3088 42.7142C15.0222 40.8 11.5418 37.6912 11.5418 34.5813C11.5418 31.584 14.7893 28.6742 19.8615 26.8088C20.4295 26.6083 21.0288 26.4093 21.6451 26.2311C21.5031 25.6533 21.3909 25.0978 21.2844 24.5605C20.2222 18.946 20.9649 14.4603 23.4698 12.9499C26.0797 11.3503 30.4107 13.0613 34.7602 17.0804C35.0144 17.324 35.27 17.5913 35.5454 17.8572C35.9487 17.4576 36.3307 17.0582 36.734 16.7032C40.852 12.9443 44.9473 11.3726 47.4521 12.8831C50.0621 14.4367 50.8275 19.2341 49.6602 25.1647C49.5963 25.5433 49.5182 25.8983 49.4274 26.2784C49.9584 26.4343 50.4881 26.6111 50.9766 26.7893C56.1553 28.6548 59.5094 31.5644 59.4668 34.6286C59.4668 37.7595 55.8798 40.8473 50.3788 42.7574C50.082 42.8464 49.7852 42.9579 49.487 43.0455C49.6148 43.4897 49.6986 43.9337 49.7838 44.3779C50.8871 50.1303 50.038 54.8384 47.4706 56.3935C46.7964 56.7915 46.0209 56.9941 45.2341 56.9782C42.8812 56.9741 39.8935 55.4553 36.8831 52.7489ZM41.0437 44.5978C39.8245 46.4572 38.4846 48.2377 37.0322 49.9284C37.4355 50.346 37.8387 50.7288 38.242 51.0838C41.7437 54.2371 44.97 55.4148 46.478 54.5043C46.9385 54.1155 47.3148 53.6401 47.5846 53.106C47.8544 52.5721 48.0122 51.9905 48.0485 51.3956C48.355 49.1917 48.2685 46.9523 47.7929 44.7773C47.729 44.3779 47.6509 43.9783 47.5388 43.5564C45.4002 44.0472 43.2302 44.3951 41.0437 44.5978ZM23.2568 45.3092C22.3877 50.0425 23.0239 53.5702 24.5348 54.4822C25.0701 54.7014 25.6479 54.8027 26.2275 54.7785C26.8072 54.7545 27.3743 54.6058 27.8888 54.3429C29.8902 53.5183 31.7129 52.3272 33.2592 50.8332C33.5773 50.5659 33.8741 50.2555 34.1936 49.9451C32.7093 48.2539 31.3339 46.4735 30.0756 44.6144C27.8973 44.4361 25.7342 44.1105 23.6018 43.64C23.4698 44.2205 23.3633 44.7746 23.2568 45.3092ZM35.6108 48.4179C36.5451 47.3292 37.4781 46.1306 38.4124 44.7982C37.4781 44.8428 36.5025 44.8651 35.5256 44.8651C34.5486 44.8651 33.637 44.8428 32.7239 44.7982C33.6781 46.1069 34.6338 47.3292 35.6093 48.4179H35.6108ZM31.152 26.742C30.3454 27.963 29.5601 29.2479 28.8175 30.6066C28.0748 31.939 27.3975 33.2935 26.7798 34.6439C27.4174 35.9762 28.0961 37.3307 28.8388 38.7089C29.5814 40.0412 30.3667 41.3541 31.1733 42.5945C32.5734 42.6835 34.0388 42.7337 35.5241 42.7337C37.0095 42.7337 38.4948 42.6892 39.9176 42.5792C40.6816 41.3582 41.4668 40.0469 42.2109 38.6923C42.955 37.3377 43.6536 35.9608 44.2699 34.6286C43.6536 33.3185 42.9536 31.9639 42.2109 30.608C41.4683 29.252 40.683 27.963 39.8977 26.7433C38.4777 26.632 37.0109 26.5652 35.5256 26.5652C34.0402 26.5652 32.5748 26.6306 31.152 26.742ZM24.1485 41.5991C25.6047 41.9252 27.0787 42.1702 28.5633 42.3328C28.0535 41.4892 27.5452 40.6441 27.0567 39.7559C26.5895 38.89 26.1223 38.0241 25.6977 37.1582C25.0829 38.6672 24.5731 40.1582 24.1485 41.5991ZM43.993 39.7336C43.5045 40.6218 43.0161 41.4654 42.529 42.2882C44.0358 42.1032 45.531 41.8364 47.0077 41.4892C46.5466 39.9899 46.0081 38.5147 45.3946 37.069C44.9487 37.9572 44.4815 38.8454 43.993 39.7336ZM20.519 28.8512C16.1894 30.4507 13.5795 32.7797 13.5795 34.6034C13.662 35.1902 13.8619 35.7552 14.1677 36.266C14.4735 36.7768 14.8793 37.2232 15.3616 37.5799C17.0181 38.9457 18.9178 39.9996 20.9649 40.6886C21.3469 40.8279 21.7501 40.9337 22.1534 41.0673C22.8053 38.8828 23.5922 36.7391 24.5092 34.648C23.5903 32.5929 22.8105 30.4805 22.1747 28.3249C21.602 28.4753 21.0501 28.6507 20.519 28.8512ZM46.5618 34.6034C47.5037 36.668 48.31 38.7893 48.9758 40.9545C49.2527 40.8654 49.5282 40.7763 49.7824 40.6873C54.5152 39.0445 57.4504 36.5344 57.466 34.5799C57.466 32.7589 54.7495 30.4034 50.3134 28.8052C49.8676 28.6507 49.3805 28.4947 48.8934 28.3388C48.2505 30.4727 47.4717 32.565 46.5618 34.6034ZM43.9731 29.4957C44.4616 30.3839 44.9288 31.2512 45.352 32.1172C45.9417 30.7019 46.4518 29.256 46.8799 27.7862C45.4383 27.4427 43.9787 27.176 42.5077 26.987C43.0175 27.807 43.5045 28.6298 43.9717 29.4957H43.9731ZM24.1698 27.768C24.5958 29.1894 25.1042 30.6331 25.6977 32.1199C26.1237 31.2539 26.5895 30.388 27.0567 29.5221C27.5239 28.6562 28.0109 27.8126 28.5207 26.9898C26.9928 27.1861 25.5501 27.452 24.1698 27.768ZM38.0716 18.3292C37.7109 18.662 37.3503 19.017 36.9882 19.3732C38.462 21.0432 39.8167 22.8108 41.0423 24.6634C43.2022 24.8679 45.3443 25.2243 47.4521 25.7299C47.5373 25.3972 47.5941 25.063 47.6651 24.7303C48.6591 19.6224 48.0471 15.7133 46.434 14.7374C46.08 14.5425 45.6783 14.4463 45.2724 14.459C43.5386 14.4507 40.8775 15.7745 38.0716 18.325V18.3292ZM24.4879 14.7932C22.9813 15.7035 22.3863 19.3454 23.2781 24.1429C23.3846 24.6538 23.4911 25.1633 23.6174 25.6965C25.7281 25.2094 27.8695 24.8607 30.0273 24.6524C31.2573 22.7973 32.6192 21.0295 34.1027 19.3622C33.8698 19.1172 33.6142 18.8958 33.3814 18.673C30.4278 15.9347 27.5878 14.4896 25.7332 14.4896C25.2974 14.4751 24.866 14.5802 24.4879 14.7932ZM38.3684 24.4756C37.4931 23.2339 36.5488 22.0404 35.5398 20.9004C34.5855 21.9877 33.6299 23.1878 32.6998 24.4756C33.6341 24.431 34.5671 24.4087 35.5227 24.4087C36.4784 24.4087 37.4355 24.4269 38.3698 24.4756H38.3684ZM31.2798 34.6926C31.2599 34.1218 31.355 33.5528 31.5599 33.0182C31.7647 32.4834 32.0751 31.9936 32.4734 31.5769C32.8716 31.1599 33.3498 30.8244 33.8806 30.5891C34.4116 30.3538 34.9845 30.2235 35.5667 30.2057C36.7415 30.2449 37.8527 30.7393 38.6562 31.5804C39.4598 32.4215 39.8905 33.5407 39.8537 34.6926C39.8916 35.8454 39.4614 36.9659 38.6572 37.808C37.8532 38.65 36.7412 39.1449 35.5653 39.1837C34.9827 39.1659 34.4094 39.0355 33.8785 38.8C33.3474 38.5644 32.869 38.2283 32.4709 37.8109C32.0727 37.3937 31.7626 36.9034 31.5581 36.3682C31.3537 35.8332 31.259 35.2636 31.2798 34.6926Z" fill="#E6E6E6"/>
</svg>
