<svg width="71" height="71" viewBox="0 0 71 71" fill="none" xmlns="http://www.w3.org/2000/svg">
<g clip-path="url(#clip0)">
<rect width="71" height="71" rx="10" fill="white"/>
<path fill-rule="evenodd" clip-rule="evenodd" d="M7.1 0C3.17878 0 0 3.17878 0 7.1V63.9C0 67.8212 3.17878 71 7.1 71H63.9C67.8212 71 71 71 71 71V0H63.9H7.1ZM48.8956 30.3472C49.4948 30.3491 50.1756 30.3808 50.6877 30.4363C52.7733 30.6619 54.3975 31.5618 55.7793 33.2565C56.4674 34.1007 56.7029 34.4702 56.6526 34.6281C56.6204 34.7301 56.1482 35.0683 54.6471 36.0647C53.1726 37.0435 52.6976 37.3368 52.5873 37.3368C52.4754 37.3368 52.2425 37.0971 51.9065 36.6366C51.2596 35.7501 50.5991 35.3454 49.5782 35.2105C48.4801 35.065 47.4952 35.4112 47.0128 36.1123C46.6004 36.7113 46.5382 37.6751 46.866 38.3755C47.2455 39.1867 47.9328 39.6352 50.5666 40.7902C53.6043 42.122 55.1436 43.0338 56.2647 44.1651C57.4719 45.3836 58.0837 46.7904 58.2715 48.7803C58.3633 49.7501 58.2512 50.8996 57.9736 51.8342C57.293 54.1253 55.4563 55.803 52.7639 56.5925C52.0197 56.8108 51.3272 56.9411 50.6422 56.9913C49.5966 57.0682 48.0997 57.0258 47.1988 56.8946C44.9194 56.5627 42.3465 55.2363 41.0634 53.7324C40.4336 52.9941 39.6296 51.7793 39.6296 51.5654C39.6296 51.4624 39.6808 51.4038 39.8833 51.2751C40.4838 50.8935 43.9251 48.9262 43.9919 48.9262C44.0322 48.9262 44.212 49.1381 44.3912 49.397C44.7972 49.9831 45.7954 50.9906 46.3029 51.3269C46.7176 51.6014 47.2477 51.8219 47.877 51.9809C48.2375 52.0708 48.4284 52.0869 49.2149 52.0869C50.0185 52.0866 50.1834 52.0731 50.5429 51.9764C51.4939 51.7205 52.2361 51.191 52.5506 50.544C52.6885 50.2646 52.6912 50.2297 52.6912 49.5517V48.8488L52.5222 48.5136C52.1129 47.7009 51.2308 47.1433 48.4419 45.9353C47.1609 45.3804 45.5919 44.5979 44.9794 44.2087C43.5815 43.3204 42.6126 42.3048 41.9768 41.0616C41.3443 39.8253 41.25 39.3651 41.2484 37.5062C41.2469 36.051 41.2445 36.0688 41.5458 35.14C41.8191 34.2973 42.3788 33.3556 42.9965 32.6992C44.2293 31.3887 46.0306 30.5465 47.9589 30.3789C48.2056 30.3555 48.5362 30.3461 48.8956 30.3472ZM32.3016 30.6346C36.0157 30.6365 38.1453 30.6494 38.1795 30.6709C38.2439 30.7108 38.252 31.0339 38.252 33.0968V35.4767L30.8397 35.5037V46.0262C30.8397 51.8137 30.8281 56.5832 30.8119 56.6253C30.7857 56.696 30.5007 56.7016 28.0893 56.7016H25.396L25.3682 56.5927C25.3501 56.5329 25.3371 51.7634 25.3366 45.9935L25.3358 35.5031L17.9237 35.4764V33.1248C17.9237 31.2594 17.9366 30.76 17.9861 30.7103C18.0371 30.6578 19.9286 30.6442 28.0782 30.6362C29.6496 30.6346 31.0635 30.6339 32.3016 30.6346Z" fill="#0288D1"/>
</g>
<defs>
<clipPath id="clip0">
<rect width="71" height="71" fill="white"/>
</clipPath>
</defs>
</svg>
